<?xml version="1.0" encoding="UTF-8" standalone="no"?>
<!-- Created with Inkscape (http://www.inkscape.org/) -->

<svg
   xmlns:dc="http://purl.org/dc/elements/1.1/"
   xmlns:cc="http://creativecommons.org/ns#"
   xmlns:rdf="http://www.w3.org/1999/02/22-rdf-syntax-ns#"
   xmlns:svg="http://www.w3.org/2000/svg"
   xmlns="http://www.w3.org/2000/svg"
   xmlns:sodipodi="http://sodipodi.sourceforge.net/DTD/sodipodi-0.dtd"
   xmlns:inkscape="http://www.inkscape.org/namespaces/inkscape"
   width="200"
   height="150"
   viewBox="0 0 200 150"
   id="svg2"
   version="1.1"
   inkscape:version="0.92.3 (2405546, 2018-03-11)"
   sodipodi:docname="01_jordan-measure.svg">
  <sodipodi:namedview
     id="base"
     pagecolor="#ffffff"
     bordercolor="#666666"
     borderopacity="1.0"
     inkscape:pageopacity="0.0"
     inkscape:pageshadow="2"
     inkscape:zoom="5.6533333"
     inkscape:cx="100"
     inkscape:cy="75"
     inkscape:document-units="px"
     inkscape:current-layer="layer1"
     showgrid="false"
     units="px"
     inkscape:window-width="1920"
     inkscape:window-height="1031"
     inkscape:window-x="0"
     inkscape:window-y="25"
     inkscape:window-maximized="1" />
  <defs
     id="defs4" />
  <metadata
     id="metadata7">
    <rdf:RDF>
      <cc:Work
         rdf:about="">
        <dc:format>image/svg+xml</dc:format>
        <dc:type
           rdf:resource="http://purl.org/dc/dcmitype/StillImage" />
        <dc:title></dc:title>
        <cc:license
           rdf:resource="http://creativecommons.org/publicdomain/zero/1.0/" />
        <dc:creator>
          <cc:Agent>
            <dc:title>meisterluk</dc:title>
          </cc:Agent>
        </dc:creator>
      </cc:Work>
      <cc:License
         rdf:about="http://creativecommons.org/publicdomain/zero/1.0/">
        <cc:permits
           rdf:resource="http://creativecommons.org/ns#Reproduction" />
        <cc:permits
           rdf:resource="http://creativecommons.org/ns#Distribution" />
        <cc:permits
           rdf:resource="http://creativecommons.org/ns#DerivativeWorks" />
      </cc:License>
    </rdf:RDF>
  </metadata>
  <g
     inkscape:label="Layer 1"
     inkscape:groupmode="layer"
     id="layer1"
     transform="translate(0,-902.36216)">
    <path
       style="fill:#c8c8c8;stroke:none;stroke-width:1px;stroke-linecap:butt;stroke-linejoin:miter;stroke-opacity:1;fill-opacity:1"
       d="m 13.974056,945.87634 h 6.721699 v -12.7359 h 6.721699 v -7.60614 h 6.721699 v -5.66034 h 6.367923 v -4.59906 h 6.721699 v -3.53772 h 6.544811 v -3.18396 h 6.721699 v -2.12268 h 6.721695 v 0.35376 h 6.721703 v 2.8302 h 6.544807 v 7.78302 h 6.721695 v 14.32782 h 6.721703 v 13.6203 h 6.721692 v 8.13678 h 6.72171 v 5.12976 h 6.36792 v 2.83014 h 6.7217 v 1.59198 h 6.72169 v 0.88446 h 6.89858 v 0.35376 h 6.36794 v 0.72278 h 6.83105 v 0.62537 h 6.56658 v 1.12567 h 6.75421 V 968.56 h 6.69167 v 4.37774 h 6.81674 v 38.64906 h -6.77347 v 8.3166 h -6.7217 v 6.0142 h -6.63325 v 4.5106 h -6.72169 v 3.5377 h -6.54482 v 3.0955 h -6.98703 v 2.3881 h -6.54481 l -1e-5,1.6804 h -6.45636 v -2.1227 h -6.89858 v -4.1569 h -6.63325 v -4.8643 h -6.63326 l 10e-6,-5.5719 h -6.367935 v -5.572 h -6.810143 v -4.8644 h -6.633255 l -7e-6,-4.1568 h -6.633248 v -2.388 H 67.21698 v -1.3266 h -6.367928 v -0.796 H 53.95047 v -0.4423 h -6.721695 v -0.1768 l -6.367928,0 v -0.2654 l -6.987026,0 v -0.619 h -6.633255 v -1.5036 h -6.633255 v -4.9528 h -6.633255 z"
       id="path5962"
       inkscape:connector-curvature="0" />
    <flowRoot
       xml:space="preserve"
       id="flowRoot812"
       style="font-style:normal;font-weight:normal;font-size:40px;line-height:1.25;font-family:sans-serif;letter-spacing:0px;word-spacing:0px;fill:#000000;fill-opacity:1;stroke:none"><flowRegion
         id="flowRegion814"><rect
           id="rect816"
           width="270.8089"
           height="115.70926"
           x="-38.335289"
           y="75.967171" /></flowRegion><flowPara
         id="flowPara818" /></flowRoot>    <flowRoot
       xml:space="preserve"
       id="flowRoot820"
       style="font-style:normal;font-weight:normal;font-size:40px;line-height:1.25;font-family:sans-serif;letter-spacing:0px;word-spacing:0px;fill:#000000;fill-opacity:1;stroke:none"
       transform="translate(0,752.36216)"><flowRegion
         id="flowRegion822"><rect
           id="rect824"
           width="89.331772"
           height="127.31536"
           x="29.191092"
           y="32.708084" /></flowRegion><flowPara
         id="flowPara826">asjkdh</flowPara></flowRoot>    <path
       d="M 0,0 0,150 M 5,0 5,150 M 10,0 10,150 M 15,0 15,150 M 20,0 20,150 M 25,0 25,150 M 30,0 30,150 M 35,0 35,150 M 40,0 40,150 M 45,0 45,150 M 50,0 50,150 M 55,0 55,150 M 60,0 60,150 M 65,0 65,150 M 70,0 70,150 M 75,0 75,150 M 80,0 80,150 M 85,0 85,150 M 90,0 90,150 M 95,0 95,150 m 5,-150 0,150 m 5,-150 0,150 m 5,-150 0,150 m 5,-150 0,150 m 5,-150 0,150 m 5,-150 0,150 m 5,-150 0,150 m 5,-150 0,150 m 5,-150 0,150 m 5,-150 0,150 m 5,-150 0,150 m 5,-150 0,150 m 5,-150 0,150 m 5,-150 0,150 m 5,-150 0,150 m 5,-150 0,150 m 5,-150 0,150 m 5,-150 0,150 m 5,-150 0,150 m 5,-150 0,150 m 5,-150 0,150 M 0,0 200,0 M 0,5 200,5 M 0,10 200,10 M 0,15 200,15 M 0,20 200,20 M 0,25 200,25 M 0,30 200,30 M 0,35 200,35 M 0,40 200,40 M 0,45 200,45 M 0,50 200,50 M 0,55 200,55 M 0,60 200,60 M 0,65 200,65 M 0,70 200,70 M 0,75 200,75 M 0,80 200,80 M 0,85 200,85 M 0,90 200,90 M 0,95 200,95 m -200,5 200,0 m -200,5 200,0 m -200,5 200,0 m -200,5 200,0 m -200,5 200,0 m -200,5 200,0 m -200,5 200,0 m -200,5 200,0 m -200,5 200,0 m -200,5 200,0 m -200,5 200,0"
       style="fill:none;stroke:#000000;stroke-width:1px"
       id="path1390" />
    <path
       d="m 8.3443394,40.360862 0,35.49292 m 4.9999996,-35.49292 0,35.49292 m -4.9999996,-35.49292 7.0141506,0 m -7.0141506,5 7.0141506,0 m -7.0141506,5 7.0141506,0 m -7.0141506,5 7.0141506,0 m -7.0141506,5 7.0141506,0 m -7.0141506,5 7.0141506,0 m -7.0141506,5 7.0141506,0 m -7.0141506,5 7.0141506,0"
       style="fill:none;stroke:#000000;stroke-width:1px"
       id="path1392" />
    <path
       d="m 8.3443394,40.360862 0,35.49292 m 4.9999996,-35.49292 0,35.49292 m -4.9999996,-35.49292 7.0141506,0 m -7.0141506,5 7.0141506,0 m -7.0141506,5 7.0141506,0 m -7.0141506,5 7.0141506,0 m -7.0141506,5 7.0141506,0 m -7.0141506,5 7.0141506,0 m -7.0141506,5 7.0141506,0 m -7.0141506,5 7.0141506,0"
       style="fill:none;stroke:#000000;stroke-width:1px"
       id="path1394" />
    <rect
       style="opacity:1;vector-effect:none;fill:none;fill-opacity:1;stroke:#000000;stroke-width:1;stroke-linecap:round;stroke-linejoin:round;stroke-miterlimit:4;stroke-dasharray:none;stroke-dashoffset:0;stroke-opacity:1"
       id="rect5860"
       width="4.9528298"
       height="51.47406"
       x="9.0212259"
       y="945.87634" />
    <rect
       style="opacity:1;vector-effect:none;fill:none;fill-opacity:1;stroke:#000000;stroke-width:1;stroke-linecap:round;stroke-linejoin:round;stroke-miterlimit:4;stroke-dasharray:none;stroke-dashoffset:0;stroke-opacity:1"
       id="rect5862"
       width="6.7216983"
       height="12.735881"
       x="13.974056"
       y="933.14044" />
    <rect
       style="opacity:1;vector-effect:none;fill:none;fill-opacity:1;stroke:#000000;stroke-width:1;stroke-linecap:round;stroke-linejoin:round;stroke-miterlimit:4;stroke-dasharray:none;stroke-dashoffset:0;stroke-opacity:1"
       id="rect5864"
       width="6.7216978"
       height="7.606112"
       x="20.695755"
       y="925.5343" />
    <rect
       style="opacity:1;vector-effect:none;fill:none;fill-opacity:1;stroke:#000000;stroke-width:1;stroke-linecap:round;stroke-linejoin:round;stroke-miterlimit:4;stroke-dasharray:none;stroke-dashoffset:0;stroke-opacity:1"
       id="rect5866"
       width="6.7216973"
       height="5.6603494"
       x="27.417454"
       y="919.87396" />
    <rect
       style="opacity:1;vector-effect:none;fill:none;fill-opacity:1;stroke:#000000;stroke-width:1;stroke-linecap:round;stroke-linejoin:round;stroke-miterlimit:4;stroke-dasharray:none;stroke-dashoffset:0;stroke-opacity:1"
       id="rect5868"
       width="6.3679228"
       height="4.5990667"
       x="34.139153"
       y="915.2749" />
    <rect
       style="opacity:1;vector-effect:none;fill:none;fill-opacity:1;stroke:#000000;stroke-width:1;stroke-linecap:round;stroke-linejoin:round;stroke-miterlimit:4;stroke-dasharray:none;stroke-dashoffset:0;stroke-opacity:1"
       id="rect5870"
       width="6.7216973"
       height="3.5377424"
       x="40.507076"
       y="911.73718" />
    <rect
       style="opacity:1;vector-effect:none;fill:none;fill-opacity:1;stroke:#000000;stroke-width:1;stroke-linecap:round;stroke-linejoin:round;stroke-miterlimit:4;stroke-dasharray:none;stroke-dashoffset:0;stroke-opacity:1"
       id="rect5872"
       width="6.5448098"
       height="3.183985"
       x="47.228775"
       y="908.55322" />
    <rect
       style="opacity:1;vector-effect:none;fill:none;fill-opacity:1;stroke:#000000;stroke-width:1;stroke-linecap:round;stroke-linejoin:round;stroke-miterlimit:4;stroke-dasharray:none;stroke-dashoffset:0;stroke-opacity:1"
       id="rect5874"
       width="6.7216969"
       height="2.1226664"
       x="53.773586"
       y="906.43054" />
    <rect
       style="opacity:1;vector-effect:none;fill:none;fill-opacity:1;stroke:#000000;stroke-width:1;stroke-linecap:round;stroke-linejoin:round;stroke-miterlimit:4;stroke-dasharray:none;stroke-dashoffset:0;stroke-opacity:1"
       id="rect5876"
       width="6.7216959"
       height="0.70753294"
       x="60.495285"
       y="905.72302" />
    <rect
       style="opacity:1;vector-effect:none;fill:none;fill-opacity:1;stroke:#000000;stroke-width:1;stroke-linecap:round;stroke-linejoin:round;stroke-miterlimit:4;stroke-dasharray:none;stroke-dashoffset:0;stroke-opacity:1"
       id="rect5878"
       width="6.7216992"
       height="1.0613073"
       x="67.21698"
       y="905.72302" />
    <rect
       style="opacity:1;vector-effect:none;fill:none;fill-opacity:1;stroke:#000000;stroke-width:1;stroke-linecap:round;stroke-linejoin:round;stroke-miterlimit:4;stroke-dasharray:none;stroke-dashoffset:0;stroke-opacity:1"
       id="rect5880"
       width="6.5448079"
       height="2.8302166"
       x="73.938683"
       y="906.7843" />
    <rect
       style="opacity:1;vector-effect:none;fill:none;fill-opacity:1;stroke:#000000;stroke-width:1;stroke-linecap:round;stroke-linejoin:round;stroke-miterlimit:4;stroke-dasharray:none;stroke-dashoffset:0;stroke-opacity:1"
       id="rect5882"
       width="6.7216988"
       height="7.7830353"
       x="80.48349"
       y="909.6145" />
    <rect
       style="opacity:1;vector-effect:none;fill:none;fill-opacity:1;stroke:#000000;stroke-width:1;stroke-linecap:round;stroke-linejoin:round;stroke-miterlimit:4;stroke-dasharray:none;stroke-dashoffset:0;stroke-opacity:1"
       id="rect5884"
       width="6.7217016"
       height="14.327846"
       x="87.205185"
       y="917.39752" />
    <rect
       style="opacity:1;vector-effect:none;fill:none;fill-opacity:1;stroke:#000000;stroke-width:1;stroke-linecap:round;stroke-linejoin:round;stroke-miterlimit:4;stroke-dasharray:none;stroke-dashoffset:0;stroke-opacity:1"
       id="rect5886"
       width="6.7216973"
       height="13.620309"
       x="93.926888"
       y="931.72534" />
    <rect
       style="opacity:1;vector-effect:none;fill:none;fill-opacity:1;stroke:#000000;stroke-width:1;stroke-linecap:round;stroke-linejoin:round;stroke-miterlimit:4;stroke-dasharray:none;stroke-dashoffset:0;stroke-opacity:1"
       id="rect5888"
       width="6.7217007"
       height="8.1368008"
       x="100.64858"
       y="945.34564" />
    <rect
       style="opacity:1;vector-effect:none;fill:none;fill-opacity:1;stroke:#000000;stroke-width:1;stroke-linecap:round;stroke-linejoin:round;stroke-miterlimit:4;stroke-dasharray:none;stroke-dashoffset:0;stroke-opacity:1"
       id="rect5890"
       width="6.3679223"
       height="5.1297383"
       x="107.37029"
       y="953.48242" />
    <rect
       style="opacity:1;vector-effect:none;fill:none;fill-opacity:1;stroke:#000000;stroke-width:1;stroke-linecap:round;stroke-linejoin:round;stroke-miterlimit:4;stroke-dasharray:none;stroke-dashoffset:0;stroke-opacity:1"
       id="rect5892"
       width="6.721693"
       height="2.8301661"
       x="113.73821"
       y="958.61218" />
    <rect
       style="opacity:1;vector-effect:none;fill:none;fill-opacity:1;stroke:#000000;stroke-width:1;stroke-linecap:round;stroke-linejoin:round;stroke-miterlimit:4;stroke-dasharray:none;stroke-dashoffset:0;stroke-opacity:1"
       id="rect5894"
       width="6.7216964"
       height="1.592008"
       x="120.45991"
       y="961.44232" />
    <rect
       style="opacity:1;vector-effect:none;fill:none;fill-opacity:1;stroke:#000000;stroke-width:1;stroke-linecap:round;stroke-linejoin:round;stroke-miterlimit:4;stroke-dasharray:none;stroke-dashoffset:0;stroke-opacity:1"
       id="rect5896"
       width="6.8985863"
       height="0.884462"
       x="127.1816"
       y="963.0343" />
    <rect
       style="opacity:1;vector-effect:none;fill:none;fill-opacity:1;stroke:#000000;stroke-width:1;stroke-linecap:round;stroke-linejoin:round;stroke-miterlimit:4;stroke-dasharray:none;stroke-dashoffset:0;stroke-opacity:1"
       id="rect5898"
       width="6.3679285"
       height="0.35377514"
       x="134.08018"
       y="963.91876" />
    <rect
       style="opacity:1;vector-effect:none;fill:none;fill-opacity:1;stroke:#000000;stroke-width:1;stroke-linecap:round;stroke-linejoin:round;stroke-miterlimit:4;stroke-dasharray:none;stroke-dashoffset:0;stroke-opacity:1"
       id="rect5900"
       width="6.831049"
       height="0.72275943"
       x="140.44812"
       y="964.27252" />
    <rect
       style="opacity:1;vector-effect:none;fill:none;fill-opacity:1;stroke:#000000;stroke-width:1;stroke-linecap:round;stroke-linejoin:round;stroke-miterlimit:4;stroke-dasharray:none;stroke-dashoffset:0;stroke-opacity:1"
       id="rect5902"
       width="6.5665812"
       height="0.62537038"
       x="147.27917"
       y="964.9953" />
    <rect
       style="opacity:1;vector-effect:none;fill:none;fill-opacity:1;stroke:#000000;stroke-width:1;stroke-linecap:round;stroke-linejoin:round;stroke-miterlimit:4;stroke-dasharray:none;stroke-dashoffset:0;stroke-opacity:1"
       id="rect5904"
       width="6.7542048"
       height="1.1256934"
       x="153.84575"
       y="965.62067" />
    <rect
       style="opacity:1;vector-effect:none;fill:none;fill-opacity:1;stroke:#000000;stroke-width:1;stroke-linecap:round;stroke-linejoin:round;stroke-miterlimit:4;stroke-dasharray:none;stroke-dashoffset:0;stroke-opacity:1"
       id="rect5906"
       width="6.6916647"
       height="1.8136623"
       x="160.59996"
       y="966.74634" />
    <rect
       style="opacity:1;vector-effect:none;fill:none;fill-opacity:1;stroke:#000000;stroke-width:1;stroke-linecap:round;stroke-linejoin:round;stroke-miterlimit:4;stroke-dasharray:none;stroke-dashoffset:0;stroke-opacity:1"
       id="rect5908"
       width="6.8167419"
       height="4.3777275"
       x="167.29163"
       y="968.56" />
    <rect
       style="opacity:1;vector-effect:none;fill:none;fill-opacity:1;stroke:#000000;stroke-width:1;stroke-linecap:round;stroke-linejoin:round;stroke-miterlimit:4;stroke-dasharray:none;stroke-dashoffset:0;stroke-opacity:1"
       id="rect5910"
       width="5.6285033"
       height="38.649036"
       x="174.10837"
       y="972.93774" />
    <rect
       style="opacity:1;vector-effect:none;fill:none;fill-opacity:1;stroke:#000000;stroke-width:1;stroke-linecap:round;stroke-linejoin:round;stroke-miterlimit:4;stroke-dasharray:none;stroke-dashoffset:0;stroke-opacity:1"
       id="rect5912"
       width="6.773468"
       height="8.3166189"
       x="167.3349"
       y="1011.5868" />
    <rect
       style="opacity:1;vector-effect:none;fill:none;fill-opacity:1;stroke:#000000;stroke-width:1;stroke-linecap:round;stroke-linejoin:round;stroke-miterlimit:4;stroke-dasharray:none;stroke-dashoffset:0;stroke-opacity:1"
       id="rect5914"
       width="6.7216921"
       height="6.0142031"
       x="160.6132"
       y="1019.9034" />
    <rect
       style="opacity:1;vector-effect:none;fill:none;fill-opacity:1;stroke:#000000;stroke-width:1;stroke-linecap:round;stroke-linejoin:round;stroke-miterlimit:4;stroke-dasharray:none;stroke-dashoffset:0;stroke-opacity:1"
       id="rect5916"
       width="6.6332521"
       height="4.5105953"
       x="153.97995"
       y="1025.9176" />
    <rect
       style="opacity:1;vector-effect:none;fill:none;fill-opacity:1;stroke:#000000;stroke-width:1;stroke-linecap:round;stroke-linejoin:round;stroke-miterlimit:4;stroke-dasharray:none;stroke-dashoffset:0;stroke-opacity:1"
       id="rect5918"
       width="6.7216949"
       height="3.5377109"
       x="147.25826"
       y="1030.4282" />
    <rect
       style="opacity:1;vector-effect:none;fill:none;fill-opacity:1;stroke:#000000;stroke-width:1;stroke-linecap:round;stroke-linejoin:round;stroke-miterlimit:4;stroke-dasharray:none;stroke-dashoffset:0;stroke-opacity:1"
       id="rect5920"
       width="6.5448117"
       height="3.09551"
       x="140.71344"
       y="1033.9659" />
    <rect
       style="opacity:1;vector-effect:none;fill:none;fill-opacity:1;stroke:#000000;stroke-width:1;stroke-linecap:round;stroke-linejoin:round;stroke-miterlimit:4;stroke-dasharray:none;stroke-dashoffset:0;stroke-opacity:1"
       id="rect5922"
       width="6.9870248"
       height="2.3880227"
       x="133.72641"
       y="1037.0614" />
    <rect
       style="opacity:1;vector-effect:none;fill:none;fill-opacity:1;stroke:#000000;stroke-width:1;stroke-linecap:round;stroke-linejoin:round;stroke-miterlimit:4;stroke-dasharray:none;stroke-dashoffset:0;stroke-opacity:1"
       id="rect5924"
       width="6.544806"
       height="2.0341594"
       x="127.1816"
       y="1039.4495" />
    <rect
       style="opacity:1;vector-effect:none;fill:none;fill-opacity:1;stroke:#000000;stroke-width:1;stroke-linecap:round;stroke-linejoin:round;stroke-miterlimit:4;stroke-dasharray:none;stroke-dashoffset:0;stroke-opacity:1"
       id="rect5926"
       width="6.4563665"
       height="0.35379392"
       x="120.72523"
       y="1041.1299" />
    <rect
       style="opacity:1;vector-effect:none;fill:none;fill-opacity:1;stroke:#000000;stroke-width:1;stroke-linecap:round;stroke-linejoin:round;stroke-miterlimit:4;stroke-dasharray:none;stroke-dashoffset:0;stroke-opacity:1"
       id="rect5928"
       width="6.8985763"
       height="2.1226757"
       x="113.82665"
       y="1039.0072" />
    <rect
       style="opacity:1;vector-effect:none;fill:none;fill-opacity:1;stroke:#000000;stroke-width:1;stroke-linecap:round;stroke-linejoin:round;stroke-miterlimit:4;stroke-dasharray:none;stroke-dashoffset:0;stroke-opacity:1"
       id="rect5930"
       width="6.6332564"
       height="4.1568346"
       x="107.1934"
       y="1034.8503" />
    <rect
       style="opacity:1;vector-effect:none;fill:none;fill-opacity:1;stroke:#000000;stroke-width:1;stroke-linecap:round;stroke-linejoin:round;stroke-miterlimit:4;stroke-dasharray:none;stroke-dashoffset:0;stroke-opacity:1"
       id="rect5932"
       width="6.633256"
       height="4.8643613"
       x="100.56014"
       y="1029.986" />
    <rect
       style="opacity:1;vector-effect:none;fill:none;fill-opacity:1;stroke:#000000;stroke-width:1;stroke-linecap:round;stroke-linejoin:round;stroke-miterlimit:4;stroke-dasharray:none;stroke-dashoffset:0;stroke-opacity:1"
       id="rect5934"
       width="6.3679361"
       height="5.57195"
       x="94.192215"
       y="1024.4141" />
    <rect
       style="opacity:1;vector-effect:none;fill:none;fill-opacity:1;stroke:#000000;stroke-width:1;stroke-linecap:round;stroke-linejoin:round;stroke-miterlimit:4;stroke-dasharray:none;stroke-dashoffset:0;stroke-opacity:1"
       id="rect5936"
       width="6.8101397"
       height="5.5719495"
       x="87.382072"
       y="1018.8421" />
    <rect
       style="opacity:1;vector-effect:none;fill:none;fill-opacity:1;stroke:#000000;stroke-width:1;stroke-linecap:round;stroke-linejoin:round;stroke-miterlimit:4;stroke-dasharray:none;stroke-dashoffset:0;stroke-opacity:1"
       id="rect5938"
       width="6.6332517"
       height="4.8643761"
       x="80.748817"
       y="1013.9777" />
    <rect
       style="opacity:1;vector-effect:none;fill:none;fill-opacity:1;stroke:#000000;stroke-width:1;stroke-linecap:round;stroke-linejoin:round;stroke-miterlimit:4;stroke-dasharray:none;stroke-dashoffset:0;stroke-opacity:1"
       id="rect5940"
       width="6.6332512"
       height="4.1568356"
       x="74.115562"
       y="1009.8209" />
    <rect
       style="opacity:1;vector-effect:none;fill:none;fill-opacity:1;stroke:#000000;stroke-width:1;stroke-linecap:round;stroke-linejoin:round;stroke-miterlimit:4;stroke-dasharray:none;stroke-dashoffset:0;stroke-opacity:1"
       id="rect5942"
       width="6.8985815"
       height="2.3880081"
       x="67.21698"
       y="1007.4329" />
    <rect
       style="opacity:1;vector-effect:none;fill:none;fill-opacity:1;stroke:#000000;stroke-width:1;stroke-linecap:round;stroke-linejoin:round;stroke-miterlimit:4;stroke-dasharray:none;stroke-dashoffset:0;stroke-opacity:1"
       id="rect5944"
       width="6.3679233"
       height="1.3266586"
       x="60.849056"
       y="1006.1063" />
    <rect
       style="opacity:1;vector-effect:none;fill:none;fill-opacity:1;stroke:#000000;stroke-width:1;stroke-linecap:round;stroke-linejoin:round;stroke-miterlimit:4;stroke-dasharray:none;stroke-dashoffset:0;stroke-opacity:1"
       id="rect5946"
       width="6.8985844"
       height="0.79605007"
       x="53.95047"
       y="1005.3103" />
    <rect
       style="opacity:1;vector-effect:none;fill:none;fill-opacity:1;stroke:#000000;stroke-width:1;stroke-linecap:round;stroke-linejoin:round;stroke-miterlimit:4;stroke-dasharray:none;stroke-dashoffset:0;stroke-opacity:1"
       id="rect5948"
       width="6.7216964"
       height="0.44224653"
       x="47.228775"
       y="1004.868" />
    <rect
       style="opacity:1;vector-effect:none;fill:none;fill-opacity:1;stroke:#000000;stroke-width:1;stroke-linecap:round;stroke-linejoin:round;stroke-miterlimit:4;stroke-dasharray:none;stroke-dashoffset:0;stroke-opacity:1"
       id="rect5950"
       width="6.3679261"
       height="0.17681155"
       x="40.860847"
       y="1004.6912" />
    <rect
       style="opacity:1;vector-effect:none;fill:none;fill-opacity:1;stroke:#000000;stroke-width:1;stroke-linecap:round;stroke-linejoin:round;stroke-miterlimit:4;stroke-dasharray:none;stroke-dashoffset:0;stroke-opacity:1"
       id="rect5952"
       width="6.9870267"
       height="0.26538393"
       x="33.873821"
       y="1004.4258" />
    <rect
       style="opacity:1;vector-effect:none;fill:none;fill-opacity:1;stroke:#000000;stroke-width:1;stroke-linecap:round;stroke-linejoin:round;stroke-miterlimit:4;stroke-dasharray:none;stroke-dashoffset:0;stroke-opacity:1"
       id="rect5954"
       width="6.633255"
       height="0.61904579"
       x="27.240566"
       y="1003.8068" />
    <rect
       style="opacity:1;vector-effect:none;fill:none;fill-opacity:1;stroke:#000000;stroke-width:1;stroke-linecap:round;stroke-linejoin:round;stroke-miterlimit:4;stroke-dasharray:none;stroke-dashoffset:0;stroke-opacity:1"
       id="rect5956"
       width="6.633255"
       height="1.503626"
       x="20.607311"
       y="1002.3032" />
    <rect
       style="opacity:1;vector-effect:none;fill:none;fill-opacity:1;stroke:#000000;stroke-width:1;stroke-linecap:round;stroke-linejoin:round;stroke-miterlimit:4;stroke-dasharray:none;stroke-dashoffset:0;stroke-opacity:1"
       id="rect5958"
       width="6.633255"
       height="4.9528198"
       x="13.974056"
       y="997.3504" />
    <path
       style="fill:none;stroke:#0000af;stroke-width:1px;stroke-linecap:butt;stroke-linejoin:miter;stroke-opacity:1"
       d="m 15.919812,941.10037 c 10.317598,-23.5669 54.580947,-48.31266 69.339622,-27.24057 9.074701,12.95664 11.797817,37.63204 31.767876,46.15327 19.0099,8.11153 55.3746,-0.12494 60.9208,19.11796 9.43854,32.74757 -19.69764,52.86277 -47.58254,61.20287 -19.53603,5.843 -31.094041,-15.7091 -55.129764,-29.8706 -16.978365,-10.0034 -52.581924,-0.8286 -60.907975,-12.58226 -9.2379823,-13.04101 -4.8173959,-42.14072 1.591981,-56.78067 z"
       id="path820"
       inkscape:connector-curvature="0"
       sodipodi:nodetypes="ssssssss" />
  </g>
</svg>
