<?xml version="1.0" encoding="UTF-8" standalone="no"?>
<!-- Created with Inkscape (http://www.inkscape.org/) -->

<svg
   xmlns:dc="http://purl.org/dc/elements/1.1/"
   xmlns:cc="http://creativecommons.org/ns#"
   xmlns:rdf="http://www.w3.org/1999/02/22-rdf-syntax-ns#"
   xmlns:svg="http://www.w3.org/2000/svg"
   xmlns="http://www.w3.org/2000/svg"
   xmlns:sodipodi="http://sodipodi.sourceforge.net/DTD/sodipodi-0.dtd"
   xmlns:inkscape="http://www.inkscape.org/namespaces/inkscape"
   width="200"
   height="200"
   viewBox="0 0 200 200"
   id="svg2"
   version="1.1"
   inkscape:version="0.91 r13725"
   sodipodi:docname="rho_P.svg">
  <defs
     id="defs4">
    <marker
       inkscape:stockid="Arrow1Mend"
       orient="auto"
       refY="0.0"
       refX="0.0"
       id="Arrow1Mend"
       style="overflow:visible;"
       inkscape:isstock="true">
      <path
         id="path4159"
         d="M 0.0,0.0 L 5.0,-5.0 L -12.5,0.0 L 5.0,5.0 L 0.0,0.0 z "
         style="fill-rule:evenodd;stroke:#000000;stroke-width:1pt;stroke-opacity:1;fill:#000000;fill-opacity:1"
         transform="scale(0.4) rotate(180) translate(10,0)" />
    </marker>
  </defs>
  <sodipodi:namedview
     id="base"
     pagecolor="#ffffff"
     bordercolor="#666666"
     borderopacity="1.0"
     inkscape:pageopacity="0.0"
     inkscape:pageshadow="2"
     inkscape:zoom="2.715"
     inkscape:cx="96.685083"
     inkscape:cy="100"
     inkscape:document-units="px"
     inkscape:current-layer="layer1"
     showgrid="false"
     units="px"
     inkscape:window-width="1366"
     inkscape:window-height="719"
     inkscape:window-x="0"
     inkscape:window-y="25"
     inkscape:window-maximized="1" />
  <metadata
     id="metadata7">
    <rdf:RDF>
      <cc:Work
         rdf:about="">
        <dc:format>image/svg+xml</dc:format>
        <dc:type
           rdf:resource="http://purl.org/dc/dcmitype/StillImage" />
        <dc:title></dc:title>
      </cc:Work>
    </rdf:RDF>
  </metadata>
  <g
     inkscape:label="Calque 1"
     inkscape:groupmode="layer"
     id="layer1"
     transform="translate(0,-852.36216)">
    <path
       style="fill:none;fill-rule:evenodd;stroke:#000000;stroke-width:1px;stroke-linecap:butt;stroke-linejoin:miter;stroke-opacity:1"
       d="m 22.099448,948.12643 164.272562,0"
       id="path3336"
       inkscape:connector-curvature="0" />
    <path
       style="fill:none;fill-rule:evenodd;stroke:#000000;stroke-width:1px;stroke-linecap:butt;stroke-linejoin:miter;stroke-opacity:1"
       d="m 105.3407,875.19826 0,136.27994"
       id="path3340"
       inkscape:connector-curvature="0" />
    <circle
       style="fill:none;fill-opacity:1;stroke:#000000;stroke-width:1;stroke-linecap:round;stroke-linejoin:round;stroke-miterlimit:4;stroke-dasharray:none;stroke-opacity:1"
       id="path3342"
       cx="104.97237"
       cy="947.75812"
       r="41.988949" />
    <path
       style="fill:none;fill-rule:evenodd;stroke:#000000;stroke-width:1px;stroke-linecap:butt;stroke-linejoin:miter;stroke-opacity:1;marker-end:url(#Arrow1Mend)"
       d="m 105.3407,948.49476 35.875,-20.71245"
       id="path4144"
       inkscape:connector-curvature="0" />
    <path
       style="fill:none;fill-rule:evenodd;stroke:#000000;stroke-width:1px;stroke-linecap:butt;stroke-linejoin:miter;stroke-opacity:1"
       d="m 171.63904,920.87045 c -0.4911,0 -0.9822,0 -1.47329,0 0,0.12277 0.10981,0.31341 0,0.36832 -0.29466,0.14733 -0.81032,-0.14733 -1.10498,0 -0.1553,0.0776 -0.21302,0.29068 -0.36832,0.36833 -0.21963,0.10981 -0.56302,-0.17363 -0.73665,0 -0.0868,0.0868 0.0549,0.25851 0,0.36832 -0.0777,0.1553 -0.29067,0.21302 -0.36832,0.36832 -0.21595,0.4319 0.21858,0.43716 0.36832,0.73665 0.0549,0.10981 -0.0868,0.28151 0,0.36833 0.0868,0.0868 0.28151,-0.0868 0.36833,0 0.0868,0.0868 -0.0549,0.25851 0,0.36832 0.15529,0.3106 0.58134,0.42605 0.73664,0.73665 0.0549,0.10981 -0.0868,0.28151 0,0.36832 0.17363,0.17363 0.56302,-0.17363 0.73665,0 0.0868,0.0868 -0.0868,0.28151 0,0.36833 0.10078,0.10078 1.27349,-0.0999 1.4733,0 0.1553,0.0776 0.22385,0.27201 0.36832,0.36832 0.22843,0.15228 0.4911,0.24555 0.73665,0.36832 0.24555,0.12278 0.4762,0.28151 0.73665,0.36833 0.23295,0.0776 0.5037,-0.0776 0.73665,0 0.51416,0.17139 1.5054,0.8528 1.84162,1.10497 0.1389,0.10418 0.21302,0.29068 0.36832,0.36833 0.34726,0.17362 0.77205,0.16857 1.10497,0.36832 0.29778,0.17866 0.45885,0.52829 0.73665,0.73665 2.0945,1.57087 -0.78215,-1.15047 1.4733,1.10497 0.24555,0.24555 0.44771,0.54402 0.73665,0.73665 0.10215,0.0681 0.28151,-0.0868 0.36832,0 0.0868,0.0868 -0.0549,0.25851 0,0.36832 0.0776,0.1553 0.36833,0.1947 0.36833,0.36833 0,0.12277 -0.36833,0.12277 -0.36833,0 0,-0.12278 0.4911,0 0.36833,0 -1.67672,0 -0.0211,-0.17363 -1.10498,0.36832 -0.10981,0.0549 -0.24555,0 -0.36832,0 -0.24555,0 -0.49843,-0.0595 -0.73665,0 -0.26634,0.0666 -0.4762,0.28151 -0.73665,0.36832 -0.11647,0.0388 -0.25185,-0.0388 -0.36832,0 -0.26045,0.0868 -0.48175,0.26637 -0.73665,0.36833 -0.36048,0.14419 -0.75771,0.19469 -1.10497,0.36832 -0.1553,0.0777 -0.21303,0.29068 -0.36833,0.36833 -0.21962,0.10981 -0.51702,-0.10981 -0.73664,0 -0.1553,0.0777 -0.21303,0.29067 -0.36833,0.36832 -0.21962,0.10982 -0.5037,-0.0777 -0.73665,0 -0.26044,0.0868 -0.4762,0.28151 -0.73665,0.36833 -0.11647,0.0388 -0.25851,-0.0549 -0.36832,0 -0.1553,0.0776 -0.21302,0.29067 -0.36832,0.36832 -0.10982,0.0549 -0.25185,-0.0388 -0.36833,0 -0.26044,0.0868 -0.46744,0.31448 -0.73665,0.36832 -0.36117,0.0722 -0.73664,0 -1.10497,0 -0.12277,0 -0.25851,-0.0549 -0.36832,0 -0.1553,0.0776 -0.21303,0.29068 -0.36833,0.36833 -0.0314,0.0157 -1.44189,0.0157 -1.47329,0 -0.1553,-0.0777 -0.36833,-0.1947 -0.36833,-0.36833 0,-0.12277 0.25851,0.0549 0.36833,0 0.1553,-0.0776 0.29067,-0.21302 0.36832,-0.36832 0.10981,-0.21963 -0.17363,-0.56302 0,-0.73665 0.0868,-0.0868 0.28151,0.0868 0.36833,0 0.0868,-0.0868 -0.12278,-0.36832 0,-0.36832 0.12277,0 -0.0868,0.45514 0,0.36832 0.19412,-0.19412 0.2815,-0.4762 0.36832,-0.73665 0.0388,-0.11647 -0.0868,-0.28151 0,-0.36832 0.0868,-0.0868 0.28151,0.0868 0.36832,0 0.0868,-0.0868 -0.0868,-0.28151 0,-0.36833 0.0868,-0.0868 0.28151,0.0868 0.36833,0 0.0868,-0.0868 -0.0868,-0.2815 0,-0.36832 0.0868,-0.0868 0.24555,0 0.36832,0 0,-0.12277 -0.0549,-0.25851 0,-0.36832 0.0777,-0.1553 0.24555,-0.24555 0.36833,-0.36833 0.12277,-0.12277 0.21302,-0.29067 0.36832,-0.36832 0.10981,-0.0549 0.28151,0.0868 0.36832,0 0.0868,-0.0868 -0.0868,-0.28151 0,-0.36832 0.0868,-0.0868 0.25852,0.0549 0.36833,0 0.1553,-0.0776 0.21302,-0.29068 0.36832,-0.36833 0.10982,-0.0549 0.28151,0.0868 0.36833,0 0.0868,-0.0868 -0.0868,-0.28151 0,-0.36832 0.0868,-0.0868 0.25851,0.0549 0.36832,0 1.53288,-0.76644 -0.39375,0.0254 0.36832,-0.73665 0.0868,-0.0868 0.25852,0.0549 0.36833,0 0.1553,-0.0776 0.24555,-0.24555 0.36832,-0.36833"
       id="path4426"
       inkscape:connector-curvature="0" />
    <path
       style="fill:none;fill-rule:evenodd;stroke:#000000;stroke-width:1px;stroke-linecap:butt;stroke-linejoin:miter;stroke-opacity:1"
       d="m 190.7919,916.45056 c -0.4911,0.36832 -0.9822,0.73665 -1.4733,1.10497 -0.12277,0.24555 -0.1742,0.54253 -0.36832,0.73665 -0.19413,0.19412 -0.54253,0.1742 -0.73665,0.36832 -0.0236,0.0236 -0.69091,1.40469 -0.73665,1.4733 -0.0963,0.14447 -0.29067,0.21302 -0.36832,0.36832 -0.073,0.14604 0.0753,1.02968 0,1.10498 -0.0868,0.0868 -0.28151,-0.0868 -0.36833,0 -0.17363,0.17363 0.10981,0.51702 0,0.73664 -0.0777,0.1553 -0.36832,0.1947 -0.36832,0.36833 0,0.27453 0.28151,0.4762 0.36832,0.73665 0.11648,0.34942 -0.0893,0.74764 0,1.10497 0.0666,0.26633 0.28151,0.4762 0.36833,0.73665 0.0388,0.11647 -0.0388,0.25185 0,0.36832 0.0868,0.26045 0.21604,0.50822 0.36832,0.73665 0.0963,0.14447 0.31342,0.2036 0.36832,0.36832 0.0776,0.23295 -0.0777,0.5037 0,0.73665 0.0549,0.16472 0.27202,0.22386 0.36833,0.36833 0.30456,0.45685 0.43208,1.01644 0.73665,1.47329 0.0963,0.14447 0.31341,0.20361 0.36832,0.36833 0.0777,0.23295 -0.0777,0.5037 0,0.73665 0.0549,0.16471 0.27201,0.22385 0.36832,0.36832 0.15229,0.22842 0.21605,0.50822 0.36833,0.73665 0.0963,0.14447 0.26414,0.22942 0.36832,0.36832 0.26561,0.35414 0.47105,0.75084 0.73665,1.10497 0.10418,0.13891 0.27201,0.22386 0.36833,0.36833 0.30456,0.45685 0.43208,1.01644 0.73664,1.47329 0.0963,0.14447 0.29068,0.21303 0.36833,0.36833 0.0549,0.10981 -0.0549,0.25851 0,0.36832 0.0777,0.1553 0.29067,0.21303 0.36832,0.36833 0.0549,0.10981 -0.0549,0.25851 0,0.36832 0.0777,0.1553 0.24555,0.24555 0.36833,0.36833 0.12277,0.12277 0.21302,0.29067 0.36832,0.36832 0.10981,0.0549 0.28151,-0.0868 0.36832,0 0.0868,0.0868 0.12278,0.36832 0,0.36832 -0.52303,0 -0.36832,-1.30169 -0.36832,-0.36832"
       id="path4428"
       inkscape:connector-curvature="0" />
    <path
       style="fill:none;fill-rule:evenodd;stroke:#000000;stroke-width:1px;stroke-linecap:butt;stroke-linejoin:miter;stroke-opacity:1"
       d="m 194.84346,924.18536 c 0.61388,0.36833 1.22775,0.73665 1.84162,1.10498 0.12278,0.24555 0.1742,0.54252 0.36833,0.73664 0.0868,0.0868 0.28151,-0.0868 0.36832,0 0.0868,0.0868 -0.0868,0.28151 0,0.36833 0.0868,0.0868 0.28151,-0.0868 0.36833,0 0.0868,0.0868 -0.0549,0.25851 0,0.36832 0.0776,0.1553 0.29067,0.21303 0.36832,0.36833 0.0549,0.10981 -0.0868,0.28151 0,0.36832 0.0868,0.0868 0.28151,-0.0868 0.36832,0 0.17363,0.17363 -0.10981,0.51702 0,0.73665 0.1553,0.3106 0.58135,0.42605 0.73665,0.73665 0.0549,0.10981 -0.0549,0.25851 0,0.36832 0.0777,0.1553 0.27201,0.22386 0.36833,0.36833 0.15228,0.22842 0.24555,0.49109 0.36832,0.73665 0.24555,0.49109 0.53273,0.9635 0.73665,1.47329 0.0456,0.114 -0.0549,0.25851 0,0.36832 0.0777,0.1553 0.29067,0.21303 0.36832,0.36833 0.0549,0.10981 -0.0298,0.24921 0,0.36832 0.0942,0.37666 0.1947,0.75772 0.36833,1.10498 0.84283,1.68567 -0.15266,-1.56296 0.73664,1.10497 0.0388,0.11647 0,0.24555 0,0.36832 0.12278,0.12278 0.29068,0.21303 0.36833,0.36833 0.0549,0.10981 -0.0549,0.25851 0,0.36832 0.0777,0.1553 0.29067,0.21303 0.36832,0.36833 0.0549,0.10981 0.12278,0.36832 0,0.36832 -0.12277,0 0.0549,-0.25851 0,-0.36832 -0.0776,-0.1553 -0.29067,-0.21303 -0.36832,-0.36833 -0.54195,-1.08391 0.85325,0.48493 -0.36833,-0.73665"
       id="path4430"
       inkscape:connector-curvature="0" />
    <path
       style="fill:none;fill-rule:evenodd;stroke:#000000;stroke-width:1px;stroke-linecap:butt;stroke-linejoin:miter;stroke-opacity:1"
       d="m 200.73665,929.3419 c 0.9822,-0.4911 1.96439,-0.98219 2.94659,-1.47329 0.24555,-0.12278 0.54253,-0.17421 0.73665,-0.36833 0.0868,-0.0868 -0.0868,-0.28151 0,-0.36832 0.0868,-0.0868 0.28151,0.0868 0.36832,0 0.0868,-0.0868 -0.0868,-0.28151 0,-0.36833 0.0868,-0.0868 0.28151,0.0868 0.36833,0 0.0868,-0.0868 0,-0.24555 0,-0.36832 0,-0.16588 0.056,-0.99288 0,-1.10497 -0.0777,-0.1553 -0.29068,-0.21303 -0.36833,-0.36833 -0.10981,-0.21962 0.10982,-0.51702 0,-0.73665 -0.0777,-0.15529 -0.29067,-0.21302 -0.36832,-0.36832 -0.0549,-0.10981 0.0868,-0.28151 0,-0.36832 -0.0868,-0.0868 -0.36832,0.12277 -0.36832,0 0,-0.11006 1.22157,0.24246 0,-0.36833 -0.14604,-0.073 -1.02968,0.0753 -1.10498,0 -0.0868,-0.0868 0.0868,-0.28151 0,-0.36832 -0.10078,-0.10078 -1.27348,0.0999 -1.47329,0 -0.1553,-0.0777 -0.21303,-0.29068 -0.36833,-0.36833 -0.0969,-0.0484 -1.28069,0 -1.47329,0 -0.12278,0 -0.28151,-0.0868 -0.36833,0 -0.0868,0.0868 0.0868,0.28151 0,0.36833 -0.0753,0.0753 -0.95893,-0.073 -1.10497,0 -0.1553,0.0776 -0.21303,0.29067 -0.36832,0.36832 -0.21963,0.10981 -0.56302,-0.17363 -0.73665,0 -0.0868,0.0868 0.0868,0.28151 0,0.36833 -0.17363,0.17363 -0.56302,-0.17363 -0.73665,0 -0.0868,0.0868 0.0868,0.28151 0,0.36832 -0.0118,0.0118 -1.01565,0 -1.10497,0"
       id="path4432"
       inkscape:connector-curvature="0" />
    <path
       style="fill:none;fill-rule:evenodd;stroke:#000000;stroke-width:1px;stroke-linecap:butt;stroke-linejoin:miter;stroke-opacity:1"
       d="m 202.20994,915.34559 c 0.58608,1.31597 1.48544,0.18719 2.20995,0.36832 0.75331,0.18833 1.46333,0.52333 2.20994,0.73665 0.48674,0.13907 0.98656,0.22925 1.4733,0.36832 1.11887,0.31968 2.19605,0.7853 3.31492,1.10497 0.48673,0.13907 0.99931,0.19058 1.47329,0.36833 0.51411,0.19279 0.95241,0.56302 1.4733,0.73665 0.23295,0.0777 0.51702,-0.10982 0.73665,0 0.10981,0.0549 -0.10216,0.30022 0,0.36832 2.11273,0.70425 0.22373,-0.10844 1.84162,1.10497 0.21963,0.16472 0.4911,0.24555 0.73665,0.36833 0.24555,0.12277 0.4762,0.28151 0.73665,0.36832 0.11647,0.0388 0.28151,-0.0868 0.36832,0 0.19412,0.19413 0.1742,0.54253 0.36832,0.73665 0.19413,0.19412 0.50823,0.21604 0.73665,0.36832 0.28894,0.19263 0.42605,0.58135 0.73665,0.73665 0.10981,0.0549 0.25851,-0.0549 0.36833,0 1.53287,0.76644 -0.39376,-0.0254 0.36832,0.73665 0.0868,0.0868 0.28151,-0.0868 0.36832,0 0.0868,0.0868 -0.0549,0.25851 0,0.36832 0.0777,0.1553 0.29068,0.21303 0.36833,0.36833 0.0549,0.10981 -0.0868,0.28151 0,0.36832 0.0868,0.0868 0.31342,-0.10981 0.36832,0 0.10981,0.21963 -0.0777,0.5037 0,0.73665 0.0549,0.16472 0.29068,0.21303 0.36833,0.36833 0.0527,0.10541 0,1.64485 0,1.84162 0,0.61387 0,1.22774 0,1.84162 0,0.12277 0.0298,0.24921 0,0.36832 -0.22757,0.91028 -0.35561,1.07954 -0.73665,1.84162 -0.12278,0.24555 -0.1742,0.54253 -0.36833,0.73665 -0.0868,0.0868 -0.28151,-0.0868 -0.36832,0 -0.0868,0.0868 0.0868,0.28151 0,0.36832 -0.0868,0.0868 -0.28151,-0.0868 -0.36832,0 -0.0868,0.0868 0.0681,0.26617 0,0.36833 -0.19263,0.28894 -0.54403,0.44771 -0.73665,0.73665 -0.0681,0.10215 0.0868,0.28151 0,0.36832 -0.0868,0.0868 -0.28151,-0.0868 -0.36833,0 -0.0868,0.0868 0.0868,0.28151 0,0.36832 -0.19412,0.19413 -0.54252,0.1742 -0.73665,0.36833 -0.0868,0.0868 0.0549,0.25851 0,0.36832 -0.76643,1.53288 0.0254,-0.39375 -0.73664,0.36833 -0.0868,0.0868 0.0868,0.28151 0,0.36832 -0.0868,0.0868 -0.28151,-0.0868 -0.36833,0 -0.0868,0.0868 0.0549,0.25851 0,0.36833 -0.0777,0.15529 -0.29067,0.21302 -0.36832,0.36832 0,0.9822 0.12277,-0.12278 -0.36833,0.36832 -0.0868,0.0868 0.0868,0.28151 0,0.36833 -0.0868,0.0868 -0.36832,0.12277 -0.36832,0 0,-0.17363 0.24555,-0.24555 0.36832,-0.36833"
       id="path4434"
       inkscape:connector-curvature="0" />
  </g>
</svg>
