<?xml version="1.0" encoding="UTF-8" standalone="no"?>
<!-- Created with Inkscape (http://www.inkscape.org/) -->

<svg
   xmlns:dc="http://purl.org/dc/elements/1.1/"
   xmlns:cc="http://creativecommons.org/ns#"
   xmlns:rdf="http://www.w3.org/1999/02/22-rdf-syntax-ns#"
   xmlns:svg="http://www.w3.org/2000/svg"
   xmlns="http://www.w3.org/2000/svg"
   xmlns:sodipodi="http://sodipodi.sourceforge.net/DTD/sodipodi-0.dtd"
   xmlns:inkscape="http://www.inkscape.org/namespaces/inkscape"
   width="300"
   height="300"
   id="svg2"
   version="1.1"
   inkscape:version="0.48.4 r9939"
   sodipodi:docname="bipartite_increment.svg">
  <defs
     id="defs4">
    <marker
       inkscape:stockid="Arrow1Mend"
       orient="auto"
       refY="0.0"
       refX="0.0"
       id="Arrow1Mend"
       style="overflow:visible;">
      <path
         id="path3810"
         d="M 0.0,0.0 L 5.0,-5.0 L -12.5,0.0 L 5.0,5.0 L 0.0,0.0 z "
         style="fill-rule:evenodd;stroke:#000000;stroke-width:1.0pt;"
         transform="scale(0.4) rotate(180) translate(10,0)" />
    </marker>
    <marker
       inkscape:stockid="Arrow1Mend"
       orient="auto"
       refY="0"
       refX="0"
       id="Arrow1Mend-1"
       style="overflow:visible">
      <path
         inkscape:connector-curvature="0"
         id="path3810-7"
         d="M 0,0 5,-5 -12.5,0 5,5 0,0 z"
         style="fill-rule:evenodd;stroke:#000000;stroke-width:1pt"
         transform="matrix(-0.4,0,0,-0.4,-4,0)" />
    </marker>
    <marker
       inkscape:stockid="Arrow1Mend"
       orient="auto"
       refY="0"
       refX="0"
       id="Arrow1Mend-2"
       style="overflow:visible">
      <path
         inkscape:connector-curvature="0"
         id="path3810-1"
         d="M 0,0 5,-5 -12.5,0 5,5 0,0 z"
         style="fill-rule:evenodd;stroke:#000000;stroke-width:1pt"
         transform="matrix(-0.4,0,0,-0.4,-4,0)" />
    </marker>
    <marker
       inkscape:stockid="Arrow1Mend"
       orient="auto"
       refY="0"
       refX="0"
       id="Arrow1Mend-22"
       style="overflow:visible">
      <path
         inkscape:connector-curvature="0"
         id="path3810-13"
         d="M 0,0 5,-5 -12.5,0 5,5 0,0 z"
         style="fill-rule:evenodd;stroke:#000000;stroke-width:1pt"
         transform="matrix(-0.4,0,0,-0.4,-4,0)" />
    </marker>
  </defs>
  <sodipodi:namedview
     id="base"
     pagecolor="#ffffff"
     bordercolor="#666666"
     borderopacity="1.0"
     inkscape:pageopacity="0.0"
     inkscape:pageshadow="2"
     inkscape:zoom="3.84"
     inkscape:cx="78.714664"
     inkscape:cy="150.84708"
     inkscape:document-units="px"
     inkscape:current-layer="layer1"
     showgrid="false"
     inkscape:window-width="1280"
     inkscape:window-height="753"
     inkscape:window-x="0"
     inkscape:window-y="25"
     inkscape:window-maximized="1" />
  <metadata
     id="metadata7">
    <rdf:RDF>
      <cc:Work
         rdf:about="">
        <dc:format>image/svg+xml</dc:format>
        <dc:type
           rdf:resource="http://purl.org/dc/dcmitype/StillImage" />
        <dc:title />
      </cc:Work>
    </rdf:RDF>
  </metadata>
  <g
     inkscape:label="Calque 1"
     inkscape:groupmode="layer"
     id="layer1"
     transform="translate(0,-752.36218)">
    <path
       style="fill:#ffb798;fill-opacity:1;stroke:none"
       d="m 147.77861,898.45593 c -5.8873,62.15503 -36.58601,114.45697 -52.04547,113.93607 -17.532843,-0.5907 -27.9407,-28.34354 -25.69923,-84.50899 0.59522,-14.91477 7.23732,-43.88744 7.23732,-43.88744 23.07453,-5.36393 35.18735,-9.00268 71.9568,-10.05135 0,0 -0.62539,15.81198 -1.44942,24.51171 z"
       id="path3753-6-3"
       inkscape:connector-curvature="0"
       sodipodi:nodetypes="sssccs" />
    <path
       style="fill:#ffe898;fill-opacity:1;stroke:none"
       d="m 262.9773,888.44755 c 0,0 -5.99861,-74.56926 -32.14715,-75.05279 -24.864,-0.45977 -36.93193,59.0015 -36.93193,59.0015 30.92317,2.70949 69.07908,16.05129 69.07908,16.05129 z"
       id="path3753-69"
       inkscape:connector-curvature="0"
       sodipodi:nodetypes="cscc" />
    <path
       sodipodi:type="arc"
       style="fill:none;stroke:#000000;stroke-width:1;stroke-linecap:round;stroke-linejoin:round;stroke-miterlimit:4;stroke-opacity:1;stroke-dasharray:none;stroke-dashoffset:0"
       id="path3753"
       sodipodi:cx="89.0625"
       sodipodi:cy="157.03125"
       sodipodi:rx="38.541668"
       sodipodi:ry="103.90625"
       d="m 127.60417,157.03125 c 0,57.38584 -17.25569,103.90625 -38.54167,103.90625 -21.285975,0 -38.541668,-46.52041 -38.541668,-103.90625 0,-57.385837 17.255693,-103.90625 38.541668,-103.90625 21.28598,0 38.54167,46.520413 38.54167,103.90625 z"
       transform="matrix(1,0,-0.14466727,1,43.029782,752.36218)" />
    <path
       sodipodi:type="arc"
       style="fill:none;stroke:#000000;stroke-width:1;stroke-linecap:round;stroke-linejoin:round;stroke-miterlimit:4;stroke-opacity:1;stroke-dasharray:none;stroke-dashoffset:0"
       id="path3753-6"
       sodipodi:cx="89.0625"
       sodipodi:cy="157.03125"
       sodipodi:rx="38.541668"
       sodipodi:ry="103.90625"
       d="m 127.60417,157.03125 c 0,57.38584 -17.25569,103.90625 -38.54167,103.90625 -21.285975,0 -38.541668,-46.52041 -38.541668,-103.90625 0,-57.385837 17.255693,-103.90625 38.541668,-103.90625 21.28598,0 38.54167,46.520413 38.54167,103.90625 z"
       transform="matrix(1,0,-0.03990822,1,143.24601,758.8726)" />
    <path
       style="fill:none;stroke:#000000;stroke-width:1px;stroke-linecap:butt;stroke-linejoin:miter;stroke-opacity:1;marker-end:url(#Arrow1Mend)"
       d="M 118.75715,848.7736 19.213244,899.22861"
       id="path3773"
       inkscape:connector-curvature="0"
       sodipodi:nodetypes="cc" />
    <flowRoot
       xml:space="preserve"
       id="flowRoot3775"
       style="font-size:9px;font-style:normal;font-variant:normal;font-weight:normal;font-stretch:normal;line-height:125%;letter-spacing:0px;word-spacing:0px;fill:#000000;fill-opacity:1;stroke:none;font-family:Gentium Basic;-inkscape-font-specification:Gentium Basic"
       transform="translate(10.9375,764.86218)"><flowRegion
         id="flowRegion3777"><rect
           id="rect3779"
           width="96.354164"
           height="127.60416"
           x="4.1666665"
           y="95.833336" /></flowRegion><flowPara
         id="flowPara3781"
         style="font-size:20px">s</flowPara></flowRoot>    <flowRoot
       xml:space="preserve"
       id="flowRoot3775-5"
       style="font-size:9px;font-style:normal;font-variant:normal;font-weight:normal;font-stretch:normal;line-height:125%;letter-spacing:0px;word-spacing:0px;fill:#000000;fill-opacity:1;stroke:none;font-family:Gentium Basic;-inkscape-font-specification:Gentium Basic"
       transform="translate(20.091797,915.61509)"><flowRegion
         id="flowRegion3777-8"><rect
           id="rect3779-5"
           width="96.354164"
           height="127.60416"
           x="4.1666665"
           y="95.833336" /></flowRegion><flowPara
         id="flowPara3781-8"
         style="font-size:20px;text-align:center;text-anchor:middle">V<flowSpan
   style="font-size:65.00091553%;text-align:center;text-anchor:middle;baseline-shift:sub"
   id="flowSpan3810">1</flowSpan></flowPara></flowRoot>    <flowRoot
       xml:space="preserve"
       id="flowRoot3775-5-7"
       style="font-size:9px;font-style:normal;font-variant:normal;font-weight:normal;font-stretch:normal;line-height:125%;letter-spacing:0px;word-spacing:0px;fill:#000000;fill-opacity:1;stroke:none;font-family:Gentium Basic;-inkscape-font-specification:Gentium Basic"
       transform="translate(141.68946,915.69842)"><flowRegion
         id="flowRegion3777-8-3"><rect
           id="rect3779-5-7"
           width="96.354164"
           height="127.60416"
           x="4.1666665"
           y="95.833336" /></flowRegion><flowPara
         id="flowPara3781-8-9"
         style="font-size:20px;text-align:center;text-anchor:middle">V<flowSpan
   style="font-size:65.00091553%;baseline-shift:sub"
   id="flowSpan3842">2</flowSpan></flowPara></flowRoot>    <path
       sodipodi:type="arc"
       style="fill:#000000;fill-opacity:1;stroke:none"
       id="path3844"
       sodipodi:cx="220.3125"
       sodipodi:cy="198.95833"
       sodipodi:rx="3.6458335"
       sodipodi:ry="3.6458335"
       d="m 223.95833,198.95833 c 0,2.01354 -1.63229,3.64583 -3.64583,3.64583 -2.01354,0 -3.64583,-1.63229 -3.64583,-3.64583 0,-2.01354 1.63229,-3.64584 3.64583,-3.64584 2.01354,0 3.64583,1.6323 3.64583,3.64584 z"
       transform="translate(0,752.36218)" />
    <path
       transform="translate(-101.5625,649.23719)"
       sodipodi:type="arc"
       style="fill:#000000;fill-opacity:1;stroke:none"
       id="path3844-5"
       sodipodi:cx="220.3125"
       sodipodi:cy="198.95833"
       sodipodi:rx="3.6458335"
       sodipodi:ry="3.6458335"
       d="m 223.95833,198.95833 c 0,2.01354 -1.63229,3.64583 -3.64583,3.64583 -2.01354,0 -3.64583,-1.63229 -3.64583,-3.64583 0,-2.01354 1.63229,-3.64584 3.64583,-3.64584 2.01354,0 3.64583,1.6323 3.64583,3.64584 z" />
    <path
       style="fill:none;stroke:#000000;stroke-width:1px;stroke-linecap:butt;stroke-linejoin:miter;stroke-opacity:1;marker-end:url(#Arrow1Mend)"
       d="M 218.67694,950.74517 121.41131,848.98735"
       id="path3864"
       inkscape:connector-curvature="0"
       sodipodi:nodetypes="cc" />
    <flowRoot
       xml:space="preserve"
       id="flowRoot3775-5-7-7"
       style="font-size:9px;font-style:normal;font-variant:normal;font-weight:normal;font-stretch:normal;line-height:125%;letter-spacing:0px;word-spacing:0px;fill:#000000;fill-opacity:1;stroke:none;font-family:Gentium Basic;-inkscape-font-specification:Gentium Basic"
       transform="translate(174.51465,863.09425)"><flowRegion
         id="flowRegion3777-8-3-6"><rect
           id="rect3779-5-7-8"
           width="96.354164"
           height="127.60416"
           x="4.1666665"
           y="95.833336" /></flowRegion><flowPara
         id="flowPara3781-8-9-0"
         style="font-size:20px;text-align:center;text-anchor:middle">b<flowSpan
   style="font-size:65.00091553%;baseline-shift:sub"
   id="flowSpan3842-0" /></flowPara></flowRoot>    <flowRoot
       xml:space="preserve"
       id="flowRoot3775-5-7-7-4"
       style="font-size:9px;font-style:normal;font-variant:normal;font-weight:normal;font-stretch:normal;line-height:125%;letter-spacing:0px;word-spacing:0px;fill:#000000;fill-opacity:1;stroke:none;font-family:Gentium Basic;-inkscape-font-specification:Gentium Basic"
       transform="translate(67.838541,721.10011)"><flowRegion
         id="flowRegion3777-8-3-6-8"><rect
           id="rect3779-5-7-8-0"
           width="96.354164"
           height="127.60416"
           x="4.1666665"
           y="95.833336" /></flowRegion><flowPara
         id="flowPara3781-8-9-0-3"
         style="font-size:20px;text-align:center;text-anchor:middle">a</flowPara></flowRoot>    <path
       transform="translate(-203.64583,701.84135)"
       sodipodi:type="arc"
       style="fill:#000000;fill-opacity:1;stroke:none"
       id="path3844-5-7"
       sodipodi:cx="220.3125"
       sodipodi:cy="198.95833"
       sodipodi:rx="3.6458335"
       sodipodi:ry="3.6458335"
       d="m 223.95833,198.95833 c 0,2.01354 -1.63229,3.64583 -3.64583,3.64583 -2.01354,0 -3.64583,-1.63229 -3.64583,-3.64583 0,-2.01354 1.63229,-3.64584 3.64583,-3.64584 2.01354,0 3.64583,1.6323 3.64583,3.64584 z" />
    <path
       style="fill:none;stroke:#000000;stroke-width:1px;stroke-linecap:butt;stroke-linejoin:miter;stroke-opacity:1;marker-end:url(#Arrow1Mend)"
       d="m 120.83333,845.70853 112.8638,46.63699"
       id="path3864-6"
       inkscape:connector-curvature="0"
       sodipodi:nodetypes="cc" />
    <path
       style="fill:none;stroke:#000000;stroke-width:1px;stroke-linecap:butt;stroke-linejoin:miter;stroke-opacity:1;marker-end:url(#Arrow1Mend)"
       d="m 119.40104,849.97416 89.45313,137.82552"
       id="path3864-6-2"
       inkscape:connector-curvature="0"
       sodipodi:nodetypes="cc" />
    <path
       style="fill:none;stroke:#000000;stroke-width:1px;stroke-linecap:butt;stroke-linejoin:miter;stroke-opacity:1;marker-end:url(#Arrow1Mend)"
       d="m 118.6849,850.86999 41.21094,170.11721"
       id="path3864-6-2-7"
       inkscape:connector-curvature="0"
       sodipodi:nodetypes="cc" />
    <path
       style="fill:none;stroke:#000000;stroke-width:1px;stroke-linecap:butt;stroke-linejoin:miter;stroke-opacity:1"
       d="m 15.625,900.90385 c 112.33937,-42.73493 203.89368,-33.19905 274.47917,0"
       id="path3773-0"
       inkscape:connector-curvature="0"
       sodipodi:nodetypes="cc" />
  </g>
</svg>
