<?xml version="1.0" encoding="UTF-8" standalone="no"?>
<!-- Created with Inkscape (http://www.inkscape.org/) -->

<svg
   xmlns:dc="http://purl.org/dc/elements/1.1/"
   xmlns:cc="http://creativecommons.org/ns#"
   xmlns:rdf="http://www.w3.org/1999/02/22-rdf-syntax-ns#"
   xmlns:svg="http://www.w3.org/2000/svg"
   xmlns="http://www.w3.org/2000/svg"
   xmlns:sodipodi="http://sodipodi.sourceforge.net/DTD/sodipodi-0.dtd"
   xmlns:inkscape="http://www.inkscape.org/namespaces/inkscape"
   width="150"
   height="150"
   id="svg2"
   version="1.1"
   inkscape:version="0.48.4 r9939"
   sodipodi:docname="duality.svg">
  <defs
     id="defs4" />
  <sodipodi:namedview
     id="base"
     pagecolor="#ffffff"
     bordercolor="#666666"
     borderopacity="1.0"
     inkscape:pageopacity="0.0"
     inkscape:pageshadow="2"
     inkscape:zoom="3.84"
     inkscape:cx="68.947443"
     inkscape:cy="75.291614"
     inkscape:document-units="px"
     inkscape:current-layer="layer1"
     showgrid="false"
     inkscape:window-width="1280"
     inkscape:window-height="753"
     inkscape:window-x="0"
     inkscape:window-y="25"
     inkscape:window-maximized="1" />
  <metadata
     id="metadata7">
    <rdf:RDF>
      <cc:Work
         rdf:about="">
        <dc:format>image/svg+xml</dc:format>
        <dc:type
           rdf:resource="http://purl.org/dc/dcmitype/StillImage" />
        <dc:title />
      </cc:Work>
    </rdf:RDF>
  </metadata>
  <g
     inkscape:label="Calque 1"
     inkscape:groupmode="layer"
     id="layer1"
     transform="translate(0,-902.36218)">
    <path
       sodipodi:type="arc"
       style="fill:#000000;fill-opacity:1;stroke:none;stroke-width:0.50000000000000000;stroke-linecap:round;stroke-linejoin:round;stroke-miterlimit:4;stroke-opacity:1;stroke-dasharray:none;stroke-dashoffset:0"
       id="path3753"
       sodipodi:cx="26.302084"
       sodipodi:cy="76.822914"
       sodipodi:rx="2.0833333"
       sodipodi:ry="2.0833333"
       d="m 28.385417,76.822914 c 0,1.150593 -0.93274,2.083333 -2.083333,2.083333 -1.150593,0 -2.083333,-0.93274 -2.083333,-2.083333 0,-1.150593 0.93274,-2.083333 2.083333,-2.083333 1.150593,0 2.083333,0.93274 2.083333,2.083333 z"
       transform="translate(0,902.36218)" />
    <path
       transform="translate(8,870.36218)"
       sodipodi:type="arc"
       style="fill:#000000;fill-opacity:1;stroke:none"
       id="path3753-6"
       sodipodi:cx="26.302084"
       sodipodi:cy="76.822914"
       sodipodi:rx="2.0833333"
       sodipodi:ry="2.0833333"
       d="m 28.385417,76.822914 c 0,1.150593 -0.93274,2.083333 -2.083333,2.083333 -1.150593,0 -2.083333,-0.93274 -2.083333,-2.083333 0,-1.150593 0.93274,-2.083333 2.083333,-2.083333 1.150593,0 2.083333,0.93274 2.083333,2.083333 z" />
    <path
       transform="translate(50,858.36218)"
       sodipodi:type="arc"
       style="fill:#000000;fill-opacity:1;stroke:none"
       id="path3753-6-7"
       sodipodi:cx="26.302084"
       sodipodi:cy="76.822914"
       sodipodi:rx="2.0833333"
       sodipodi:ry="2.0833333"
       d="m 28.385417,76.822914 c 0,1.150593 -0.93274,2.083333 -2.083333,2.083333 -1.150593,0 -2.083333,-0.93274 -2.083333,-2.083333 0,-1.150593 0.93274,-2.083333 2.083333,-2.083333 1.150593,0 2.083333,0.93274 2.083333,2.083333 z" />
    <path
       transform="translate(64,892.36218)"
       sodipodi:type="arc"
       style="fill:#000000;fill-opacity:1;stroke:none"
       id="path3753-6-7-2"
       sodipodi:cx="26.302084"
       sodipodi:cy="76.822914"
       sodipodi:rx="2.0833333"
       sodipodi:ry="2.0833333"
       d="m 28.385417,76.822914 c 0,1.150593 -0.93274,2.083333 -2.083333,2.083333 -1.150593,0 -2.083333,-0.93274 -2.083333,-2.083333 0,-1.150593 0.93274,-2.083333 2.083333,-2.083333 1.150593,0 2.083333,0.93274 2.083333,2.083333 z" />
    <path
       transform="translate(108,912.36218)"
       sodipodi:type="arc"
       style="fill:#000000;fill-opacity:1;stroke:none"
       id="path3753-6-7-2-1"
       sodipodi:cx="26.302084"
       sodipodi:cy="76.822914"
       sodipodi:rx="2.0833333"
       sodipodi:ry="2.0833333"
       d="m 28.385417,76.822914 c 0,1.150593 -0.93274,2.083333 -2.083333,2.083333 -1.150593,0 -2.083333,-0.93274 -2.083333,-2.083333 0,-1.150593 0.93274,-2.083333 2.083333,-2.083333 1.150593,0 2.083333,0.93274 2.083333,2.083333 z" />
    <path
       transform="translate(108,952.36218)"
       sodipodi:type="arc"
       style="fill:#000000;fill-opacity:1;stroke:none"
       id="path3753-6-7-2-1-1"
       sodipodi:cx="26.302084"
       sodipodi:cy="76.822914"
       sodipodi:rx="2.0833333"
       sodipodi:ry="2.0833333"
       d="m 28.385417,76.822914 c 0,1.150593 -0.93274,2.083333 -2.083333,2.083333 -1.150593,0 -2.083333,-0.93274 -2.083333,-2.083333 0,-1.150593 0.93274,-2.083333 2.083333,-2.083333 1.150593,0 2.083333,0.93274 2.083333,2.083333 z" />
    <path
       transform="translate(38,948.36218)"
       sodipodi:type="arc"
       style="fill:#000000;fill-opacity:1;stroke:none"
       id="path3753-6-7-2-1-1-0"
       sodipodi:cx="26.302084"
       sodipodi:cy="76.822914"
       sodipodi:rx="2.0833333"
       sodipodi:ry="2.0833333"
       d="m 28.385417,76.822914 c 0,1.150593 -0.93274,2.083333 -2.083333,2.083333 -1.150593,0 -2.083333,-0.93274 -2.083333,-2.083333 0,-1.150593 0.93274,-2.083333 2.083333,-2.083333 1.150593,0 2.083333,0.93274 2.083333,2.083333 z" />
    <path
       transform="translate(30,916.36218)"
       sodipodi:type="arc"
       style="fill:#000000;fill-opacity:1;stroke:none"
       id="path3753-6-7-2-1-1-0-8"
       sodipodi:cx="26.302084"
       sodipodi:cy="76.822914"
       sodipodi:rx="2.0833333"
       sodipodi:ry="2.0833333"
       d="m 28.385417,76.822914 c 0,1.150593 -0.93274,2.083333 -2.083333,2.083333 -1.150593,0 -2.083333,-0.93274 -2.083333,-2.083333 0,-1.150593 0.93274,-2.083333 2.083333,-2.083333 1.150593,0 2.083333,0.93274 2.083333,2.083333 z" />
    <path
       style="fill:none;stroke:#000000;stroke-width:1px;stroke-linecap:butt;stroke-linejoin:miter;stroke-opacity:1"
       d="M 56.770833,91.145833 26.041667,76.822917 33.854167,45.052083 75.78125,32.8125 90.104167,66.927083 z"
       id="path2990"
       inkscape:connector-curvature="0"
       transform="translate(0,902.36218)" />
    <path
       style="fill:none;stroke:#000000;stroke-width:1px;stroke-linecap:butt;stroke-linejoin:miter;stroke-opacity:1"
       d="M 56.25,90.625 34.635417,45.052083"
       id="path2992"
       inkscape:connector-curvature="0"
       transform="translate(0,902.36218)" />
    <path
       style="fill:none;stroke:#000000;stroke-width:1px;stroke-linecap:butt;stroke-linejoin:miter;stroke-opacity:1"
       d="M 76.5625,32.552083 55.989583,90.885417 64.322917,122.65625 134.375,127.08333 134.11458,86.197917 90.625,67.447917 64.322917,122.65625"
       id="path2994"
       inkscape:connector-curvature="0"
       transform="translate(0,902.36218)" />
    <path
       transform="translate(78.906249,926.58093)"
       sodipodi:type="arc"
       style="fill:#ff8000;fill-opacity:1;stroke:none"
       id="path3753-3"
       sodipodi:cx="26.302084"
       sodipodi:cy="76.822914"
       sodipodi:rx="2.0833333"
       sodipodi:ry="2.0833333"
       d="m 28.385417,76.822914 a 2.0833333,2.0833333 0 1 1 -4.166666,0 2.0833333,2.0833333 0 1 1 4.166666,0 z" />
    <path
       transform="translate(44.531249,917.46635)"
       sodipodi:type="arc"
       style="fill:#ff8000;fill-opacity:1;stroke:none"
       id="path3753-3-2"
       sodipodi:cx="26.302084"
       sodipodi:cy="76.822914"
       sodipodi:rx="2.0833333"
       sodipodi:ry="2.0833333"
       d="m 28.385417,76.822914 a 2.0833333,2.0833333 0 1 1 -4.166666,0 2.0833333,2.0833333 0 1 1 4.166666,0 z" />
    <path
       transform="translate(48.437499,891.94552)"
       sodipodi:type="arc"
       style="fill:#ff8000;fill-opacity:1;stroke:none"
       id="path3753-3-8"
       sodipodi:cx="26.302084"
       sodipodi:cy="76.822914"
       sodipodi:rx="2.0833333"
       sodipodi:ry="2.0833333"
       d="m 28.385417,76.822914 a 2.0833333,2.0833333 0 1 1 -4.166666,0 2.0833333,2.0833333 0 1 1 4.166666,0 z" />
    <path
       transform="translate(28.385416,879.96635)"
       sodipodi:type="arc"
       style="fill:#ff8000;fill-opacity:1;stroke:none"
       id="path3753-3-88"
       sodipodi:cx="26.302084"
       sodipodi:cy="76.822914"
       sodipodi:rx="2.0833333"
       sodipodi:ry="2.0833333"
       d="m 28.385417,76.822914 a 2.0833333,2.0833333 0 1 1 -4.166666,0 2.0833333,2.0833333 0 1 1 4.166666,0 z" />
    <path
       transform="translate(10.416666,897.15385)"
       sodipodi:type="arc"
       style="fill:#ff8000;fill-opacity:1;stroke:none"
       id="path3753-3-5"
       sodipodi:cx="26.302084"
       sodipodi:cy="76.822914"
       sodipodi:rx="2.0833333"
       sodipodi:ry="2.0833333"
       d="m 28.385417,76.822914 a 2.0833333,2.0833333 0 1 1 -4.166666,0 2.0833333,2.0833333 0 1 1 4.166666,0 z" />
    <path
       style="fill:none;stroke:#ff8000;stroke-width:1px;stroke-linecap:butt;stroke-linejoin:miter;stroke-opacity:1"
       d="M 105.46875,101.5625 70.925404,91.803419 74.479167,66.40625 54.779571,54.303419 36.71875,71.354167 36.458333,109.89583 70.572917,92.1875"
       id="path3821"
       inkscape:connector-curvature="0"
       transform="translate(0,902.36218)"
       sodipodi:nodetypes="ccccccc" />
    <path
       transform="translate(10.156249,934.91427)"
       sodipodi:type="arc"
       style="fill:#ff8000;fill-opacity:1;stroke:none"
       id="path3753-3-88-4"
       sodipodi:cx="26.302084"
       sodipodi:cy="76.822914"
       sodipodi:rx="2.0833333"
       sodipodi:ry="2.0833333"
       d="m 28.385417,76.822914 a 2.0833333,2.0833333 0 1 1 -4.166666,0 2.0833333,2.0833333 0 1 1 4.166666,0 z" />
    <path
       style="fill:none;stroke:#ff8000;stroke-width:1px;stroke-linecap:butt;stroke-linejoin:miter;stroke-opacity:1"
       d="M 75.520833,66.40625 C 125.25555,-60.026818 -56.248795,46.234645 36.197917,109.89583"
       id="path3841"
       inkscape:connector-curvature="0"
       transform="translate(0,902.36218)"
       sodipodi:nodetypes="cc" />
    <path
       style="fill:none;stroke:#ff8000;stroke-width:1px;stroke-linecap:butt;stroke-linejoin:miter;stroke-opacity:1"
       d="M 54.6875,54.427083 C 58.718737,13.372136 -16.376996,32.325096 36.458333,109.63542"
       id="path3843"
       inkscape:connector-curvature="0"
       transform="translate(0,902.36218)"
       sodipodi:nodetypes="cc" />
    <path
       style="fill:none;stroke:#ff8000;stroke-width:1px;stroke-linecap:butt;stroke-linejoin:miter;stroke-opacity:1"
       d="m 36.197917,109.11458 c 18.350349,30.313 38.32241,49.18392 69.010413,-7.55208"
       id="path3845"
       inkscape:connector-curvature="0"
       transform="translate(0,902.36218)"
       sodipodi:nodetypes="cc" />
    <flowRoot
       xml:space="preserve"
       id="flowRoot3847"
       style="font-size:24px;font-style:normal;font-variant:normal;font-weight:normal;font-stretch:normal;line-height:125%;letter-spacing:0px;word-spacing:0px;fill:#000000;fill-opacity:1;stroke:none;font-family:Gentium Basic;-inkscape-font-specification:Gentium Basic"
       transform="translate(-5.125,901.32051)"><flowRegion
         id="flowRegion3849"><rect
           id="rect3851"
           width="60.9375"
           height="44.53125"
           x="98.958336"
           y="4.6875" /></flowRegion><flowPara
         id="flowPara3853"
         style="font-size:8px">G = (V, E)  planar</flowPara></flowRoot>    <flowRoot
       xml:space="preserve"
       id="flowRoot3847-2"
       style="font-size:24px;font-style:normal;font-variant:normal;font-weight:normal;font-stretch:normal;line-height:125%;letter-spacing:0px;word-spacing:0px;fill:#ff8000;fill-opacity:1;stroke:none;font-family:Gentium Basic;-inkscape-font-specification:Gentium Basic"
       transform="translate(-5.1250002,911.32051)"><flowRegion
         id="flowRegion3849-1"><rect
           id="rect3851-0"
           width="60.9375"
           height="44.53125"
           x="98.958336"
           y="4.6875"
           style="fill:#ff8000;fill-opacity:1" /></flowRegion><flowPara
         id="flowPara3853-8"
         style="font-size:10px;fill:#ff8000;fill-opacity:1">G*</flowPara></flowRoot>  </g>
</svg>
