<?xml version="1.0" encoding="UTF-8" standalone="no"?>
<!-- Created with Inkscape (http://www.inkscape.org/) -->

<svg
   xmlns:dc="http://purl.org/dc/elements/1.1/"
   xmlns:cc="http://creativecommons.org/ns#"
   xmlns:rdf="http://www.w3.org/1999/02/22-rdf-syntax-ns#"
   xmlns:svg="http://www.w3.org/2000/svg"
   xmlns="http://www.w3.org/2000/svg"
   xmlns:sodipodi="http://sodipodi.sourceforge.net/DTD/sodipodi-0.dtd"
   xmlns:inkscape="http://www.inkscape.org/namespaces/inkscape"
   width="150"
   height="150"
   id="svg4173"
   version="1.1"
   inkscape:version="0.48.4 r9939"
   sodipodi:docname="example_cycles.svg">
  <defs
     id="defs4175" />
  <sodipodi:namedview
     id="base"
     pagecolor="#ffffff"
     bordercolor="#666666"
     borderopacity="1.0"
     inkscape:pageopacity="0.0"
     inkscape:pageshadow="2"
     inkscape:zoom="3.84"
     inkscape:cx="-7.2506243"
     inkscape:cy="88.347298"
     inkscape:document-units="px"
     inkscape:current-layer="layer1"
     showgrid="false"
     inkscape:window-width="1280"
     inkscape:window-height="753"
     inkscape:window-x="0"
     inkscape:window-y="25"
     inkscape:window-maximized="1" />
  <metadata
     id="metadata4178">
    <rdf:RDF>
      <cc:Work
         rdf:about="">
        <dc:format>image/svg+xml</dc:format>
        <dc:type
           rdf:resource="http://purl.org/dc/dcmitype/StillImage" />
        <dc:title />
      </cc:Work>
    </rdf:RDF>
  </metadata>
  <g
     inkscape:label="Calque 1"
     inkscape:groupmode="layer"
     id="layer1"
     transform="translate(0,-902.36218)">
    <path
       transform="translate(38.485114,976.92617)"
       sodipodi:type="arc"
       style="fill:#000000;fill-opacity:1;stroke:none"
       id="path3753"
       sodipodi:cx="62.760418"
       sodipodi:cy="40.625"
       sodipodi:rx="1.3020834"
       sodipodi:ry="1.3020834"
       d="m 64.062501,40.625 c 0,0.719121 -0.582962,1.302083 -1.302083,1.302083 -0.719121,0 -1.302083,-0.582962 -1.302083,-1.302083 0,-0.719121 0.582962,-1.302083 1.302083,-1.302083 0.719121,0 1.302083,0.582962 1.302083,1.302083 z" />
    <path
       transform="translate(-33.285719,909.70742)"
       sodipodi:type="arc"
       style="fill:#000000;fill-opacity:1;stroke:none"
       id="path3753-0"
       sodipodi:cx="62.760418"
       sodipodi:cy="40.625"
       sodipodi:rx="1.3020834"
       sodipodi:ry="1.3020834"
       d="m 64.062501,40.625 c 0,0.719121 -0.582962,1.302083 -1.302083,1.302083 -0.719121,0 -1.302083,-0.582962 -1.302083,-1.302083 0,-0.719121 0.582962,-1.302083 1.302083,-1.302083 0.719121,0 1.302083,0.582962 1.302083,1.302083 z" />
    <path
       transform="translate(-47.285719,939.70742)"
       sodipodi:type="arc"
       style="fill:#000000;fill-opacity:1;stroke:none"
       id="path3753-4-0"
       sodipodi:cx="62.760418"
       sodipodi:cy="40.625"
       sodipodi:rx="1.3020834"
       sodipodi:ry="1.3020834"
       d="m 64.062501,40.625 c 0,0.719121 -0.582962,1.302083 -1.302083,1.302083 -0.719121,0 -1.302083,-0.582962 -1.302083,-1.302083 0,-0.719121 0.582962,-1.302083 1.302083,-1.302083 0.719121,0 1.302083,0.582962 1.302083,1.302083 z" />
    <path
       transform="translate(-5.2857193,913.70742)"
       sodipodi:type="arc"
       style="fill:#000000;fill-opacity:1;stroke:none"
       id="path3753-0-5"
       sodipodi:cx="62.760418"
       sodipodi:cy="40.625"
       sodipodi:rx="1.3020834"
       sodipodi:ry="1.3020834"
       d="m 64.062501,40.625 c 0,0.719121 -0.582962,1.302083 -1.302083,1.302083 -0.719121,0 -1.302083,-0.582962 -1.302083,-1.302083 0,-0.719121 0.582962,-1.302083 1.302083,-1.302083 0.719121,0 1.302083,0.582962 1.302083,1.302083 z" />
    <path
       style="fill:none;stroke:#000000;stroke-width:1px;stroke-linecap:round;stroke-linejoin:round;stroke-opacity:1"
       d="m 57.235117,954.0095 -28.124996,-3.64583 -13.80209,29.6875 10.983636,21.30063 22.916666,15.8854 52.083337,0.2604 34.63541,-36.19792 -55.98958,-1.30208 z"
       id="path3862"
       inkscape:connector-curvature="0"
       sodipodi:nodetypes="ccc" />
    <path
       style="fill:none;stroke:#ffcc00;stroke-width:1px;stroke-linecap:round;stroke-linejoin:round;stroke-opacity:1"
       d="M 14.971343,978.34402 27.71596,950.95424"
       id="path3911-2"
       inkscape:connector-curvature="0"
       sodipodi:nodetypes="cc" />
    <path
       style="fill:none;stroke:#ffcc00;stroke-width:1px;stroke-linecap:round;stroke-linejoin:round;stroke-opacity:1"
       d="m 31.194806,949.62056 25.059119,3.2789"
       id="path3911-2-2"
       inkscape:connector-curvature="0"
       sodipodi:nodetypes="cc" />
    <path
       style="fill:none;stroke:#000000;stroke-width:1px;stroke-linecap:butt;stroke-linejoin:miter;stroke-opacity:1"
       d="m 26.03125,1001.3518 37.239583,0 16.145834,-20.83337"
       id="path4708"
       inkscape:connector-curvature="0" />
    <path
       transform="translate(-36.208335,960.98718)"
       sodipodi:type="arc"
       style="fill:#000000;fill-opacity:1;stroke:none"
       id="path3753-4-0-5"
       sodipodi:cx="62.760418"
       sodipodi:cy="40.625"
       sodipodi:rx="1.3020834"
       sodipodi:ry="1.3020834"
       d="m 64.062501,40.625 c 0,0.719121 -0.582962,1.302083 -1.302083,1.302083 -0.719121,0 -1.302083,-0.582962 -1.302083,-1.302083 0,-0.719121 0.582962,-1.302083 1.302083,-1.302083 0.719121,0 1.302083,0.582962 1.302083,1.302083 z" />
    <path
       transform="translate(-13.291668,976.8726)"
       sodipodi:type="arc"
       style="fill:#000000;fill-opacity:1;stroke:none"
       id="path3753-4-0-3"
       sodipodi:cx="62.760418"
       sodipodi:cy="40.625"
       sodipodi:rx="1.3020834"
       sodipodi:ry="1.3020834"
       d="m 64.062501,40.625 c 0,0.719121 -0.582962,1.302083 -1.302083,1.302083 -0.719121,0 -1.302083,-0.582962 -1.302083,-1.302083 0,-0.719121 0.582962,-1.302083 1.302083,-1.302083 0.719121,0 1.302083,0.582962 1.302083,1.302083 z" />
    <path
       transform="translate(0.7708321,960.72676)"
       sodipodi:type="arc"
       style="fill:#000000;fill-opacity:1;stroke:none"
       id="path3753-4-0-7"
       sodipodi:cx="62.760418"
       sodipodi:cy="40.625"
       sodipodi:rx="1.3020834"
       sodipodi:ry="1.3020834"
       d="m 64.062501,40.625 c 0,0.719121 -0.582962,1.302083 -1.302083,1.302083 -0.719121,0 -1.302083,-0.582962 -1.302083,-1.302083 0,-0.719121 0.582962,-1.302083 1.302083,-1.302083 0.719121,0 1.302083,0.582962 1.302083,1.302083 z" />
    <path
       transform="translate(16.916665,939.3726)"
       sodipodi:type="arc"
       style="fill:#000000;fill-opacity:1;stroke:none"
       id="path3753-4-0-56"
       sodipodi:cx="62.760418"
       sodipodi:cy="40.625"
       sodipodi:rx="1.3020834"
       sodipodi:ry="1.3020834"
       d="m 64.062501,40.625 c 0,0.719121 -0.582962,1.302083 -1.302083,1.302083 -0.719121,0 -1.302083,-0.582962 -1.302083,-1.302083 0,-0.719121 0.582962,-1.302083 1.302083,-1.302083 0.719121,0 1.302083,0.582962 1.302083,1.302083 z" />
    <path
       transform="translate(73.166665,940.41426)"
       sodipodi:type="arc"
       style="fill:#000000;fill-opacity:1;stroke:none"
       id="path3753-4-0-1"
       sodipodi:cx="62.760418"
       sodipodi:cy="40.625"
       sodipodi:rx="1.3020834"
       sodipodi:ry="1.3020834"
       d="m 64.062501,40.625 c 0,0.719121 -0.582962,1.302083 -1.302083,1.302083 -0.719121,0 -1.302083,-0.582962 -1.302083,-1.302083 0,-0.719121 0.582962,-1.302083 1.302083,-1.302083 0.719121,0 1.302083,0.582962 1.302083,1.302083 z" />
    <path
       style="fill:none;stroke:#ffcc00;stroke-width:1px;stroke-linecap:round;stroke-linejoin:round;stroke-opacity:1"
       d="M 59.189697,954.80555 79.59291,978.19837"
       id="path3911-2-2-7"
       inkscape:connector-curvature="0"
       sodipodi:nodetypes="cc" />
    <path
       style="fill:none;stroke:#ffcc00;stroke-width:1px;stroke-linecap:round;stroke-linejoin:round;stroke-opacity:1"
       d="M 65.085853,1000.5942 79.638944,981.78237"
       id="path3911-2-2-6"
       inkscape:connector-curvature="0"
       sodipodi:nodetypes="cc" />
    <path
       style="fill:none;stroke:#ffcc00;stroke-width:1px;stroke-linecap:round;stroke-linejoin:round;stroke-opacity:1"
       d="m 29.043195,1002.279 32.947893,-0.032"
       id="path3911-2-2-9"
       inkscape:connector-curvature="0"
       sodipodi:nodetypes="cc" />
    <path
       style="fill:none;stroke:#ffcc00;stroke-width:1px;stroke-linecap:round;stroke-linejoin:round;stroke-opacity:1"
       d="M 24.829138,1000.5797 15.162124,982.04143"
       id="path3911-2-2-4"
       inkscape:connector-curvature="0"
       sodipodi:nodetypes="cc" />
    <flowRoot
       xml:space="preserve"
       id="flowRoot4795"
       style="font-size:24px;font-style:normal;font-variant:normal;font-weight:normal;font-stretch:normal;line-height:125%;letter-spacing:0px;word-spacing:0px;fill:#000000;fill-opacity:1;stroke:none;font-family:Gentium Basic;-inkscape-font-specification:Gentium Basic"
       transform="translate(-6,920.36218)"><flowRegion
         id="flowRegion4797"><rect
           id="rect4799"
           width="39.84375"
           height="30.989584"
           x="73.4375"
           y="19.53125" /></flowRegion><flowPara
         id="flowPara4801"
         style="font-size:12px;fill:#ffcc00;fill-opacity:1">C<flowSpan
   style="font-size:65.00091553%;baseline-shift:sub;fill:#ffcc00;fill-opacity:1"
   id="flowSpan4803">3</flowSpan></flowPara></flowRoot>    <flowRoot
       transform="translate(-39.123801,932.64898)"
       xml:space="preserve"
       id="flowRoot4795-2"
       style="font-size:24px;font-style:normal;font-variant:normal;font-weight:normal;font-stretch:normal;line-height:125%;letter-spacing:0px;word-spacing:0px;fill:#000000;fill-opacity:1;stroke:none;font-family:Gentium Basic;-inkscape-font-specification:Gentium Basic"><flowRegion
         id="flowRegion4797-9"><rect
           id="rect4799-2"
           width="39.84375"
           height="30.989584"
           x="73.4375"
           y="19.53125" /></flowRegion><flowPara
         id="flowPara4801-5"
         style="font-size:12px;fill:#000000;fill-opacity:1">C<flowSpan
   style="font-size:65.00091553%;baseline-shift:sub"
   id="flowSpan4858">1</flowSpan></flowPara></flowRoot>    <flowRoot
       transform="translate(34.834532,989.68023)"
       xml:space="preserve"
       id="flowRoot4795-25"
       style="font-size:24px;font-style:normal;font-variant:normal;font-weight:normal;font-stretch:normal;line-height:125%;letter-spacing:0px;word-spacing:0px;fill:#000000;fill-opacity:1;stroke:none;font-family:Gentium Basic;-inkscape-font-specification:Gentium Basic"><flowRegion
         id="flowRegion4797-7"><rect
           id="rect4799-6"
           width="39.84375"
           height="30.989584"
           x="73.4375"
           y="19.53125" /></flowRegion><flowPara
         id="flowPara4801-0"
         style="font-size:12px;fill:#000000;fill-opacity:1">C<flowSpan
   style="font-size:65.00091553%;baseline-shift:sub"
   id="flowSpan4860">2</flowSpan></flowPara></flowRoot>    <flowRoot
       xml:space="preserve"
       id="flowRoot4850"
       style="font-size:24px;font-style:normal;font-variant:normal;font-weight:normal;font-stretch:normal;line-height:125%;letter-spacing:0px;word-spacing:0px;fill:#000000;fill-opacity:1;stroke:none;font-family:Gentium Basic;-inkscape-font-specification:Gentium Basic"
       transform="translate(1.8125,926.09135)"><flowRegion
         id="flowRegion4852"><rect
           id="rect4854"
           width="21.354166"
           height="29.947916"
           x="56.770832"
           y="58.333332" /></flowRegion><flowPara
         id="flowPara4856"
         style="font-size:10px;fill:#009b00;fill-opacity:1">e</flowPara></flowRoot>  </g>
</svg>
