<?xml version="1.0" encoding="UTF-8" standalone="no"?>
<!-- Created with Inkscape (http://www.inkscape.org/) -->

<svg
   xmlns:dc="http://purl.org/dc/elements/1.1/"
   xmlns:cc="http://creativecommons.org/ns#"
   xmlns:rdf="http://www.w3.org/1999/02/22-rdf-syntax-ns#"
   xmlns:svg="http://www.w3.org/2000/svg"
   xmlns="http://www.w3.org/2000/svg"
   xmlns:sodipodi="http://sodipodi.sourceforge.net/DTD/sodipodi-0.dtd"
   xmlns:inkscape="http://www.inkscape.org/namespaces/inkscape"
   width="200"
   height="170"
   id="svg2"
   version="1.1"
   inkscape:version="0.48.4 r9939"
   sodipodi:docname="fundamental_cut.svg">
  <defs
     id="defs4" />
  <sodipodi:namedview
     id="base"
     pagecolor="#ffffff"
     bordercolor="#666666"
     borderopacity="1.0"
     inkscape:pageopacity="0.0"
     inkscape:pageshadow="2"
     inkscape:zoom="3.84"
     inkscape:cx="131.38654"
     inkscape:cy="95.007898"
     inkscape:document-units="px"
     inkscape:current-layer="layer1"
     showgrid="false"
     inkscape:window-width="1280"
     inkscape:window-height="753"
     inkscape:window-x="0"
     inkscape:window-y="25"
     inkscape:window-maximized="1" />
  <metadata
     id="metadata7">
    <rdf:RDF>
      <cc:Work
         rdf:about="">
        <dc:format>image/svg+xml</dc:format>
        <dc:type
           rdf:resource="http://purl.org/dc/dcmitype/StillImage" />
        <dc:title />
      </cc:Work>
    </rdf:RDF>
  </metadata>
  <g
     inkscape:label="Calque 1"
     inkscape:groupmode="layer"
     id="layer1"
     transform="translate(0,-882.36218)">
    <path
       transform="matrix(0.60861131,0,0,0.60861131,134.56791,914.11158)"
       sodipodi:type="arc"
       style="fill:#000000;fill-opacity:1;stroke:none"
       id="path3827-3-6-2-1-4-4"
       sodipodi:cx="44.270832"
       sodipodi:cy="117.70834"
       sodipodi:rx="2.6041667"
       sodipodi:ry="2.6041667"
       d="m 46.874999,117.70834 a 2.6041667,2.6041667 0 1 1 -5.208334,0 2.6041667,2.6041667 0 1 1 5.208334,0 z" />
    <path
       style="fill:none;stroke:#000000;stroke-width:0.60861129px;stroke-linecap:butt;stroke-linejoin:miter;stroke-opacity:1"
       d="M 40.740331,985.44683 63.563255,962.10312 39.602599,937.11786"
       id="path3973"
       inkscape:connector-curvature="0"
       sodipodi:nodetypes="ccc" />
    <path
       style="fill:none;stroke:#000000;stroke-width:0.60861129px;stroke-linecap:butt;stroke-linejoin:miter;stroke-opacity:1"
       d="m 63.619824,961.93342 49.076116,0.39063"
       id="path3975"
       inkscape:connector-curvature="0"
       sodipodi:nodetypes="cc" />
    <path
       style="fill:none;stroke:#000000;stroke-width:0.60861129px;stroke-linecap:butt;stroke-linejoin:miter;stroke-opacity:1"
       d="m 149.96996,937.20858 23.58711,-12.82669"
       id="path3977"
       inkscape:connector-curvature="0"
       sodipodi:nodetypes="cc" />
    <path
       style="fill:none;stroke:#000000;stroke-width:0.60861129;stroke-linecap:butt;stroke-linejoin:miter;stroke-miterlimit:4;stroke-opacity:1;stroke-dasharray:1.82583392, 0.60861131;stroke-dashoffset:0"
       d="M 113.32991,961.8427 148.8493,937.36121"
       id="path3979"
       inkscape:connector-curvature="0"
       sodipodi:nodetypes="cc" />
    <path
       style="fill:none;stroke:#000000;stroke-width:0.60861129px;stroke-linecap:butt;stroke-linejoin:miter;stroke-opacity:1"
       d="m 113.46012,962.66344 24.27764,11.48511 23.32668,11.39441"
       id="path3981"
       inkscape:connector-curvature="0"
       sodipodi:nodetypes="ccc" />
    <flowRoot
       xml:space="preserve"
       id="flowRoot3983"
       style="font-size:40px;font-style:normal;font-weight:normal;line-height:125%;letter-spacing:0px;word-spacing:0px;fill:#000000;fill-opacity:1;stroke:none;font-family:Sans"
       transform="matrix(0.60861131,0,0,0.60861131,19.819318,864.47172)"><flowRegion
         id="flowRegion3985"><rect
           id="rect3987"
           width="98.958336"
           height="76.041664"
           x="53.125"
           y="173.95833" /></flowRegion><flowPara
         id="flowPara3989"
         style="font-size:32px;font-style:normal;font-variant:normal;font-weight:normal;font-stretch:normal;font-family:Gentium Basic;-inkscape-font-specification:Gentium Basic">s</flowPara></flowRoot>    <flowRoot
       xml:space="preserve"
       id="flowRoot3983-3"
       style="font-size:40px;font-style:normal;font-weight:normal;line-height:125%;letter-spacing:0px;word-spacing:0px;fill:#000000;fill-opacity:1;stroke:none;font-family:Sans"
       transform="matrix(0.60861131,0,0,0.60861131,50.912382,862.22903)"><flowRegion
         id="flowRegion3985-1"><rect
           id="rect3987-7"
           width="98.958336"
           height="76.041664"
           x="53.125"
           y="173.95833" /></flowRegion><flowPara
         id="flowPara3989-4"
         style="font-size:32px;font-style:normal;font-variant:normal;font-weight:normal;font-stretch:normal;font-family:Gentium Basic;-inkscape-font-specification:Gentium Basic">c<flowSpan
   style="font-size:65.00091553%;baseline-shift:sub"
   id="flowSpan4018">e</flowSpan></flowPara></flowRoot>    <flowRoot
       xml:space="preserve"
       id="flowRoot3983-3-2"
       style="font-size:40px;font-style:normal;font-weight:normal;line-height:125%;letter-spacing:0px;word-spacing:0px;fill:#000000;fill-opacity:1;stroke:none;font-family:Sans"
       transform="matrix(0.60861131,0,0,0.60861131,86.359672,821.97621)"><flowRegion
         id="flowRegion3985-1-8"><rect
           id="rect3987-7-7"
           width="98.958336"
           height="76.041664"
           x="53.125"
           y="173.95833" /></flowRegion><flowPara
         id="flowPara3989-4-9"
         style="font-size:32px;font-style:normal;font-variant:normal;font-weight:normal;font-stretch:normal;font-family:Gentium Basic;-inkscape-font-specification:Gentium Basic">c<flowSpan
   style="font-size:65.00091553%;baseline-shift:sub"
   id="flowSpan4018-8" /></flowPara></flowRoot>    <flowRoot
       xml:space="preserve"
       id="flowRoot3983-3-2-0"
       style="font-size:40px;font-style:normal;font-weight:normal;line-height:125%;letter-spacing:0px;word-spacing:0px;fill:#000000;fill-opacity:1;stroke:none;font-family:Sans"
       transform="matrix(0.60861131,0,0,0.60861131,136.8502,791.22437)"><flowRegion
         id="flowRegion3985-1-8-5"><rect
           id="rect3987-7-7-4"
           width="98.958336"
           height="76.041664"
           x="53.125"
           y="173.95833" /></flowRegion><flowPara
         id="flowPara3989-4-9-6"
         style="font-size:32px;font-style:normal;font-variant:normal;font-weight:normal;font-stretch:normal;font-family:Gentium Basic;-inkscape-font-specification:Gentium Basic">t</flowPara></flowRoot>    <flowRoot
       xml:space="preserve"
       id="flowRoot4080"
       style="font-size:40px;font-style:normal;font-weight:normal;line-height:125%;letter-spacing:0px;word-spacing:0px;fill:#000000;fill-opacity:1;stroke:none;font-family:Sans"
       transform="matrix(0.60861131,0,0,0.60861131,3.6530797,890.59129)"><flowRegion
         id="flowRegion4082"><rect
           id="rect4084"
           width="267.70834"
           height="76.5625"
           x="20.3125"
           y="213.54167" /></flowRegion><flowPara
         id="flowPara4086"
         style="font-size:20px;font-style:normal;font-variant:normal;font-weight:normal;font-stretch:normal;text-align:center;text-anchor:middle;font-family:Gentium Basic;-inkscape-font-specification:Gentium Basic">elementary cut</flowPara></flowRoot>    <path
       style="fill:none;stroke:#e20000;stroke-width:0.60861129px;stroke-linecap:butt;stroke-linejoin:miter;stroke-opacity:1"
       d="m 33.13269,924.82568 c 25.041819,0.63396 151.20187,41.20805 145.49614,59.59322 -5.70573,18.3851 -0.95096,16.8002 -50.08364,19.653 -49.132688,2.8529 -98.582351,2.8529 -103.020141,-12.3624 C 20.31389,962.2564 15.372295,925.244 33.13269,924.82568 z"
       id="path4088"
       inkscape:connector-curvature="0"
       sodipodi:nodetypes="csscc" />
    <path
       transform="matrix(0.60861131,0,0,0.60861131,110.63553,902.47822)"
       sodipodi:type="arc"
       style="fill:#000000;fill-opacity:1;stroke:none"
       id="path3827-3-6-2-1-4-4-1"
       sodipodi:cx="44.270832"
       sodipodi:cy="117.70834"
       sodipodi:rx="2.6041667"
       sodipodi:ry="2.6041667"
       d="m 46.874999,117.70834 a 2.6041667,2.6041667 0 1 1 -5.208334,0 2.6041667,2.6041667 0 1 1 5.208334,0 z" />
    <path
       transform="matrix(0.60861131,0,0,0.60861131,85.9107,890.90827)"
       sodipodi:type="arc"
       style="fill:#000000;fill-opacity:1;stroke:none"
       id="path3827-3-6-2-1-4-4-9"
       sodipodi:cx="44.270832"
       sodipodi:cy="117.70834"
       sodipodi:rx="2.6041667"
       sodipodi:ry="2.6041667"
       d="m 46.874999,117.70834 a 2.6041667,2.6041667 0 1 1 -5.208334,0 2.6041667,2.6041667 0 1 1 5.208334,0 z" />
    <path
       transform="matrix(0.60861131,0,0,0.60861131,62.165108,890.49522)"
       sodipodi:type="arc"
       style="fill:#000000;fill-opacity:1;stroke:none"
       id="path3827-3-6-2-1-4-4-7"
       sodipodi:cx="44.270832"
       sodipodi:cy="117.70834"
       sodipodi:rx="2.6041667"
       sodipodi:ry="2.6041667"
       d="m 46.874999,117.70834 a 2.6041667,2.6041667 0 1 1 -5.208334,0 2.6041667,2.6041667 0 1 1 5.208334,0 z" />
    <path
       transform="matrix(0.60861131,0,0,0.60861131,36.619526,890.43279)"
       sodipodi:type="arc"
       style="fill:#000000;fill-opacity:1;stroke:none"
       id="path3827-3-6-2-1-4-4-18"
       sodipodi:cx="44.270832"
       sodipodi:cy="117.70834"
       sodipodi:rx="2.6041667"
       sodipodi:ry="2.6041667"
       d="m 46.874999,117.70834 a 2.6041667,2.6041667 0 1 1 -5.208334,0 2.6041667,2.6041667 0 1 1 5.208334,0 z" />
    <path
       transform="matrix(0.60861131,0,0,0.60861131,13.479617,914.04817)"
       sodipodi:type="arc"
       style="fill:#000000;fill-opacity:1;stroke:none"
       id="path3827-3-6-2-1-4-4-3"
       sodipodi:cx="44.270832"
       sodipodi:cy="117.70834"
       sodipodi:rx="2.6041667"
       sodipodi:ry="2.6041667"
       d="m 46.874999,117.70834 a 2.6041667,2.6041667 0 1 1 -5.208334,0 2.6041667,2.6041667 0 1 1 5.208334,0 z" />
    <path
       transform="matrix(0.60861131,0,0,0.60861131,12.37017,865.39097)"
       sodipodi:type="arc"
       style="fill:#000000;fill-opacity:1;stroke:none"
       id="path3827-3-6-2-1-4-4-85"
       sodipodi:cx="44.270832"
       sodipodi:cy="117.70834"
       sodipodi:rx="2.6041667"
       sodipodi:ry="2.6041667"
       d="m 46.874999,117.70834 a 2.6041667,2.6041667 0 1 1 -5.208334,0 2.6041667,2.6041667 0 1 1 5.208334,0 z" />
    <path
       transform="matrix(0.60861131,0,0,0.60861131,146.93032,852.71157)"
       sodipodi:type="arc"
       style="fill:#000000;fill-opacity:1;stroke:none"
       id="path3827-3-6-2-1-4-4-78"
       sodipodi:cx="44.270832"
       sodipodi:cy="117.70834"
       sodipodi:rx="2.6041667"
       sodipodi:ry="2.6041667"
       d="m 46.874999,117.70834 a 2.6041667,2.6041667 0 1 1 -5.208334,0 2.6041667,2.6041667 0 1 1 5.208334,0 z" />
    <path
       transform="matrix(0.60861131,0,0,0.60861131,122.36399,865.54946)"
       sodipodi:type="arc"
       style="fill:#000000;fill-opacity:1;stroke:none"
       id="path3827-3-6-2-1-4-4-79"
       sodipodi:cx="44.270832"
       sodipodi:cy="117.70834"
       sodipodi:rx="2.6041667"
       sodipodi:ry="2.6041667"
       d="m 46.874999,117.70834 a 2.6041667,2.6041667 0 1 1 -5.208334,0 2.6041667,2.6041667 0 1 1 5.208334,0 z" />
  </g>
</svg>
