<?xml version="1.0" encoding="UTF-8" standalone="no"?>
<!-- Created with Inkscape (http://www.inkscape.org/) -->

<svg
   xmlns:dc="http://purl.org/dc/elements/1.1/"
   xmlns:cc="http://creativecommons.org/ns#"
   xmlns:rdf="http://www.w3.org/1999/02/22-rdf-syntax-ns#"
   xmlns:svg="http://www.w3.org/2000/svg"
   xmlns="http://www.w3.org/2000/svg"
   xmlns:sodipodi="http://sodipodi.sourceforge.net/DTD/sodipodi-0.dtd"
   xmlns:inkscape="http://www.inkscape.org/namespaces/inkscape"
   width="150"
   height="150"
   id="svg2"
   version="1.1"
   inkscape:version="0.48.4 r9939"
   sodipodi:docname="Nouveau document 1">
  <defs
     id="defs4">
    <marker
       inkscape:stockid="Arrow1Mend"
       orient="auto"
       refY="0.0"
       refX="0.0"
       id="Arrow1Mend"
       style="overflow:visible;">
      <path
         id="path3770"
         d="M 0.0,0.0 L 5.0,-5.0 L -12.5,0.0 L 5.0,5.0 L 0.0,0.0 z "
         style="fill-rule:evenodd;stroke:#000000;stroke-width:1.0pt;"
         transform="scale(0.4) rotate(180) translate(10,0)" />
    </marker>
  </defs>
  <sodipodi:namedview
     id="base"
     pagecolor="#ffffff"
     bordercolor="#666666"
     borderopacity="1.0"
     inkscape:pageopacity="0.0"
     inkscape:pageshadow="2"
     inkscape:zoom="5.5066667"
     inkscape:cx="72.095302"
     inkscape:cy="78.209805"
     inkscape:document-units="px"
     inkscape:current-layer="layer1"
     showgrid="false"
     inkscape:window-width="1680"
     inkscape:window-height="1003"
     inkscape:window-x="0"
     inkscape:window-y="25"
     inkscape:window-maximized="1" />
  <metadata
     id="metadata7">
    <rdf:RDF>
      <cc:Work
         rdf:about="">
        <dc:format>image/svg+xml</dc:format>
        <dc:type
           rdf:resource="http://purl.org/dc/dcmitype/StillImage" />
        <dc:title></dc:title>
      </cc:Work>
    </rdf:RDF>
  </metadata>
  <g
     inkscape:label="Calque 1"
     inkscape:groupmode="layer"
     id="layer1"
     transform="translate(0,-902.36218)">
    <path
       style="fill:none;stroke:#000000;stroke-width:1px;stroke-linecap:butt;stroke-linejoin:miter;stroke-opacity:1;marker-end:url(#Arrow1Mend)"
       d="m 23.928571,141.96429 0,-137.5000046"
       id="path2985"
       inkscape:connector-curvature="0"
       transform="translate(0,902.36218)" />
    <path
       style="fill:none;stroke:#000000;stroke-width:1px;stroke-linecap:butt;stroke-linejoin:miter;stroke-opacity:1;marker-end:url(#Arrow1Mend)"
       d="m 9.4642857,126.42857 134.1071443,0"
       id="path2987"
       inkscape:connector-curvature="0"
       transform="translate(0,902.36218)" />
    <path
       sodipodi:type="arc"
       style="fill:none;stroke:#000000;stroke-width:1;stroke-linecap:round;stroke-linejoin:round;stroke-miterlimit:4;stroke-opacity:1;stroke-dasharray:none;stroke-dashoffset:0"
       id="path4201"
       sodipodi:cx="35.048428"
       sodipodi:cy="115.49637"
       sodipodi:rx="1.2711865"
       sodipodi:ry="1.2711865"
       d="m 36.319614,115.49637 a 1.2711865,1.2711865 0 1 1 -2.542373,0 1.2711865,1.2711865 0 1 1 2.542373,0 z"
       transform="translate(-1.09201,903.27018)" />
    <path
       sodipodi:type="arc"
       style="fill:none;stroke:#000000;stroke-width:1;stroke-linecap:round;stroke-linejoin:round;stroke-miterlimit:4;stroke-opacity:1;stroke-dasharray:none;stroke-dashoffset:0"
       id="path4201-5"
       sodipodi:cx="35.048428"
       sodipodi:cy="115.49637"
       sodipodi:rx="1.2711865"
       sodipodi:ry="1.2711865"
       d="m 36.319614,115.49637 a 1.2711865,1.2711865 0 1 1 -2.542373,0 1.2711865,1.2711865 0 1 1 2.542373,0 z"
       transform="translate(8.9079899,903.27018)" />
    <path
       sodipodi:type="arc"
       style="fill:none;stroke:#000000;stroke-width:1;stroke-linecap:round;stroke-linejoin:round;stroke-miterlimit:4;stroke-opacity:1;stroke-dasharray:none;stroke-dashoffset:0"
       id="path4201-8"
       sodipodi:cx="35.048428"
       sodipodi:cy="115.49637"
       sodipodi:rx="1.2711865"
       sodipodi:ry="1.2711865"
       d="m 36.319614,115.49637 a 1.2711865,1.2711865 0 1 1 -2.542373,0 1.2711865,1.2711865 0 1 1 2.542373,0 z"
       transform="translate(-1.0920101,893.27018)" />
    <path
       sodipodi:type="arc"
       style="fill:none;stroke:#000000;stroke-width:1;stroke-linecap:round;stroke-linejoin:round;stroke-miterlimit:4;stroke-opacity:1;stroke-dasharray:none;stroke-dashoffset:0"
       id="path4201-5-0"
       sodipodi:cx="35.048428"
       sodipodi:cy="115.49637"
       sodipodi:rx="1.2711865"
       sodipodi:ry="1.2711865"
       d="m 36.319614,115.49637 a 1.2711865,1.2711865 0 1 1 -2.542373,0 1.2711865,1.2711865 0 1 1 2.542373,0 z"
       transform="translate(8.9079899,893.27018)" />
    <path
       sodipodi:type="arc"
       style="fill:none;stroke:#000000;stroke-width:1;stroke-linecap:round;stroke-linejoin:round;stroke-miterlimit:4;stroke-opacity:1;stroke-dasharray:none;stroke-dashoffset:0"
       id="path4201-6"
       sodipodi:cx="35.048428"
       sodipodi:cy="115.49637"
       sodipodi:rx="1.2711865"
       sodipodi:ry="1.2711865"
       d="m 36.319614,115.49637 a 1.2711865,1.2711865 0 1 1 -2.542373,0 1.2711865,1.2711865 0 1 1 2.542373,0 z"
       transform="translate(18.90799,903.27018)" />
    <path
       sodipodi:type="arc"
       style="fill:none;stroke:#000000;stroke-width:1;stroke-linecap:round;stroke-linejoin:round;stroke-miterlimit:4;stroke-opacity:1;stroke-dasharray:none;stroke-dashoffset:0"
       id="path4201-5-9"
       sodipodi:cx="35.048428"
       sodipodi:cy="115.49637"
       sodipodi:rx="1.2711865"
       sodipodi:ry="1.2711865"
       d="m 36.319614,115.49637 a 1.2711865,1.2711865 0 1 1 -2.542373,0 1.2711865,1.2711865 0 1 1 2.542373,0 z"
       transform="translate(28.90799,903.27018)" />
    <path
       sodipodi:type="arc"
       style="fill:none;stroke:#000000;stroke-width:1;stroke-linecap:round;stroke-linejoin:round;stroke-miterlimit:4;stroke-opacity:1;stroke-dasharray:none;stroke-dashoffset:0"
       id="path4201-8-7"
       sodipodi:cx="35.048428"
       sodipodi:cy="115.49637"
       sodipodi:rx="1.2711865"
       sodipodi:ry="1.2711865"
       d="m 36.319614,115.49637 a 1.2711865,1.2711865 0 1 1 -2.542373,0 1.2711865,1.2711865 0 1 1 2.542373,0 z"
       transform="translate(18.90799,893.27018)" />
    <path
       sodipodi:type="arc"
       style="fill:none;stroke:#000000;stroke-width:1;stroke-linecap:round;stroke-linejoin:round;stroke-miterlimit:4;stroke-opacity:1;stroke-dasharray:none;stroke-dashoffset:0"
       id="path4201-5-0-3"
       sodipodi:cx="35.048428"
       sodipodi:cy="115.49637"
       sodipodi:rx="1.2711865"
       sodipodi:ry="1.2711865"
       d="m 36.319614,115.49637 a 1.2711865,1.2711865 0 1 1 -2.542373,0 1.2711865,1.2711865 0 1 1 2.542373,0 z"
       transform="translate(28.90799,893.27018)" />
    <path
       sodipodi:type="arc"
       style="fill:none;stroke:#000000;stroke-width:1;stroke-linecap:round;stroke-linejoin:round;stroke-miterlimit:4;stroke-opacity:1;stroke-dasharray:none;stroke-dashoffset:0"
       id="path4201-7"
       sodipodi:cx="35.048428"
       sodipodi:cy="115.49637"
       sodipodi:rx="1.2711865"
       sodipodi:ry="1.2711865"
       d="m 36.319614,115.49637 a 1.2711865,1.2711865 0 1 1 -2.542373,0 1.2711865,1.2711865 0 1 1 2.542373,0 z"
       transform="translate(-1.0920101,883.27018)" />
    <path
       sodipodi:type="arc"
       style="fill:none;stroke:#000000;stroke-width:1;stroke-linecap:round;stroke-linejoin:round;stroke-miterlimit:4;stroke-opacity:1;stroke-dasharray:none;stroke-dashoffset:0"
       id="path4201-5-2"
       sodipodi:cx="35.048428"
       sodipodi:cy="115.49637"
       sodipodi:rx="1.2711865"
       sodipodi:ry="1.2711865"
       d="m 36.319614,115.49637 a 1.2711865,1.2711865 0 1 1 -2.542373,0 1.2711865,1.2711865 0 1 1 2.542373,0 z"
       transform="translate(8.9079899,883.27018)" />
    <path
       sodipodi:type="arc"
       style="fill:none;stroke:#000000;stroke-width:1;stroke-linecap:round;stroke-linejoin:round;stroke-miterlimit:4;stroke-opacity:1;stroke-dasharray:none;stroke-dashoffset:0"
       id="path4201-8-1"
       sodipodi:cx="35.048428"
       sodipodi:cy="115.49637"
       sodipodi:rx="1.2711865"
       sodipodi:ry="1.2711865"
       d="m 36.319614,115.49637 a 1.2711865,1.2711865 0 1 1 -2.542373,0 1.2711865,1.2711865 0 1 1 2.542373,0 z"
       transform="translate(-1.0920101,873.27018)" />
    <path
       sodipodi:type="arc"
       style="fill:none;stroke:#000000;stroke-width:1;stroke-linecap:round;stroke-linejoin:round;stroke-miterlimit:4;stroke-opacity:1;stroke-dasharray:none;stroke-dashoffset:0"
       id="path4201-5-0-4"
       sodipodi:cx="35.048428"
       sodipodi:cy="115.49637"
       sodipodi:rx="1.2711865"
       sodipodi:ry="1.2711865"
       d="m 36.319614,115.49637 a 1.2711865,1.2711865 0 1 1 -2.542373,0 1.2711865,1.2711865 0 1 1 2.542373,0 z"
       transform="translate(8.9079899,873.27018)" />
    <path
       sodipodi:type="arc"
       style="fill:none;stroke:#000000;stroke-width:1;stroke-linecap:round;stroke-linejoin:round;stroke-miterlimit:4;stroke-opacity:1;stroke-dasharray:none;stroke-dashoffset:0"
       id="path4201-6-5"
       sodipodi:cx="35.048428"
       sodipodi:cy="115.49637"
       sodipodi:rx="1.2711865"
       sodipodi:ry="1.2711865"
       d="m 36.319614,115.49637 a 1.2711865,1.2711865 0 1 1 -2.542373,0 1.2711865,1.2711865 0 1 1 2.542373,0 z"
       transform="translate(18.90799,883.27018)" />
    <path
       sodipodi:type="arc"
       style="fill:none;stroke:#000000;stroke-width:1;stroke-linecap:round;stroke-linejoin:round;stroke-miterlimit:4;stroke-opacity:1;stroke-dasharray:none;stroke-dashoffset:0"
       id="path4201-5-9-9"
       sodipodi:cx="35.048428"
       sodipodi:cy="115.49637"
       sodipodi:rx="1.2711865"
       sodipodi:ry="1.2711865"
       d="m 36.319614,115.49637 a 1.2711865,1.2711865 0 1 1 -2.542373,0 1.2711865,1.2711865 0 1 1 2.542373,0 z"
       transform="translate(28.90799,883.27018)" />
    <path
       sodipodi:type="arc"
       style="fill:none;stroke:#000000;stroke-width:1;stroke-linecap:round;stroke-linejoin:round;stroke-miterlimit:4;stroke-opacity:1;stroke-dasharray:none;stroke-dashoffset:0"
       id="path4201-8-7-3"
       sodipodi:cx="35.048428"
       sodipodi:cy="115.49637"
       sodipodi:rx="1.2711865"
       sodipodi:ry="1.2711865"
       d="m 36.319614,115.49637 a 1.2711865,1.2711865 0 1 1 -2.542373,0 1.2711865,1.2711865 0 1 1 2.542373,0 z"
       transform="translate(18.90799,873.27018)" />
    <path
       sodipodi:type="arc"
       style="fill:none;stroke:#000000;stroke-width:1;stroke-linecap:round;stroke-linejoin:round;stroke-miterlimit:4;stroke-opacity:1;stroke-dasharray:none;stroke-dashoffset:0"
       id="path4201-5-0-3-6"
       sodipodi:cx="35.048428"
       sodipodi:cy="115.49637"
       sodipodi:rx="1.2711865"
       sodipodi:ry="1.2711865"
       d="m 36.319614,115.49637 a 1.2711865,1.2711865 0 1 1 -2.542373,0 1.2711865,1.2711865 0 1 1 2.542373,0 z"
       transform="translate(28.90799,873.27018)" />
    <path
       sodipodi:type="arc"
       style="fill:none;stroke:#000000;stroke-width:1;stroke-linecap:round;stroke-linejoin:round;stroke-miterlimit:4;stroke-opacity:1;stroke-dasharray:none;stroke-dashoffset:0"
       id="path4201-76"
       sodipodi:cx="35.048428"
       sodipodi:cy="115.49637"
       sodipodi:rx="1.2711865"
       sodipodi:ry="1.2711865"
       d="m 36.319614,115.49637 a 1.2711865,1.2711865 0 1 1 -2.542373,0 1.2711865,1.2711865 0 1 1 2.542373,0 z"
       transform="translate(38.90799,903.27018)" />
    <path
       sodipodi:type="arc"
       style="fill:none;stroke:#000000;stroke-width:1;stroke-linecap:round;stroke-linejoin:round;stroke-miterlimit:4;stroke-opacity:1;stroke-dasharray:none;stroke-dashoffset:0"
       id="path4201-5-6"
       sodipodi:cx="35.048428"
       sodipodi:cy="115.49637"
       sodipodi:rx="1.2711865"
       sodipodi:ry="1.2711865"
       d="m 36.319614,115.49637 a 1.2711865,1.2711865 0 1 1 -2.542373,0 1.2711865,1.2711865 0 1 1 2.542373,0 z"
       transform="translate(48.90799,903.27018)" />
    <path
       sodipodi:type="arc"
       style="fill:none;stroke:#000000;stroke-width:1;stroke-linecap:round;stroke-linejoin:round;stroke-miterlimit:4;stroke-opacity:1;stroke-dasharray:none;stroke-dashoffset:0"
       id="path4201-8-71"
       sodipodi:cx="35.048428"
       sodipodi:cy="115.49637"
       sodipodi:rx="1.2711865"
       sodipodi:ry="1.2711865"
       d="m 36.319614,115.49637 a 1.2711865,1.2711865 0 1 1 -2.542373,0 1.2711865,1.2711865 0 1 1 2.542373,0 z"
       transform="translate(38.90799,893.27018)" />
    <path
       sodipodi:type="arc"
       style="fill:none;stroke:#000000;stroke-width:1;stroke-linecap:round;stroke-linejoin:round;stroke-miterlimit:4;stroke-opacity:1;stroke-dasharray:none;stroke-dashoffset:0"
       id="path4201-5-0-5"
       sodipodi:cx="35.048428"
       sodipodi:cy="115.49637"
       sodipodi:rx="1.2711865"
       sodipodi:ry="1.2711865"
       d="m 36.319614,115.49637 a 1.2711865,1.2711865 0 1 1 -2.542373,0 1.2711865,1.2711865 0 1 1 2.542373,0 z"
       transform="translate(48.90799,893.27018)" />
    <path
       sodipodi:type="arc"
       style="fill:none;stroke:#000000;stroke-width:1;stroke-linecap:round;stroke-linejoin:round;stroke-miterlimit:4;stroke-opacity:1;stroke-dasharray:none;stroke-dashoffset:0"
       id="path4201-6-6"
       sodipodi:cx="35.048428"
       sodipodi:cy="115.49637"
       sodipodi:rx="1.2711865"
       sodipodi:ry="1.2711865"
       d="m 36.319614,115.49637 a 1.2711865,1.2711865 0 1 1 -2.542373,0 1.2711865,1.2711865 0 1 1 2.542373,0 z"
       transform="translate(58.90799,903.27018)" />
    <path
       sodipodi:type="arc"
       style="fill:none;stroke:#000000;stroke-width:1;stroke-linecap:round;stroke-linejoin:round;stroke-miterlimit:4;stroke-opacity:1;stroke-dasharray:none;stroke-dashoffset:0"
       id="path4201-5-9-1"
       sodipodi:cx="35.048428"
       sodipodi:cy="115.49637"
       sodipodi:rx="1.2711865"
       sodipodi:ry="1.2711865"
       d="m 36.319614,115.49637 a 1.2711865,1.2711865 0 1 1 -2.542373,0 1.2711865,1.2711865 0 1 1 2.542373,0 z"
       transform="translate(68.90799,903.27018)" />
    <path
       sodipodi:type="arc"
       style="fill:none;stroke:#000000;stroke-width:1;stroke-linecap:round;stroke-linejoin:round;stroke-miterlimit:4;stroke-opacity:1;stroke-dasharray:none;stroke-dashoffset:0"
       id="path4201-8-7-5"
       sodipodi:cx="35.048428"
       sodipodi:cy="115.49637"
       sodipodi:rx="1.2711865"
       sodipodi:ry="1.2711865"
       d="m 36.319614,115.49637 a 1.2711865,1.2711865 0 1 1 -2.542373,0 1.2711865,1.2711865 0 1 1 2.542373,0 z"
       transform="translate(58.90799,893.27018)" />
    <path
       sodipodi:type="arc"
       style="fill:none;stroke:#000000;stroke-width:1;stroke-linecap:round;stroke-linejoin:round;stroke-miterlimit:4;stroke-opacity:1;stroke-dasharray:none;stroke-dashoffset:0"
       id="path4201-5-0-3-4"
       sodipodi:cx="35.048428"
       sodipodi:cy="115.49637"
       sodipodi:rx="1.2711865"
       sodipodi:ry="1.2711865"
       d="m 36.319614,115.49637 a 1.2711865,1.2711865 0 1 1 -2.542373,0 1.2711865,1.2711865 0 1 1 2.542373,0 z"
       transform="translate(68.90799,893.27018)" />
    <path
       sodipodi:type="arc"
       style="fill:none;stroke:#000000;stroke-width:1;stroke-linecap:round;stroke-linejoin:round;stroke-miterlimit:4;stroke-opacity:1;stroke-dasharray:none;stroke-dashoffset:0"
       id="path4201-7-1"
       sodipodi:cx="35.048428"
       sodipodi:cy="115.49637"
       sodipodi:rx="1.2711865"
       sodipodi:ry="1.2711865"
       d="m 36.319614,115.49637 a 1.2711865,1.2711865 0 1 1 -2.542373,0 1.2711865,1.2711865 0 1 1 2.542373,0 z"
       transform="translate(38.90799,883.27018)" />
    <path
       sodipodi:type="arc"
       style="fill:none;stroke:#000000;stroke-width:1;stroke-linecap:round;stroke-linejoin:round;stroke-miterlimit:4;stroke-opacity:1;stroke-dasharray:none;stroke-dashoffset:0"
       id="path4201-5-2-3"
       sodipodi:cx="35.048428"
       sodipodi:cy="115.49637"
       sodipodi:rx="1.2711865"
       sodipodi:ry="1.2711865"
       d="m 36.319614,115.49637 a 1.2711865,1.2711865 0 1 1 -2.542373,0 1.2711865,1.2711865 0 1 1 2.542373,0 z"
       transform="translate(48.90799,883.27018)" />
    <path
       sodipodi:type="arc"
       style="fill:none;stroke:#000000;stroke-width:1;stroke-linecap:round;stroke-linejoin:round;stroke-miterlimit:4;stroke-opacity:1;stroke-dasharray:none;stroke-dashoffset:0"
       id="path4201-8-1-3"
       sodipodi:cx="35.048428"
       sodipodi:cy="115.49637"
       sodipodi:rx="1.2711865"
       sodipodi:ry="1.2711865"
       d="m 36.319614,115.49637 a 1.2711865,1.2711865 0 1 1 -2.542373,0 1.2711865,1.2711865 0 1 1 2.542373,0 z"
       transform="translate(38.90799,873.27018)" />
    <path
       sodipodi:type="arc"
       style="fill:none;stroke:#000000;stroke-width:1;stroke-linecap:round;stroke-linejoin:round;stroke-miterlimit:4;stroke-opacity:1;stroke-dasharray:none;stroke-dashoffset:0"
       id="path4201-5-0-4-8"
       sodipodi:cx="35.048428"
       sodipodi:cy="115.49637"
       sodipodi:rx="1.2711865"
       sodipodi:ry="1.2711865"
       d="m 36.319614,115.49637 a 1.2711865,1.2711865 0 1 1 -2.542373,0 1.2711865,1.2711865 0 1 1 2.542373,0 z"
       transform="translate(48.90799,873.27018)" />
    <path
       sodipodi:type="arc"
       style="fill:none;stroke:#000000;stroke-width:1;stroke-linecap:round;stroke-linejoin:round;stroke-miterlimit:4;stroke-opacity:1;stroke-dasharray:none;stroke-dashoffset:0"
       id="path4201-6-5-2"
       sodipodi:cx="35.048428"
       sodipodi:cy="115.49637"
       sodipodi:rx="1.2711865"
       sodipodi:ry="1.2711865"
       d="m 36.319614,115.49637 a 1.2711865,1.2711865 0 1 1 -2.542373,0 1.2711865,1.2711865 0 1 1 2.542373,0 z"
       transform="translate(58.90799,883.27018)" />
    <path
       sodipodi:type="arc"
       style="fill:none;stroke:#000000;stroke-width:1;stroke-linecap:round;stroke-linejoin:round;stroke-miterlimit:4;stroke-opacity:1;stroke-dasharray:none;stroke-dashoffset:0"
       id="path4201-5-9-9-2"
       sodipodi:cx="35.048428"
       sodipodi:cy="115.49637"
       sodipodi:rx="1.2711865"
       sodipodi:ry="1.2711865"
       d="m 36.319614,115.49637 a 1.2711865,1.2711865 0 1 1 -2.542373,0 1.2711865,1.2711865 0 1 1 2.542373,0 z"
       transform="translate(68.90799,883.27018)" />
    <path
       sodipodi:type="arc"
       style="fill:none;stroke:#000000;stroke-width:1;stroke-linecap:round;stroke-linejoin:round;stroke-miterlimit:4;stroke-opacity:1;stroke-dasharray:none;stroke-dashoffset:0"
       id="path4201-8-7-3-3"
       sodipodi:cx="35.048428"
       sodipodi:cy="115.49637"
       sodipodi:rx="1.2711865"
       sodipodi:ry="1.2711865"
       d="m 36.319614,115.49637 a 1.2711865,1.2711865 0 1 1 -2.542373,0 1.2711865,1.2711865 0 1 1 2.542373,0 z"
       transform="translate(58.90799,873.27018)" />
    <path
       sodipodi:type="arc"
       style="fill:none;stroke:#000000;stroke-width:1;stroke-linecap:round;stroke-linejoin:round;stroke-miterlimit:4;stroke-opacity:1;stroke-dasharray:none;stroke-dashoffset:0"
       id="path4201-5-0-3-6-3"
       sodipodi:cx="35.048428"
       sodipodi:cy="115.49637"
       sodipodi:rx="1.2711865"
       sodipodi:ry="1.2711865"
       d="m 36.319614,115.49637 a 1.2711865,1.2711865 0 1 1 -2.542373,0 1.2711865,1.2711865 0 1 1 2.542373,0 z"
       transform="translate(68.90799,873.27018)" />
    <path
       sodipodi:type="arc"
       style="fill:none;stroke:#000000;stroke-width:1;stroke-linecap:round;stroke-linejoin:round;stroke-miterlimit:4;stroke-opacity:1;stroke-dasharray:none;stroke-dashoffset:0"
       id="path4201-4"
       sodipodi:cx="35.048428"
       sodipodi:cy="115.49637"
       sodipodi:rx="1.2711865"
       sodipodi:ry="1.2711865"
       d="m 36.319614,115.49637 a 1.2711865,1.2711865 0 1 1 -2.542373,0 1.2711865,1.2711865 0 1 1 2.542373,0 z"
       transform="translate(-1.0920101,863.27018)" />
    <path
       sodipodi:type="arc"
       style="fill:none;stroke:#000000;stroke-width:1;stroke-linecap:round;stroke-linejoin:round;stroke-miterlimit:4;stroke-opacity:1;stroke-dasharray:none;stroke-dashoffset:0"
       id="path4201-5-1"
       sodipodi:cx="35.048428"
       sodipodi:cy="115.49637"
       sodipodi:rx="1.2711865"
       sodipodi:ry="1.2711865"
       d="m 36.319614,115.49637 a 1.2711865,1.2711865 0 1 1 -2.542373,0 1.2711865,1.2711865 0 1 1 2.542373,0 z"
       transform="translate(8.9079899,863.27018)" />
    <path
       sodipodi:type="arc"
       style="fill:none;stroke:#000000;stroke-width:1;stroke-linecap:round;stroke-linejoin:round;stroke-miterlimit:4;stroke-opacity:1;stroke-dasharray:none;stroke-dashoffset:0"
       id="path4201-8-2"
       sodipodi:cx="35.048428"
       sodipodi:cy="115.49637"
       sodipodi:rx="1.2711865"
       sodipodi:ry="1.2711865"
       d="m 36.319614,115.49637 a 1.2711865,1.2711865 0 1 1 -2.542373,0 1.2711865,1.2711865 0 1 1 2.542373,0 z"
       transform="translate(-1.0920101,853.27018)" />
    <path
       sodipodi:type="arc"
       style="fill:none;stroke:#000000;stroke-width:1;stroke-linecap:round;stroke-linejoin:round;stroke-miterlimit:4;stroke-opacity:1;stroke-dasharray:none;stroke-dashoffset:0"
       id="path4201-5-0-2"
       sodipodi:cx="35.048428"
       sodipodi:cy="115.49637"
       sodipodi:rx="1.2711865"
       sodipodi:ry="1.2711865"
       d="m 36.319614,115.49637 a 1.2711865,1.2711865 0 1 1 -2.542373,0 1.2711865,1.2711865 0 1 1 2.542373,0 z"
       transform="translate(8.9079899,853.27018)" />
    <path
       sodipodi:type="arc"
       style="fill:none;stroke:#000000;stroke-width:1;stroke-linecap:round;stroke-linejoin:round;stroke-miterlimit:4;stroke-opacity:1;stroke-dasharray:none;stroke-dashoffset:0"
       id="path4201-6-4"
       sodipodi:cx="35.048428"
       sodipodi:cy="115.49637"
       sodipodi:rx="1.2711865"
       sodipodi:ry="1.2711865"
       d="m 36.319614,115.49637 a 1.2711865,1.2711865 0 1 1 -2.542373,0 1.2711865,1.2711865 0 1 1 2.542373,0 z"
       transform="translate(18.90799,863.27018)" />
    <path
       sodipodi:type="arc"
       style="fill:none;stroke:#000000;stroke-width:1;stroke-linecap:round;stroke-linejoin:round;stroke-miterlimit:4;stroke-opacity:1;stroke-dasharray:none;stroke-dashoffset:0"
       id="path4201-5-9-14"
       sodipodi:cx="35.048428"
       sodipodi:cy="115.49637"
       sodipodi:rx="1.2711865"
       sodipodi:ry="1.2711865"
       d="m 36.319614,115.49637 a 1.2711865,1.2711865 0 1 1 -2.542373,0 1.2711865,1.2711865 0 1 1 2.542373,0 z"
       transform="translate(28.90799,863.27018)" />
    <path
       sodipodi:type="arc"
       style="fill:none;stroke:#000000;stroke-width:1;stroke-linecap:round;stroke-linejoin:round;stroke-miterlimit:4;stroke-opacity:1;stroke-dasharray:none;stroke-dashoffset:0"
       id="path4201-8-7-6"
       sodipodi:cx="35.048428"
       sodipodi:cy="115.49637"
       sodipodi:rx="1.2711865"
       sodipodi:ry="1.2711865"
       d="m 36.319614,115.49637 a 1.2711865,1.2711865 0 1 1 -2.542373,0 1.2711865,1.2711865 0 1 1 2.542373,0 z"
       transform="translate(18.90799,853.27018)" />
    <path
       sodipodi:type="arc"
       style="fill:none;stroke:#000000;stroke-width:1;stroke-linecap:round;stroke-linejoin:round;stroke-miterlimit:4;stroke-opacity:1;stroke-dasharray:none;stroke-dashoffset:0"
       id="path4201-5-0-3-5"
       sodipodi:cx="35.048428"
       sodipodi:cy="115.49637"
       sodipodi:rx="1.2711865"
       sodipodi:ry="1.2711865"
       d="m 36.319614,115.49637 a 1.2711865,1.2711865 0 1 1 -2.542373,0 1.2711865,1.2711865 0 1 1 2.542373,0 z"
       transform="translate(28.90799,853.27018)" />
    <path
       sodipodi:type="arc"
       style="fill:none;stroke:#000000;stroke-width:1;stroke-linecap:round;stroke-linejoin:round;stroke-miterlimit:4;stroke-opacity:1;stroke-dasharray:none;stroke-dashoffset:0"
       id="path4201-7-2"
       sodipodi:cx="35.048428"
       sodipodi:cy="115.49637"
       sodipodi:rx="1.2711865"
       sodipodi:ry="1.2711865"
       d="m 36.319614,115.49637 a 1.2711865,1.2711865 0 1 1 -2.542373,0 1.2711865,1.2711865 0 1 1 2.542373,0 z"
       transform="translate(-1.0920101,843.27018)" />
    <path
       sodipodi:type="arc"
       style="fill:none;stroke:#000000;stroke-width:1;stroke-linecap:round;stroke-linejoin:round;stroke-miterlimit:4;stroke-opacity:1;stroke-dasharray:none;stroke-dashoffset:0"
       id="path4201-5-2-7"
       sodipodi:cx="35.048428"
       sodipodi:cy="115.49637"
       sodipodi:rx="1.2711865"
       sodipodi:ry="1.2711865"
       d="m 36.319614,115.49637 a 1.2711865,1.2711865 0 1 1 -2.542373,0 1.2711865,1.2711865 0 1 1 2.542373,0 z"
       transform="translate(8.9079899,843.27018)" />
    <path
       sodipodi:type="arc"
       style="fill:none;stroke:#000000;stroke-width:1;stroke-linecap:round;stroke-linejoin:round;stroke-miterlimit:4;stroke-opacity:1;stroke-dasharray:none;stroke-dashoffset:0"
       id="path4201-5-0-4-0"
       sodipodi:cx="35.048428"
       sodipodi:cy="115.49637"
       sodipodi:rx="1.2711865"
       sodipodi:ry="1.2711865"
       d="m 36.319614,115.49637 a 1.2711865,1.2711865 0 1 1 -2.542373,0 1.2711865,1.2711865 0 1 1 2.542373,0 z"
       transform="translate(8.9079899,833.27018)" />
    <path
       sodipodi:type="arc"
       style="fill:none;stroke:#000000;stroke-width:1;stroke-linecap:round;stroke-linejoin:round;stroke-miterlimit:4;stroke-opacity:1;stroke-dasharray:none;stroke-dashoffset:0"
       id="path4201-6-5-5"
       sodipodi:cx="35.048428"
       sodipodi:cy="115.49637"
       sodipodi:rx="1.2711865"
       sodipodi:ry="1.2711865"
       d="m 36.319614,115.49637 a 1.2711865,1.2711865 0 1 1 -2.542373,0 1.2711865,1.2711865 0 1 1 2.542373,0 z"
       transform="translate(18.90799,843.27018)" />
    <path
       sodipodi:type="arc"
       style="fill:none;stroke:#000000;stroke-width:1;stroke-linecap:round;stroke-linejoin:round;stroke-miterlimit:4;stroke-opacity:1;stroke-dasharray:none;stroke-dashoffset:0"
       id="path4201-5-9-9-6"
       sodipodi:cx="35.048428"
       sodipodi:cy="115.49637"
       sodipodi:rx="1.2711865"
       sodipodi:ry="1.2711865"
       d="m 36.319614,115.49637 a 1.2711865,1.2711865 0 1 1 -2.542373,0 1.2711865,1.2711865 0 1 1 2.542373,0 z"
       transform="translate(28.90799,843.27018)" />
    <path
       sodipodi:type="arc"
       style="fill:none;stroke:#000000;stroke-width:1;stroke-linecap:round;stroke-linejoin:round;stroke-miterlimit:4;stroke-opacity:1;stroke-dasharray:none;stroke-dashoffset:0"
       id="path4201-8-7-3-8"
       sodipodi:cx="35.048428"
       sodipodi:cy="115.49637"
       sodipodi:rx="1.2711865"
       sodipodi:ry="1.2711865"
       d="m 36.319614,115.49637 a 1.2711865,1.2711865 0 1 1 -2.542373,0 1.2711865,1.2711865 0 1 1 2.542373,0 z"
       transform="translate(18.90799,833.27018)" />
    <path
       sodipodi:type="arc"
       style="fill:none;stroke:#000000;stroke-width:1;stroke-linecap:round;stroke-linejoin:round;stroke-miterlimit:4;stroke-opacity:1;stroke-dasharray:none;stroke-dashoffset:0"
       id="path4201-5-0-3-6-4"
       sodipodi:cx="35.048428"
       sodipodi:cy="115.49637"
       sodipodi:rx="1.2711865"
       sodipodi:ry="1.2711865"
       d="m 36.319614,115.49637 a 1.2711865,1.2711865 0 1 1 -2.542373,0 1.2711865,1.2711865 0 1 1 2.542373,0 z"
       transform="translate(28.90799,833.27018)" />
    <path
       sodipodi:type="arc"
       style="fill:none;stroke:#000000;stroke-width:1;stroke-linecap:round;stroke-linejoin:round;stroke-miterlimit:4;stroke-opacity:1;stroke-dasharray:none;stroke-dashoffset:0"
       id="path4201-76-0"
       sodipodi:cx="35.048428"
       sodipodi:cy="115.49637"
       sodipodi:rx="1.2711865"
       sodipodi:ry="1.2711865"
       d="m 36.319614,115.49637 a 1.2711865,1.2711865 0 1 1 -2.542373,0 1.2711865,1.2711865 0 1 1 2.542373,0 z"
       transform="translate(38.90799,863.27018)" />
    <path
       sodipodi:type="arc"
       style="fill:none;stroke:#000000;stroke-width:1;stroke-linecap:round;stroke-linejoin:round;stroke-miterlimit:4;stroke-opacity:1;stroke-dasharray:none;stroke-dashoffset:0"
       id="path4201-5-6-4"
       sodipodi:cx="35.048428"
       sodipodi:cy="115.49637"
       sodipodi:rx="1.2711865"
       sodipodi:ry="1.2711865"
       d="m 36.319614,115.49637 a 1.2711865,1.2711865 0 1 1 -2.542373,0 1.2711865,1.2711865 0 1 1 2.542373,0 z"
       transform="translate(48.90799,863.27018)" />
    <path
       sodipodi:type="arc"
       style="fill:none;stroke:#000000;stroke-width:1;stroke-linecap:round;stroke-linejoin:round;stroke-miterlimit:4;stroke-opacity:1;stroke-dasharray:none;stroke-dashoffset:0"
       id="path4201-8-71-0"
       sodipodi:cx="35.048428"
       sodipodi:cy="115.49637"
       sodipodi:rx="1.2711865"
       sodipodi:ry="1.2711865"
       d="m 36.319614,115.49637 a 1.2711865,1.2711865 0 1 1 -2.542373,0 1.2711865,1.2711865 0 1 1 2.542373,0 z"
       transform="translate(38.90799,853.27018)" />
    <path
       sodipodi:type="arc"
       style="fill:none;stroke:#000000;stroke-width:1;stroke-linecap:round;stroke-linejoin:round;stroke-miterlimit:4;stroke-opacity:1;stroke-dasharray:none;stroke-dashoffset:0"
       id="path4201-5-0-5-3"
       sodipodi:cx="35.048428"
       sodipodi:cy="115.49637"
       sodipodi:rx="1.2711865"
       sodipodi:ry="1.2711865"
       d="m 36.319614,115.49637 a 1.2711865,1.2711865 0 1 1 -2.542373,0 1.2711865,1.2711865 0 1 1 2.542373,0 z"
       transform="translate(48.90799,853.27018)" />
    <path
       sodipodi:type="arc"
       style="fill:none;stroke:#000000;stroke-width:1;stroke-linecap:round;stroke-linejoin:round;stroke-miterlimit:4;stroke-opacity:1;stroke-dasharray:none;stroke-dashoffset:0"
       id="path4201-6-6-9"
       sodipodi:cx="35.048428"
       sodipodi:cy="115.49637"
       sodipodi:rx="1.2711865"
       sodipodi:ry="1.2711865"
       d="m 36.319614,115.49637 a 1.2711865,1.2711865 0 1 1 -2.542373,0 1.2711865,1.2711865 0 1 1 2.542373,0 z"
       transform="translate(58.90799,863.27018)" />
    <path
       sodipodi:type="arc"
       style="fill:none;stroke:#000000;stroke-width:1;stroke-linecap:round;stroke-linejoin:round;stroke-miterlimit:4;stroke-opacity:1;stroke-dasharray:none;stroke-dashoffset:0"
       id="path4201-5-9-1-4"
       sodipodi:cx="35.048428"
       sodipodi:cy="115.49637"
       sodipodi:rx="1.2711865"
       sodipodi:ry="1.2711865"
       d="m 36.319614,115.49637 a 1.2711865,1.2711865 0 1 1 -2.542373,0 1.2711865,1.2711865 0 1 1 2.542373,0 z"
       transform="translate(68.90799,863.27018)" />
    <path
       sodipodi:type="arc"
       style="fill:none;stroke:#000000;stroke-width:1;stroke-linecap:round;stroke-linejoin:round;stroke-miterlimit:4;stroke-opacity:1;stroke-dasharray:none;stroke-dashoffset:0"
       id="path4201-8-7-5-4"
       sodipodi:cx="35.048428"
       sodipodi:cy="115.49637"
       sodipodi:rx="1.2711865"
       sodipodi:ry="1.2711865"
       d="m 36.319614,115.49637 a 1.2711865,1.2711865 0 1 1 -2.542373,0 1.2711865,1.2711865 0 1 1 2.542373,0 z"
       transform="translate(58.90799,853.27018)" />
    <path
       sodipodi:type="arc"
       style="fill:none;stroke:#000000;stroke-width:1;stroke-linecap:round;stroke-linejoin:round;stroke-miterlimit:4;stroke-opacity:1;stroke-dasharray:none;stroke-dashoffset:0"
       id="path4201-5-0-3-4-5"
       sodipodi:cx="35.048428"
       sodipodi:cy="115.49637"
       sodipodi:rx="1.2711865"
       sodipodi:ry="1.2711865"
       d="m 36.319614,115.49637 a 1.2711865,1.2711865 0 1 1 -2.542373,0 1.2711865,1.2711865 0 1 1 2.542373,0 z"
       transform="translate(68.90799,853.27018)" />
    <path
       sodipodi:type="arc"
       style="fill:none;stroke:#000000;stroke-width:1;stroke-linecap:round;stroke-linejoin:round;stroke-miterlimit:4;stroke-opacity:1;stroke-dasharray:none;stroke-dashoffset:0"
       id="path4201-7-1-0"
       sodipodi:cx="35.048428"
       sodipodi:cy="115.49637"
       sodipodi:rx="1.2711865"
       sodipodi:ry="1.2711865"
       d="m 36.319614,115.49637 a 1.2711865,1.2711865 0 1 1 -2.542373,0 1.2711865,1.2711865 0 1 1 2.542373,0 z"
       transform="translate(38.90799,843.27018)" />
    <path
       sodipodi:type="arc"
       style="fill:none;stroke:#000000;stroke-width:1;stroke-linecap:round;stroke-linejoin:round;stroke-miterlimit:4;stroke-opacity:1;stroke-dasharray:none;stroke-dashoffset:0"
       id="path4201-5-2-3-2"
       sodipodi:cx="35.048428"
       sodipodi:cy="115.49637"
       sodipodi:rx="1.2711865"
       sodipodi:ry="1.2711865"
       d="m 36.319614,115.49637 a 1.2711865,1.2711865 0 1 1 -2.542373,0 1.2711865,1.2711865 0 1 1 2.542373,0 z"
       transform="translate(48.90799,843.27018)" />
    <path
       sodipodi:type="arc"
       style="fill:none;stroke:#000000;stroke-width:1;stroke-linecap:round;stroke-linejoin:round;stroke-miterlimit:4;stroke-opacity:1;stroke-dasharray:none;stroke-dashoffset:0"
       id="path4201-8-1-3-9"
       sodipodi:cx="35.048428"
       sodipodi:cy="115.49637"
       sodipodi:rx="1.2711865"
       sodipodi:ry="1.2711865"
       d="m 36.319614,115.49637 a 1.2711865,1.2711865 0 1 1 -2.542373,0 1.2711865,1.2711865 0 1 1 2.542373,0 z"
       transform="translate(38.90799,833.27018)" />
    <path
       sodipodi:type="arc"
       style="fill:none;stroke:#000000;stroke-width:1;stroke-linecap:round;stroke-linejoin:round;stroke-miterlimit:4;stroke-opacity:1;stroke-dasharray:none;stroke-dashoffset:0"
       id="path4201-5-0-4-8-2"
       sodipodi:cx="35.048428"
       sodipodi:cy="115.49637"
       sodipodi:rx="1.2711865"
       sodipodi:ry="1.2711865"
       d="m 36.319614,115.49637 a 1.2711865,1.2711865 0 1 1 -2.542373,0 1.2711865,1.2711865 0 1 1 2.542373,0 z"
       transform="translate(48.90799,833.27018)" />
    <path
       sodipodi:type="arc"
       style="fill:none;stroke:#000000;stroke-width:1;stroke-linecap:round;stroke-linejoin:round;stroke-miterlimit:4;stroke-opacity:1;stroke-dasharray:none;stroke-dashoffset:0"
       id="path4201-6-5-2-6"
       sodipodi:cx="35.048428"
       sodipodi:cy="115.49637"
       sodipodi:rx="1.2711865"
       sodipodi:ry="1.2711865"
       d="m 36.319614,115.49637 a 1.2711865,1.2711865 0 1 1 -2.542373,0 1.2711865,1.2711865 0 1 1 2.542373,0 z"
       transform="translate(58.90799,843.27018)" />
    <path
       sodipodi:type="arc"
       style="fill:none;stroke:#000000;stroke-width:1;stroke-linecap:round;stroke-linejoin:round;stroke-miterlimit:4;stroke-opacity:1;stroke-dasharray:none;stroke-dashoffset:0"
       id="path4201-8-7-6-2"
       sodipodi:cx="35.048428"
       sodipodi:cy="115.49637"
       sodipodi:rx="1.2711865"
       sodipodi:ry="1.2711865"
       d="m 36.319614,115.49637 a 1.2711865,1.2711865 0 1 1 -2.542373,0 1.2711865,1.2711865 0 1 1 2.542373,0 z"
       transform="translate(18.90799,823.27018)" />
    <path
       sodipodi:type="arc"
       style="fill:none;stroke:#000000;stroke-width:1;stroke-linecap:round;stroke-linejoin:round;stroke-miterlimit:4;stroke-opacity:1;stroke-dasharray:none;stroke-dashoffset:0"
       id="path4201-5-0-3-5-7"
       sodipodi:cx="35.048428"
       sodipodi:cy="115.49637"
       sodipodi:rx="1.2711865"
       sodipodi:ry="1.2711865"
       d="m 36.319614,115.49637 a 1.2711865,1.2711865 0 1 1 -2.542373,0 1.2711865,1.2711865 0 1 1 2.542373,0 z"
       transform="translate(28.90799,823.27018)" />
    <path
       sodipodi:type="arc"
       style="fill:none;stroke:#000000;stroke-width:1;stroke-linecap:round;stroke-linejoin:round;stroke-miterlimit:4;stroke-opacity:1;stroke-dasharray:none;stroke-dashoffset:0"
       id="path4201-8-71-0-2"
       sodipodi:cx="35.048428"
       sodipodi:cy="115.49637"
       sodipodi:rx="1.2711865"
       sodipodi:ry="1.2711865"
       d="m 36.319614,115.49637 a 1.2711865,1.2711865 0 1 1 -2.542373,0 1.2711865,1.2711865 0 1 1 2.542373,0 z"
       transform="translate(38.90799,823.27018)" />
    <path
       style="fill:none;stroke:#000000;stroke-width:1px;stroke-linecap:butt;stroke-linejoin:miter;stroke-opacity:1"
       d="M 14.709443,73.910412 65.012107,24.152542"
       id="path4606"
       inkscape:connector-curvature="0"
       transform="translate(0,902.36218)" />
    <path
       style="fill:none;stroke:#000000;stroke-width:1px;stroke-linecap:butt;stroke-linejoin:miter;stroke-opacity:1"
       d="m 17.433414,35.230024 94.430996,0"
       id="path4608"
       inkscape:connector-curvature="0"
       transform="translate(0,902.36218)" />
    <path
       style="fill:none;stroke:#000000;stroke-width:1px;stroke-linecap:butt;stroke-linejoin:miter;stroke-opacity:1"
       d="M 115.13317,76.089588 70.096852,31.053269"
       id="path4610"
       inkscape:connector-curvature="0"
       transform="translate(0,902.36218)" />
  </g>
</svg>
