<?xml version="1.0" encoding="UTF-8" standalone="no"?>
<!-- Created with Inkscape (http://www.inkscape.org/) -->

<svg
   xmlns:dc="http://purl.org/dc/elements/1.1/"
   xmlns:cc="http://creativecommons.org/ns#"
   xmlns:rdf="http://www.w3.org/1999/02/22-rdf-syntax-ns#"
   xmlns:svg="http://www.w3.org/2000/svg"
   xmlns="http://www.w3.org/2000/svg"
   xmlns:sodipodi="http://sodipodi.sourceforge.net/DTD/sodipodi-0.dtd"
   xmlns:inkscape="http://www.inkscape.org/namespaces/inkscape"
   width="200"
   height="200"
   id="svg2"
   version="1.1"
   inkscape:version="0.48.4 r9939"
   sodipodi:docname="Nouveau document 1">
  <defs
     id="defs4">
    <marker
       inkscape:stockid="Arrow1Mend"
       orient="auto"
       refY="0.0"
       refX="0.0"
       id="Arrow1Mend"
       style="overflow:visible;">
      <path
         id="path3770"
         d="M 0.0,0.0 L 5.0,-5.0 L -12.5,0.0 L 5.0,5.0 L 0.0,0.0 z "
         style="fill-rule:evenodd;stroke:#000000;stroke-width:1.0pt;"
         transform="scale(0.4) rotate(180) translate(10,0)" />
    </marker>
  </defs>
  <sodipodi:namedview
     id="base"
     pagecolor="#ffffff"
     bordercolor="#666666"
     borderopacity="1.0"
     inkscape:pageopacity="0.0"
     inkscape:pageshadow="2"
     inkscape:zoom="2.88"
     inkscape:cx="92.117892"
     inkscape:cy="104.37246"
     inkscape:document-units="px"
     inkscape:current-layer="layer1"
     showgrid="false"
     inkscape:window-width="1280"
     inkscape:window-height="753"
     inkscape:window-x="0"
     inkscape:window-y="25"
     inkscape:window-maximized="1" />
  <metadata
     id="metadata7">
    <rdf:RDF>
      <cc:Work
         rdf:about="">
        <dc:format>image/svg+xml</dc:format>
        <dc:type
           rdf:resource="http://purl.org/dc/dcmitype/StillImage" />
        <dc:title></dc:title>
      </cc:Work>
    </rdf:RDF>
  </metadata>
  <g
     inkscape:label="Calque 1"
     inkscape:groupmode="layer"
     id="layer1"
     transform="translate(0,-852.36218)">
    <path
       style="fill:none;stroke:#000000;stroke-width:1.291026;stroke-linecap:butt;stroke-linejoin:miter;stroke-miterlimit:4;stroke-opacity:1;stroke-dasharray:none;marker-end:url(#Arrow1Mend)"
       d="m 28.742564,1043.2028 0,-166.21962"
       id="path3753"
       inkscape:connector-curvature="0"
       sodipodi:nodetypes="cc" />
    <path
       style="fill:none;stroke:#000000;stroke-width:1.291026;stroke-linecap:butt;stroke-linejoin:miter;stroke-miterlimit:4;stroke-opacity:1;stroke-dasharray:none;marker-end:url(#Arrow1Mend)"
       d="m 8.742735,1019.4443 180.143485,0"
       id="path3755"
       inkscape:connector-curvature="0"
       sodipodi:nodetypes="cc" />
    <path
       sodipodi:type="arc"
       style="fill:#000000;fill-opacity:1;stroke:#000000;stroke-width:1;stroke-linecap:round;stroke-linejoin:round;stroke-miterlimit:4;stroke-opacity:1;stroke-dasharray:none;stroke-dashoffset:0"
       id="path4201"
       sodipodi:cx="51.314346"
       sodipodi:cy="172.5014"
       sodipodi:rx="2.2097087"
       sodipodi:ry="2.2097087"
       d="m 53.524055,172.5014 a 2.2097087,2.2097087 0 1 1 -4.419417,0 2.2097087,2.2097087 0 1 1 4.419417,0 z"
       transform="matrix(1.291026,0,0,1.291026,-11.935723,796.63474)" />
    <path
       sodipodi:type="arc"
       style="fill:#000000;fill-opacity:1;stroke:#000000;stroke-width:1;stroke-linecap:round;stroke-linejoin:round;stroke-miterlimit:4;stroke-opacity:1;stroke-dasharray:none;stroke-dashoffset:0"
       id="path4201-5-1-4"
       sodipodi:cx="51.314346"
       sodipodi:cy="172.5014"
       sodipodi:rx="2.2097087"
       sodipodi:ry="2.2097087"
       d="m 53.524055,172.5014 a 2.2097087,2.2097087 0 1 1 -4.419417,0 2.2097087,2.2097087 0 1 1 4.419417,0 z"
       transform="matrix(1.291026,0,0,1.291026,-37.756243,796.63474)" />
    <path
       sodipodi:type="arc"
       style="fill:#000000;fill-opacity:1;stroke:#000000;stroke-width:1;stroke-linecap:round;stroke-linejoin:round;stroke-miterlimit:4;stroke-opacity:1;stroke-dasharray:none;stroke-dashoffset:0"
       id="path4201-5-1-4-9"
       sodipodi:cx="51.314346"
       sodipodi:cy="172.5014"
       sodipodi:rx="2.2097087"
       sodipodi:ry="2.2097087"
       d="m 53.524055,172.5014 a 2.2097087,2.2097087 0 1 1 -4.419417,0 2.2097087,2.2097087 0 1 1 4.419417,0 z"
       transform="matrix(1.291026,0,0,1.291026,13.884797,796.63474)" />
    <path
       sodipodi:type="arc"
       style="fill:#000000;fill-opacity:1;stroke:#000000;stroke-width:1;stroke-linecap:round;stroke-linejoin:round;stroke-miterlimit:4;stroke-opacity:1;stroke-dasharray:none;stroke-dashoffset:0"
       id="path4201-5-1-4-9-5"
       sodipodi:cx="51.314346"
       sodipodi:cy="172.5014"
       sodipodi:rx="2.2097087"
       sodipodi:ry="2.2097087"
       d="m 53.524055,172.5014 a 2.2097087,2.2097087 0 1 1 -4.419417,0 2.2097087,2.2097087 0 1 1 4.419417,0 z"
       transform="matrix(1.291026,0,0,1.291026,39.705316,796.63474)" />
    <path
       sodipodi:type="arc"
       style="fill:#000000;fill-opacity:1;stroke:#000000;stroke-width:1;stroke-linecap:round;stroke-linejoin:round;stroke-miterlimit:4;stroke-opacity:1;stroke-dasharray:none;stroke-dashoffset:0"
       id="path4201-5-1-4-9-5-6"
       sodipodi:cx="51.314346"
       sodipodi:cy="172.5014"
       sodipodi:rx="2.2097087"
       sodipodi:ry="2.2097087"
       d="m 53.524055,172.5014 a 2.2097087,2.2097087 0 1 1 -4.419417,0 2.2097087,2.2097087 0 1 1 4.419417,0 z"
       transform="matrix(1.291026,0,0,1.291026,65.525836,796.63474)" />
    <path
       sodipodi:type="arc"
       style="fill:#ff0000;fill-opacity:1;stroke:#000000;stroke-width:1;stroke-linecap:round;stroke-linejoin:round;stroke-miterlimit:4;stroke-opacity:1;stroke-dasharray:none;stroke-dashoffset:0"
       id="path4201-5-1-4-9-5-6-3"
       sodipodi:cx="51.314346"
       sodipodi:cy="172.5014"
       sodipodi:rx="2.2097087"
       sodipodi:ry="2.2097087"
       d="m 53.524055,172.5014 a 2.2097087,2.2097087 0 1 1 -4.419417,0 2.2097087,2.2097087 0 1 1 4.419417,0 z"
       transform="matrix(1.291026,0,0,1.291026,91.346351,796.63474)" />
    <path
       sodipodi:type="arc"
       style="fill:#000000;fill-opacity:1;stroke:#000000;stroke-width:1;stroke-linecap:round;stroke-linejoin:round;stroke-miterlimit:4;stroke-opacity:1;stroke-dasharray:none;stroke-dashoffset:0"
       id="path4201-9"
       sodipodi:cx="51.314346"
       sodipodi:cy="172.5014"
       sodipodi:rx="2.2097087"
       sodipodi:ry="2.2097087"
       d="m 53.524055,172.5014 a 2.2097087,2.2097087 0 1 1 -4.419417,0 2.2097087,2.2097087 0 1 1 4.419417,0 z"
       transform="matrix(1.291026,0,0,1.291026,-11.935723,770.81422)" />
    <path
       sodipodi:type="arc"
       style="fill:#000000;fill-opacity:1;stroke:#000000;stroke-width:1;stroke-linecap:round;stroke-linejoin:round;stroke-miterlimit:4;stroke-opacity:1;stroke-dasharray:none;stroke-dashoffset:0"
       id="path4201-5-1-4-92"
       sodipodi:cx="51.314346"
       sodipodi:cy="172.5014"
       sodipodi:rx="2.2097087"
       sodipodi:ry="2.2097087"
       d="m 53.524055,172.5014 a 2.2097087,2.2097087 0 1 1 -4.419417,0 2.2097087,2.2097087 0 1 1 4.419417,0 z"
       transform="matrix(1.291026,0,0,1.291026,-37.756243,770.81422)" />
    <path
       sodipodi:type="arc"
       style="fill:#000000;fill-opacity:1;stroke:#000000;stroke-width:1;stroke-linecap:round;stroke-linejoin:round;stroke-miterlimit:4;stroke-opacity:1;stroke-dasharray:none;stroke-dashoffset:0"
       id="path4201-5-1-4-9-4"
       sodipodi:cx="51.314346"
       sodipodi:cy="172.5014"
       sodipodi:rx="2.2097087"
       sodipodi:ry="2.2097087"
       d="m 53.524055,172.5014 a 2.2097087,2.2097087 0 1 1 -4.419417,0 2.2097087,2.2097087 0 1 1 4.419417,0 z"
       transform="matrix(1.291026,0,0,1.291026,13.884798,770.81422)" />
    <path
       sodipodi:type="arc"
       style="fill:#000000;fill-opacity:1;stroke:#000000;stroke-width:1;stroke-linecap:round;stroke-linejoin:round;stroke-miterlimit:4;stroke-opacity:1;stroke-dasharray:none;stroke-dashoffset:0"
       id="path4201-5-1-4-9-5-1"
       sodipodi:cx="51.314346"
       sodipodi:cy="172.5014"
       sodipodi:rx="2.2097087"
       sodipodi:ry="2.2097087"
       d="m 53.524055,172.5014 a 2.2097087,2.2097087 0 1 1 -4.419417,0 2.2097087,2.2097087 0 1 1 4.419417,0 z"
       transform="matrix(1.291026,0,0,1.291026,39.705316,770.81422)" />
    <path
       sodipodi:type="arc"
       style="fill:#000000;fill-opacity:1;stroke:#000000;stroke-width:1;stroke-linecap:round;stroke-linejoin:round;stroke-miterlimit:4;stroke-opacity:1;stroke-dasharray:none;stroke-dashoffset:0"
       id="path4201-5-1-4-9-5-6-1"
       sodipodi:cx="51.314346"
       sodipodi:cy="172.5014"
       sodipodi:rx="2.2097087"
       sodipodi:ry="2.2097087"
       d="m 53.524055,172.5014 a 2.2097087,2.2097087 0 1 1 -4.419417,0 2.2097087,2.2097087 0 1 1 4.419417,0 z"
       transform="matrix(1.291026,0,0,1.291026,65.525836,770.81422)" />
    <path
       sodipodi:type="arc"
       style="fill:#000000;fill-opacity:1;stroke:#000000;stroke-width:1;stroke-linecap:round;stroke-linejoin:round;stroke-miterlimit:4;stroke-opacity:1;stroke-dasharray:none;stroke-dashoffset:0"
       id="path4201-5-1-4-9-5-6-3-7"
       sodipodi:cx="51.314346"
       sodipodi:cy="172.5014"
       sodipodi:rx="2.2097087"
       sodipodi:ry="2.2097087"
       d="m 53.524055,172.5014 a 2.2097087,2.2097087 0 1 1 -4.419417,0 2.2097087,2.2097087 0 1 1 4.419417,0 z"
       transform="matrix(1.291026,0,0,1.291026,91.346351,770.81422)" />
    <path
       sodipodi:type="arc"
       style="fill:#000000;fill-opacity:1;stroke:#000000;stroke-width:1;stroke-linecap:round;stroke-linejoin:round;stroke-miterlimit:4;stroke-opacity:1;stroke-dasharray:none;stroke-dashoffset:0"
       id="path4201-9-2"
       sodipodi:cx="51.314346"
       sodipodi:cy="172.5014"
       sodipodi:rx="2.2097087"
       sodipodi:ry="2.2097087"
       d="m 53.524055,172.5014 a 2.2097087,2.2097087 0 1 1 -4.419417,0 2.2097087,2.2097087 0 1 1 4.419417,0 z"
       transform="matrix(1.291026,0,0,1.291026,-11.935721,744.99371)" />
    <path
       sodipodi:type="arc"
       style="fill:#ff0000;fill-opacity:1;stroke:#000000;stroke-width:1;stroke-linecap:round;stroke-linejoin:round;stroke-miterlimit:4;stroke-opacity:1;stroke-dasharray:none;stroke-dashoffset:0"
       id="path4201-5-1-4-92-8"
       sodipodi:cx="51.314346"
       sodipodi:cy="172.5014"
       sodipodi:rx="2.2097087"
       sodipodi:ry="2.2097087"
       d="m 53.524055,172.5014 a 2.2097087,2.2097087 0 1 1 -4.419417,0 2.2097087,2.2097087 0 1 1 4.419417,0 z"
       transform="matrix(1.291026,0,0,1.291026,-37.756243,744.99371)" />
    <path
       sodipodi:type="arc"
       style="fill:#000000;fill-opacity:1;stroke:#000000;stroke-width:1;stroke-linecap:round;stroke-linejoin:round;stroke-miterlimit:4;stroke-opacity:1;stroke-dasharray:none;stroke-dashoffset:0"
       id="path4201-5-1-4-9-4-9"
       sodipodi:cx="51.314346"
       sodipodi:cy="172.5014"
       sodipodi:rx="2.2097087"
       sodipodi:ry="2.2097087"
       d="m 53.524055,172.5014 a 2.2097087,2.2097087 0 1 1 -4.419417,0 2.2097087,2.2097087 0 1 1 4.419417,0 z"
       transform="matrix(1.291026,0,0,1.291026,13.884799,744.99371)" />
    <path
       sodipodi:type="arc"
       style="fill:#000000;fill-opacity:1;stroke:#000000;stroke-width:1;stroke-linecap:round;stroke-linejoin:round;stroke-miterlimit:4;stroke-opacity:1;stroke-dasharray:none;stroke-dashoffset:0"
       id="path4201-5-1-4-9-5-1-5"
       sodipodi:cx="51.314346"
       sodipodi:cy="172.5014"
       sodipodi:rx="2.2097087"
       sodipodi:ry="2.2097087"
       d="m 53.524055,172.5014 a 2.2097087,2.2097087 0 1 1 -4.419417,0 2.2097087,2.2097087 0 1 1 4.419417,0 z"
       transform="matrix(1.291026,0,0,1.291026,39.705316,744.99371)" />
    <path
       sodipodi:type="arc"
       style="fill:#000000;fill-opacity:1;stroke:#000000;stroke-width:1;stroke-linecap:round;stroke-linejoin:round;stroke-miterlimit:4;stroke-opacity:1;stroke-dasharray:none;stroke-dashoffset:0"
       id="path4201-5-1-4-9-5-6-1-5"
       sodipodi:cx="51.314346"
       sodipodi:cy="172.5014"
       sodipodi:rx="2.2097087"
       sodipodi:ry="2.2097087"
       d="m 53.524055,172.5014 a 2.2097087,2.2097087 0 1 1 -4.419417,0 2.2097087,2.2097087 0 1 1 4.419417,0 z"
       transform="matrix(1.291026,0,0,1.291026,65.525836,744.99371)" />
    <path
       sodipodi:type="arc"
       style="fill:#ff0000;fill-opacity:1;stroke:#000000;stroke-width:1;stroke-linecap:round;stroke-linejoin:round;stroke-miterlimit:4;stroke-opacity:1;stroke-dasharray:none;stroke-dashoffset:0"
       id="path4201-5-1-4-9-5-6-3-7-6"
       sodipodi:cx="51.314346"
       sodipodi:cy="172.5014"
       sodipodi:rx="2.2097087"
       sodipodi:ry="2.2097087"
       d="m 53.524055,172.5014 a 2.2097087,2.2097087 0 1 1 -4.419417,0 2.2097087,2.2097087 0 1 1 4.419417,0 z"
       transform="matrix(1.291026,0,0,1.291026,91.346351,744.99371)" />
    <path
       sodipodi:type="arc"
       style="fill:#000000;fill-opacity:1;stroke:#000000;stroke-width:1;stroke-linecap:round;stroke-linejoin:round;stroke-miterlimit:4;stroke-opacity:1;stroke-dasharray:none;stroke-dashoffset:0"
       id="path4201-9-2-5"
       sodipodi:cx="51.314346"
       sodipodi:cy="172.5014"
       sodipodi:rx="2.2097087"
       sodipodi:ry="2.2097087"
       d="m 53.524055,172.5014 a 2.2097087,2.2097087 0 1 1 -4.419417,0 2.2097087,2.2097087 0 1 1 4.419417,0 z"
       transform="matrix(1.291026,0,0,1.291026,-11.93572,719.17319)" />
    <path
       sodipodi:type="arc"
       style="fill:#000000;fill-opacity:1;stroke:#000000;stroke-width:1;stroke-linecap:round;stroke-linejoin:round;stroke-miterlimit:4;stroke-opacity:1;stroke-dasharray:none;stroke-dashoffset:0"
       id="path4201-5-1-4-9-4-9-5"
       sodipodi:cx="51.314346"
       sodipodi:cy="172.5014"
       sodipodi:rx="2.2097087"
       sodipodi:ry="2.2097087"
       d="m 53.524055,172.5014 a 2.2097087,2.2097087 0 1 1 -4.419417,0 2.2097087,2.2097087 0 1 1 4.419417,0 z"
       transform="matrix(1.291026,0,0,1.291026,13.8848,719.17319)" />
    <path
       sodipodi:type="arc"
       style="fill:#000000;fill-opacity:1;stroke:#000000;stroke-width:1;stroke-linecap:round;stroke-linejoin:round;stroke-miterlimit:4;stroke-opacity:1;stroke-dasharray:none;stroke-dashoffset:0"
       id="path4201-5-1-4-9-5-1-5-0"
       sodipodi:cx="51.314346"
       sodipodi:cy="172.5014"
       sodipodi:rx="2.2097087"
       sodipodi:ry="2.2097087"
       d="m 53.524055,172.5014 a 2.2097087,2.2097087 0 1 1 -4.419417,0 2.2097087,2.2097087 0 1 1 4.419417,0 z"
       transform="matrix(1.291026,0,0,1.291026,39.705316,719.17319)" />
    <path
       sodipodi:type="arc"
       style="fill:#000000;fill-opacity:1;stroke:#000000;stroke-width:1;stroke-linecap:round;stroke-linejoin:round;stroke-miterlimit:4;stroke-opacity:1;stroke-dasharray:none;stroke-dashoffset:0"
       id="path4201-5-1-4-9-5-6-1-5-3"
       sodipodi:cx="51.314346"
       sodipodi:cy="172.5014"
       sodipodi:rx="2.2097087"
       sodipodi:ry="2.2097087"
       d="m 53.524055,172.5014 a 2.2097087,2.2097087 0 1 1 -4.419417,0 2.2097087,2.2097087 0 1 1 4.419417,0 z"
       transform="matrix(1.291026,0,0,1.291026,65.525836,719.17319)" />
    <path
       sodipodi:type="arc"
       style="fill:#ff0000;fill-opacity:1;stroke:#000000;stroke-width:1;stroke-linecap:round;stroke-linejoin:round;stroke-miterlimit:4;stroke-opacity:1;stroke-dasharray:none;stroke-dashoffset:0"
       id="path4201-9-2-5-4"
       sodipodi:cx="51.314346"
       sodipodi:cy="172.5014"
       sodipodi:rx="2.2097087"
       sodipodi:ry="2.2097087"
       d="m 53.524055,172.5014 a 2.2097087,2.2097087 0 1 1 -4.419417,0 2.2097087,2.2097087 0 1 1 4.419417,0 z"
       transform="matrix(1.291026,0,0,1.291026,-11.935719,693.35267)" />
    <path
       sodipodi:type="arc"
       style="fill:#000000;fill-opacity:1;stroke:#000000;stroke-width:1;stroke-linecap:round;stroke-linejoin:round;stroke-miterlimit:4;stroke-opacity:1;stroke-dasharray:none;stroke-dashoffset:0"
       id="path4201-5-1-4-9-4-9-5-3"
       sodipodi:cx="51.314346"
       sodipodi:cy="172.5014"
       sodipodi:rx="2.2097087"
       sodipodi:ry="2.2097087"
       d="m 53.524055,172.5014 a 2.2097087,2.2097087 0 1 1 -4.419417,0 2.2097087,2.2097087 0 1 1 4.419417,0 z"
       transform="matrix(1.291026,0,0,1.291026,13.884802,693.35267)" />
    <path
       sodipodi:type="arc"
       style="fill:#ff0000;fill-opacity:1;stroke:#000000;stroke-width:1;stroke-linecap:round;stroke-linejoin:round;stroke-miterlimit:4;stroke-opacity:1;stroke-dasharray:none;stroke-dashoffset:0"
       id="path4201-5-1-4-9-5-1-5-0-9"
       sodipodi:cx="51.314346"
       sodipodi:cy="172.5014"
       sodipodi:rx="2.2097087"
       sodipodi:ry="2.2097087"
       d="m 53.524055,172.5014 a 2.2097087,2.2097087 0 1 1 -4.419417,0 2.2097087,2.2097087 0 1 1 4.419417,0 z"
       transform="matrix(1.291026,0,0,1.291026,39.705316,693.35267)" />
    <path
       style="fill:none;stroke:#000000;stroke-width:1.291026px;stroke-linecap:round;stroke-linejoin:round;stroke-opacity:1"
       d="m 28.683547,967.67131 25.358147,-51.66721 51.984196,0 51.50873,51.50873 0,51.19177"
       id="path4461"
       inkscape:connector-curvature="0" />
  </g>
</svg>
