<?xml version="1.0" encoding="UTF-8" standalone="no"?>
<!-- Created with Inkscape (http://www.inkscape.org/) -->

<svg
   xmlns:dc="http://purl.org/dc/elements/1.1/"
   xmlns:cc="http://creativecommons.org/ns#"
   xmlns:rdf="http://www.w3.org/1999/02/22-rdf-syntax-ns#"
   xmlns:svg="http://www.w3.org/2000/svg"
   xmlns="http://www.w3.org/2000/svg"
   xmlns:sodipodi="http://sodipodi.sourceforge.net/DTD/sodipodi-0.dtd"
   xmlns:inkscape="http://www.inkscape.org/namespaces/inkscape"
   width="300"
   height="200"
   id="svg2"
   version="1.1"
   inkscape:version="0.48.4 r9939"
   sodipodi:docname="observation.svg">
  <defs
     id="defs4">
    <marker
       inkscape:stockid="Arrow1Mend"
       orient="auto"
       refY="0"
       refX="0"
       id="Arrow1Mend"
       style="overflow:visible">
      <path
         id="path3969"
         d="M 0,0 5,-5 -12.5,0 5,5 0,0 z"
         style="fill-rule:evenodd;stroke:#000000;stroke-width:1pt"
         transform="matrix(-0.4,0,0,-0.4,-4,0)"
         inkscape:connector-curvature="0" />
    </marker>
    <marker
       inkscape:stockid="Arrow1Mend"
       orient="auto"
       refY="0"
       refX="0"
       id="Arrow1Mend-5"
       style="overflow:visible">
      <path
         id="path3969-0"
         d="M 0,0 5,-5 -12.5,0 5,5 0,0 z"
         style="fill-rule:evenodd;stroke:#000000;stroke-width:1pt"
         transform="matrix(-0.4,0,0,-0.4,-4,0)"
         inkscape:connector-curvature="0" />
    </marker>
  </defs>
  <sodipodi:namedview
     id="base"
     pagecolor="#ffffff"
     bordercolor="#666666"
     borderopacity="1.0"
     inkscape:pageopacity="0.0"
     inkscape:pageshadow="2"
     inkscape:zoom="2.44"
     inkscape:cx="150"
     inkscape:cy="100"
     inkscape:document-units="px"
     inkscape:current-layer="layer1"
     showgrid="false"
     showborder="false"
     inkscape:window-width="1280"
     inkscape:window-height="753"
     inkscape:window-x="0"
     inkscape:window-y="25"
     inkscape:window-maximized="1" />
  <metadata
     id="metadata7">
    <rdf:RDF>
      <cc:Work
         rdf:about="">
        <dc:format>image/svg+xml</dc:format>
        <dc:type
           rdf:resource="http://purl.org/dc/dcmitype/StillImage" />
        <dc:title></dc:title>
      </cc:Work>
    </rdf:RDF>
  </metadata>
  <g
     inkscape:label="Calque 1"
     inkscape:groupmode="layer"
     id="layer1"
     transform="translate(0,-852.36218)">
    <path
       sodipodi:type="arc"
       style="fill:none;stroke:#000000;stroke-opacity:1"
       id="path3753"
       sodipodi:cx="143.2377"
       sodipodi:cy="97.745903"
       sodipodi:rx="53.073769"
       sodipodi:ry="74.385246"
       d="m 196.31147,97.745903 c 0,41.081837 -23.76194,74.385247 -53.07377,74.385247 -29.31183,0 -53.073767,-33.30341 -53.073767,-74.385247 0,-41.081837 23.761937,-74.385246 53.073767,-74.385246 29.31183,0 53.07377,33.303409 53.07377,74.385246 z"
       transform="translate(0,852.36218)" />
    <path
       sodipodi:type="arc"
       style="fill:#000000;fill-opacity:1;stroke:none"
       id="path3755"
       sodipodi:cx="16.393442"
       sodipodi:cy="96.721313"
       sodipodi:rx="2.4590163"
       sodipodi:ry="2.4590163"
       d="m 18.852458,96.721313 c 0,1.358078 -1.100939,2.459017 -2.459016,2.459017 -1.358077,0 -2.459016,-1.100939 -2.459016,-2.459017 0,-1.358077 1.100939,-2.459016 2.459016,-2.459016 1.358077,0 2.459016,1.100939 2.459016,2.459016 z"
       transform="translate(0,852.36218)" />
    <path
       transform="translate(126,852.36218)"
       sodipodi:type="arc"
       style="fill:#000000;fill-opacity:1;stroke:none"
       id="path3755-2"
       sodipodi:cx="16.393442"
       sodipodi:cy="96.721313"
       sodipodi:rx="2.4590163"
       sodipodi:ry="2.4590163"
       d="m 18.852458,96.721313 c 0,1.358078 -1.100939,2.459017 -2.459016,2.459017 -1.358077,0 -2.459016,-1.100939 -2.459016,-2.459017 0,-1.358077 1.100939,-2.459016 2.459016,-2.459016 1.358077,0 2.459016,1.100939 2.459016,2.459016 z" />
    <path
       transform="translate(126,832.36218)"
       sodipodi:type="arc"
       style="fill:#000000;fill-opacity:1;stroke:none"
       id="path3755-2-8"
       sodipodi:cx="16.393442"
       sodipodi:cy="96.721313"
       sodipodi:rx="2.4590163"
       sodipodi:ry="2.4590163"
       d="m 18.852458,96.721313 c 0,1.358078 -1.100939,2.459017 -2.459016,2.459017 -1.358077,0 -2.459016,-1.100939 -2.459016,-2.459017 0,-1.358077 1.100939,-2.459016 2.459016,-2.459016 1.358077,0 2.459016,1.100939 2.459016,2.459016 z" />
    <path
       transform="translate(126,792.36218)"
       sodipodi:type="arc"
       style="fill:#000000;fill-opacity:1;stroke:none"
       id="path3755-2-8-0"
       sodipodi:cx="16.393442"
       sodipodi:cy="96.721313"
       sodipodi:rx="2.4590163"
       sodipodi:ry="2.4590163"
       d="m 18.852458,96.721313 c 0,1.358078 -1.100939,2.459017 -2.459016,2.459017 -1.358077,0 -2.459016,-1.100939 -2.459016,-2.459017 0,-1.358077 1.100939,-2.459016 2.459016,-2.459016 1.358077,0 2.459016,1.100939 2.459016,2.459016 z" />
    <path
       transform="translate(126,812.36218)"
       sodipodi:type="arc"
       style="fill:#000000;fill-opacity:1;stroke:none"
       id="path3755-2-8-0-3"
       sodipodi:cx="16.393442"
       sodipodi:cy="96.721313"
       sodipodi:rx="2.4590163"
       sodipodi:ry="2.4590163"
       d="m 18.852458,96.721313 c 0,1.358078 -1.100939,2.459017 -2.459016,2.459017 -1.358077,0 -2.459016,-1.100939 -2.459016,-2.459017 0,-1.358077 1.100939,-2.459016 2.459016,-2.459016 1.358077,0 2.459016,1.100939 2.459016,2.459016 z" />
    <path
       transform="translate(126,912.36218)"
       sodipodi:type="arc"
       style="fill:#000000;fill-opacity:1;stroke:none"
       id="path3755-2-8-0-3-6"
       sodipodi:cx="16.393442"
       sodipodi:cy="96.721313"
       sodipodi:rx="2.4590163"
       sodipodi:ry="2.4590163"
       d="m 18.852458,96.721313 c 0,1.358078 -1.100939,2.459017 -2.459016,2.459017 -1.358077,0 -2.459016,-1.100939 -2.459016,-2.459017 0,-1.358077 1.100939,-2.459016 2.459016,-2.459016 1.358077,0 2.459016,1.100939 2.459016,2.459016 z" />
    <flowRoot
       xml:space="preserve"
       id="flowRoot3847"
       style="font-size:9px;font-style:normal;font-variant:normal;font-weight:normal;font-stretch:normal;line-height:125%;letter-spacing:0px;word-spacing:0px;fill:#000000;fill-opacity:1;stroke:none;font-family:Gentium Basic;-inkscape-font-specification:Gentium Basic"
       transform="translate(-34.42623,901.54251)"><flowRegion
         id="flowRegion3849"><rect
           id="rect3851"
           width="94.262299"
           height="57.786884"
           x="205.32787"
           y="28.688524" /></flowRegion><flowPara
         id="flowPara3853"
         style="font-size:14px">max{0,-b(v)}</flowPara></flowRoot>    <flowRoot
       xml:space="preserve"
       id="flowRoot3847-1"
       style="font-size:9px;font-style:normal;font-variant:normal;font-weight:normal;font-stretch:normal;line-height:125%;letter-spacing:0px;word-spacing:0px;fill:#000000;fill-opacity:1;stroke:none;font-family:Gentium Basic;-inkscape-font-specification:Gentium Basic"
       transform="translate(-146.14409,896.40685)"><flowRegion
         id="flowRegion3849-0"><rect
           id="rect3851-6"
           width="94.262299"
           height="57.786884"
           x="205.32787"
           y="28.688524" /></flowRegion><flowPara
         id="flowPara3853-4"
         style="font-size:14px">max{b(v),0}</flowPara></flowRoot>    <flowRoot
       xml:space="preserve"
       id="flowRoot3847-1-7"
       style="font-size:9px;font-style:normal;font-variant:normal;font-weight:normal;font-stretch:normal;line-height:125%;letter-spacing:0px;word-spacing:0px;fill:#000000;fill-opacity:1;stroke:none;font-family:Gentium Basic;-inkscape-font-specification:Gentium Basic"
       transform="translate(-195.47984,927.0298)"><flowRegion
         id="flowRegion3849-0-6"><rect
           id="rect3851-6-5"
           width="94.262299"
           height="57.786884"
           x="205.32787"
           y="28.688524" /></flowRegion><flowPara
         id="flowPara3853-4-9"
         style="font-size:14px">s</flowPara></flowRoot>    <flowRoot
       xml:space="preserve"
       id="flowRoot3847-1-7-8"
       style="font-size:9px;font-style:normal;font-variant:normal;font-weight:normal;font-stretch:normal;line-height:125%;letter-spacing:0px;word-spacing:0px;fill:#000000;fill-opacity:1;stroke:none;font-family:Gentium Basic;-inkscape-font-specification:Gentium Basic"
       transform="translate(64.52016,927.0298)"><flowRegion
         id="flowRegion3849-0-6-2"><rect
           id="rect3851-6-5-7"
           width="94.262299"
           height="57.786884"
           x="205.32787"
           y="28.688524" /></flowRegion><flowPara
         id="flowPara3853-4-9-1"
         style="font-size:14px">t</flowPara></flowRoot>    <path
       transform="translate(256,852.36218)"
       sodipodi:type="arc"
       style="fill:#000000;fill-opacity:1;stroke:none"
       id="path3755-9"
       sodipodi:cx="16.393442"
       sodipodi:cy="96.721313"
       sodipodi:rx="2.4590163"
       sodipodi:ry="2.4590163"
       d="m 18.852458,96.721313 c 0,1.358078 -1.100939,2.459017 -2.459016,2.459017 -1.358077,0 -2.459016,-1.100939 -2.459016,-2.459017 0,-1.358077 1.100939,-2.459016 2.459016,-2.459016 1.358077,0 2.459016,1.100939 2.459016,2.459016 z" />
    <path
       style="fill:none;stroke:#000000;stroke-width:1px;stroke-linecap:butt;stroke-linejoin:miter;stroke-opacity:1;marker-end:url(#Arrow1Mend)"
       d="m 20.901639,94.672131 c 27.437383,-15.999775 27.080138,1.19819 72.188471,1.520485 18.27399,0.130566 21.41317,-12.02496 43.3853,-1.520485"
       id="path3954"
       inkscape:connector-curvature="0"
       transform="translate(0,852.36218)"
       sodipodi:nodetypes="csc" />
    <flowRoot
       xml:space="preserve"
       id="flowRoot3847-1-71"
       style="font-size:9px;font-style:normal;font-variant:normal;font-weight:normal;font-stretch:normal;line-height:125%;letter-spacing:0px;word-spacing:0px;fill:#000000;fill-opacity:1;stroke:none;font-family:Gentium Basic;-inkscape-font-specification:Gentium Basic"
       transform="translate(-65.184754,829.19373)"><flowRegion
         id="flowRegion3849-0-9"><rect
           id="rect3851-6-2"
           width="94.262299"
           height="57.786884"
           x="205.32787"
           y="28.688524" /></flowRegion><flowPara
         id="flowPara3853-4-3"
         style="font-size:14px">G</flowPara></flowRoot>    <flowRoot
       xml:space="preserve"
       id="flowRoot3847-1-71-0"
       style="font-size:9px;font-style:normal;font-variant:normal;font-weight:normal;font-stretch:normal;line-height:125%;letter-spacing:0px;word-spacing:0px;fill:#000000;fill-opacity:1;stroke:none;font-family:Gentium Basic;-inkscape-font-specification:Gentium Basic"
       transform="translate(-63.973529,1008.6165)"><flowRegion
         id="flowRegion3849-0-9-5"><rect
           id="rect3851-6-2-1"
           width="94.262299"
           height="57.786884"
           x="205.32787"
           y="28.688524" /></flowRegion><flowPara
         id="flowPara3853-4-3-0"
         style="font-size:14px">G'</flowPara></flowRoot>    <path
       style="fill:none;stroke:#000000;stroke-width:1px;stroke-linecap:butt;stroke-linejoin:miter;stroke-opacity:1;marker-end:url(#Arrow1Mend)"
       d="m 148.90164,949.75299 c 19.18122,-1.69199 19.36236,10.48198 72.18847,-1.52049 31.26869,-7.10447 25.03493,8.82929 43.3853,1.52049"
       id="path3954-3"
       inkscape:connector-curvature="0"
       sodipodi:nodetypes="csc" />
    <flowRoot
       xml:space="preserve"
       id="flowRoot3847-1-4"
       style="font-size:9px;font-style:normal;font-variant:normal;font-weight:normal;font-stretch:normal;text-align:center;line-height:125%;letter-spacing:0px;word-spacing:0px;text-anchor:middle;fill:#000000;fill-opacity:1;stroke:none;font-family:Gentium Basic;-inkscape-font-specification:Gentium Basic"
       transform="translate(-108.62738,921.81669)"><flowRegion
         id="flowRegion3849-0-5"><rect
           id="rect3851-6-6"
           width="94.262299"
           height="57.786884"
           x="205.32787"
           y="28.688524"
           style="text-align:center;text-anchor:middle" /></flowRegion><flowPara
         id="flowPara3853-4-7"
         style="font-size:14px;text-align:center;text-anchor:middle">v</flowPara></flowRoot>    <path
       style="fill:none;stroke:#000000;stroke-width:1px;stroke-linecap:butt;stroke-linejoin:miter;stroke-opacity:1;marker-end:url(#Arrow1Mend-5)"
       d="m 20.491803,102.04918 c 32.192165,30.97964 70.540233,48.52821 114.754097,53.27869"
       id="path5513"
       inkscape:connector-curvature="0"
       transform="translate(0,852.36218)"
       sodipodi:nodetypes="cc" />
    <path
       style="fill:none;stroke:#000000;stroke-width:1px;stroke-linecap:butt;stroke-linejoin:miter;stroke-opacity:1;marker-end:url(#Arrow1Mend-5)"
       d="m 147.13115,155.7377 c 61.3525,-19.01185 89.79816,-29.50567 121.31147,-53.68852"
       id="path5515"
       inkscape:connector-curvature="0"
       transform="translate(0,852.36218)"
       sodipodi:nodetypes="cc" />
    <path
       style="fill:none;stroke:#000000;stroke-width:1px;stroke-linecap:butt;stroke-linejoin:miter;stroke-opacity:1;marker-end:url(#Arrow1Mend-5)"
       d="M 19.672131,89.754098 C 57.157052,67.925277 94.491627,45.705557 137.29508,37.704918"
       id="path5885"
       inkscape:connector-curvature="0"
       transform="translate(0,852.36218)"
       sodipodi:nodetypes="cc" />
    <path
       style="fill:none;stroke:#000000;stroke-width:1px;stroke-linecap:butt;stroke-linejoin:miter;stroke-opacity:1;marker-end:url(#Arrow1Mend-5)"
       d="m 146.31148,36.47541 c 41.91747,3.536508 81.96125,28.620438 121.72131,56.967213"
       id="path5887"
       inkscape:connector-curvature="0"
       transform="translate(0,852.36218)"
       sodipodi:nodetypes="cc" />
  </g>
</svg>
