<?xml version="1.0" encoding="UTF-8" standalone="no"?>
<!-- Created with Inkscape (http://www.inkscape.org/) -->

<svg
   xmlns:dc="http://purl.org/dc/elements/1.1/"
   xmlns:cc="http://creativecommons.org/ns#"
   xmlns:rdf="http://www.w3.org/1999/02/22-rdf-syntax-ns#"
   xmlns:svg="http://www.w3.org/2000/svg"
   xmlns="http://www.w3.org/2000/svg"
   xmlns:sodipodi="http://sodipodi.sourceforge.net/DTD/sodipodi-0.dtd"
   xmlns:inkscape="http://www.inkscape.org/namespaces/inkscape"
   width="150"
   height="150"
   id="svg2"
   version="1.1"
   inkscape:version="0.48.4 r9939"
   sodipodi:docname="r2_prime_example.svg">
  <defs
     id="defs4" />
  <sodipodi:namedview
     id="base"
     pagecolor="#ffffff"
     bordercolor="#666666"
     borderopacity="1.0"
     inkscape:pageopacity="0.0"
     inkscape:pageshadow="2"
     inkscape:zoom="3.84"
     inkscape:cx="21.803711"
     inkscape:cy="97.665247"
     inkscape:document-units="px"
     inkscape:current-layer="layer1"
     showgrid="false"
     inkscape:window-width="1280"
     inkscape:window-height="753"
     inkscape:window-x="0"
     inkscape:window-y="25"
     inkscape:window-maximized="1" />
  <metadata
     id="metadata7">
    <rdf:RDF>
      <cc:Work
         rdf:about="">
        <dc:format>image/svg+xml</dc:format>
        <dc:type
           rdf:resource="http://purl.org/dc/dcmitype/StillImage" />
        <dc:title />
      </cc:Work>
    </rdf:RDF>
  </metadata>
  <g
     inkscape:label="Calque 1"
     inkscape:groupmode="layer"
     id="layer1"
     transform="translate(0,-902.36215)">
    <path
       sodipodi:type="arc"
       style="fill:#000000;stroke:none;stroke-width:0.50000000000000000;stroke-linecap:round;stroke-linejoin:round;stroke-miterlimit:4;stroke-opacity:1;stroke-dasharray:none;stroke-dashoffset:0;fill-opacity:1"
       id="path3753"
       sodipodi:cx="62.760418"
       sodipodi:cy="40.625"
       sodipodi:rx="1.3020834"
       sodipodi:ry="1.3020834"
       d="m 64.062501,40.625 c 0,0.719121 -0.582962,1.302083 -1.302083,1.302083 -0.719121,0 -1.302083,-0.582962 -1.302083,-1.302083 0,-0.719121 0.582962,-1.302083 1.302083,-1.302083 0.719121,0 1.302083,0.582962 1.302083,1.302083 z"
       transform="translate(0,902.36215)" />
    <path
       transform="translate(40,922.36215)"
       sodipodi:type="arc"
       style="fill:#000000;fill-opacity:1;stroke:none;stroke-linecap:round;stroke-linejoin:round"
       id="path3753-2"
       sodipodi:cx="62.760418"
       sodipodi:cy="40.625"
       sodipodi:rx="1.3020834"
       sodipodi:ry="1.3020834"
       d="m 64.062501,40.625 c 0,0.719121 -0.582962,1.302083 -1.302083,1.302083 -0.719121,0 -1.302083,-0.582962 -1.302083,-1.302083 0,-0.719121 0.582962,-1.302083 1.302083,-1.302083 0.719121,0 1.302083,0.582962 1.302083,1.302083 z" />
    <path
       transform="translate(-14,932.36215)"
       sodipodi:type="arc"
       style="fill:#000000;fill-opacity:1;stroke:none;stroke-linecap:round;stroke-linejoin:round"
       id="path3753-4"
       sodipodi:cx="62.760418"
       sodipodi:cy="40.625"
       sodipodi:rx="1.3020834"
       sodipodi:ry="1.3020834"
       d="m 64.062501,40.625 c 0,0.719121 -0.582962,1.302083 -1.302083,1.302083 -0.719121,0 -1.302083,-0.582962 -1.302083,-1.302083 0,-0.719121 0.582962,-1.302083 1.302083,-1.302083 0.719121,0 1.302083,0.582962 1.302083,1.302083 z" />
    <path
       transform="translate(26,952.36215)"
       sodipodi:type="arc"
       style="fill:#000000;fill-opacity:1;stroke:none;stroke-linecap:round;stroke-linejoin:round"
       id="path3753-2-0"
       sodipodi:cx="62.760418"
       sodipodi:cy="40.625"
       sodipodi:rx="1.3020834"
       sodipodi:ry="1.3020834"
       d="m 64.062501,40.625 c 0,0.719121 -0.582962,1.302083 -1.302083,1.302083 -0.719121,0 -1.302083,-0.582962 -1.302083,-1.302083 0,-0.719121 0.582962,-1.302083 1.302083,-1.302083 0.719121,0 1.302083,0.582962 1.302083,1.302083 z" />
    <path
       transform="translate(-26,960.36215)"
       sodipodi:type="arc"
       style="fill:#000000;fill-opacity:1;stroke:none;stroke-linecap:round;stroke-linejoin:round"
       id="path3753-4-1"
       sodipodi:cx="62.760418"
       sodipodi:cy="40.625"
       sodipodi:rx="1.3020834"
       sodipodi:ry="1.3020834"
       d="m 64.062501,40.625 c 0,0.719121 -0.582962,1.302083 -1.302083,1.302083 -0.719121,0 -1.302083,-0.582962 -1.302083,-1.302083 0,-0.719121 0.582962,-1.302083 1.302083,-1.302083 0.719121,0 1.302083,0.582962 1.302083,1.302083 z" />
    <path
       transform="translate(14,980.36215)"
       sodipodi:type="arc"
       style="fill:#000000;fill-opacity:1;stroke:none;stroke-linecap:round;stroke-linejoin:round"
       id="path3753-2-0-4"
       sodipodi:cx="62.760418"
       sodipodi:cy="40.625"
       sodipodi:rx="1.3020834"
       sodipodi:ry="1.3020834"
       d="m 64.062501,40.625 c 0,0.719121 -0.582962,1.302083 -1.302083,1.302083 -0.719121,0 -1.302083,-0.582962 -1.302083,-1.302083 0,-0.719121 0.582962,-1.302083 1.302083,-1.302083 0.719121,0 1.302083,0.582962 1.302083,1.302083 z" />
    <path
       style="fill:none;stroke:#000000;stroke-width:1px;stroke-linecap:round;stroke-linejoin:round;stroke-opacity:1"
       d="M 36.71875,98.697917 48.177083,70.3125 62.5,40.364583 l 40.10417,20.3125 -13.802087,30.46875 -11.979166,27.864587"
       id="path3815"
       inkscape:connector-curvature="0"
       transform="translate(0,902.36215)" />
    <path
       style="fill:none;stroke:#000000;stroke-width:1px;stroke-linecap:round;stroke-linejoin:round;stroke-opacity:1"
       d="M 88.802083,90.364583 48.4375,70.572917"
       id="path3817"
       inkscape:connector-curvature="0"
       transform="translate(0,902.36215)" />
    <path
       style="fill:none;stroke:#000000;stroke-width:1px;stroke-linecap:round;stroke-linejoin:round;stroke-opacity:1"
       d="M 102.60417,60.15625 48.4375,70.572917"
       id="path3819"
       inkscape:connector-curvature="0"
       transform="translate(0,902.36215)" />
    <path
       style="fill:none;stroke:#000000;stroke-width:1px;stroke-linecap:round;stroke-linejoin:round;stroke-opacity:1"
       d="M 62.239583,40.625 89.0625,90.885417"
       id="path3821"
       inkscape:connector-curvature="0"
       transform="translate(0,902.36215)" />
    <path
       transform="translate(-40,884.36215)"
       sodipodi:type="arc"
       style="fill:#000000;fill-opacity:1;stroke:none;stroke-linecap:round;stroke-linejoin:round"
       id="path3753-0"
       sodipodi:cx="62.760418"
       sodipodi:cy="40.625"
       sodipodi:rx="1.3020834"
       sodipodi:ry="1.3020834"
       d="m 64.062501,40.625 c 0,0.719121 -0.582962,1.302083 -1.302083,1.302083 -0.719121,0 -1.302083,-0.582962 -1.302083,-1.302083 0,-0.719121 0.582962,-1.302083 1.302083,-1.302083 0.719121,0 1.302083,0.582962 1.302083,1.302083 z" />
    <path
       transform="translate(-54,914.36215)"
       sodipodi:type="arc"
       style="fill:#000000;fill-opacity:1;stroke:none;stroke-linecap:round;stroke-linejoin:round"
       id="path3753-4-0"
       sodipodi:cx="62.760418"
       sodipodi:cy="40.625"
       sodipodi:rx="1.3020834"
       sodipodi:ry="1.3020834"
       d="m 64.062501,40.625 c 0,0.719121 -0.582962,1.302083 -1.302083,1.302083 -0.719121,0 -1.302083,-0.582962 -1.302083,-1.302083 0,-0.719121 0.582962,-1.302083 1.302083,-1.302083 0.719121,0 1.302083,0.582962 1.302083,1.302083 z" />
    <path
       transform="translate(-12,888.36215)"
       sodipodi:type="arc"
       style="fill:#000000;fill-opacity:1;stroke:none;stroke-linecap:round;stroke-linejoin:round"
       id="path3753-0-5"
       sodipodi:cx="62.760418"
       sodipodi:cy="40.625"
       sodipodi:rx="1.3020834"
       sodipodi:ry="1.3020834"
       d="m 64.062501,40.625 c 0,0.719121 -0.582962,1.302083 -1.302083,1.302083 -0.719121,0 -1.302083,-0.582962 -1.302083,-1.302083 0,-0.719121 0.582962,-1.302083 1.302083,-1.302083 0.719121,0 1.302083,0.582962 1.302083,1.302083 z" />
    <path
       style="fill:none;stroke:#000000;stroke-width:1px;stroke-linecap:round;stroke-linejoin:round;stroke-opacity:1"
       d="m 8.59375,52.34375 13.802083,-29.6875 28.125,3.645833 z"
       id="path3862"
       inkscape:connector-curvature="0"
       transform="translate(0,902.36215)" />
    <path
       transform="translate(50,964.36215)"
       sodipodi:type="arc"
       style="fill:#000000;fill-opacity:1;stroke:none;stroke-linecap:round;stroke-linejoin:round"
       id="path3753-0-4"
       sodipodi:cx="62.760418"
       sodipodi:cy="40.625"
       sodipodi:rx="1.3020834"
       sodipodi:ry="1.3020834"
       d="m 64.062501,40.625 c 0,0.719121 -0.582962,1.302083 -1.302083,1.302083 -0.719121,0 -1.302083,-0.582962 -1.302083,-1.302083 0,-0.719121 0.582962,-1.302083 1.302083,-1.302083 0.719121,0 1.302083,0.582962 1.302083,1.302083 z" />
    <path
       transform="translate(36,994.36215)"
       sodipodi:type="arc"
       style="fill:#000000;fill-opacity:1;stroke:none;stroke-linecap:round;stroke-linejoin:round"
       id="path3753-4-0-6"
       sodipodi:cx="62.760418"
       sodipodi:cy="40.625"
       sodipodi:rx="1.3020834"
       sodipodi:ry="1.3020834"
       d="m 64.062501,40.625 c 0,0.719121 -0.582962,1.302083 -1.302083,1.302083 -0.719121,0 -1.302083,-0.582962 -1.302083,-1.302083 0,-0.719121 0.582962,-1.302083 1.302083,-1.302083 0.719121,0 1.302083,0.582962 1.302083,1.302083 z" />
    <path
       transform="translate(78,968.36215)"
       sodipodi:type="arc"
       style="fill:#000000;fill-opacity:1;stroke:none;stroke-linecap:round;stroke-linejoin:round"
       id="path3753-0-5-8"
       sodipodi:cx="62.760418"
       sodipodi:cy="40.625"
       sodipodi:rx="1.3020834"
       sodipodi:ry="1.3020834"
       d="m 64.062501,40.625 c 0,0.719121 -0.582962,1.302083 -1.302083,1.302083 -0.719121,0 -1.302083,-0.582962 -1.302083,-1.302083 0,-0.719121 0.582962,-1.302083 1.302083,-1.302083 0.719121,0 1.302083,0.582962 1.302083,1.302083 z" />
    <path
       style="fill:none;stroke:#000000;stroke-width:1px;stroke-linecap:round;stroke-linejoin:round;stroke-opacity:1"
       d="m 98.59375,1034.7059 13.80208,-29.6875 28.125,3.6458"
       id="path3862-8"
       inkscape:connector-curvature="0"
       sodipodi:nodetypes="ccc" />
    <path
       style="fill:none;stroke:#000000;stroke-width:1px;stroke-linecap:round;stroke-linejoin:round;stroke-opacity:1"
       d="m 112.23958,102.86458 21.61459,26.04167 6.77083,-21.61458"
       id="path3891"
       inkscape:connector-curvature="0"
       transform="translate(0,902.36215)" />
    <path
       transform="translate(71.041663,990.62257)"
       sodipodi:type="arc"
       style="fill:#000000;fill-opacity:1;stroke:none;stroke-linecap:round;stroke-linejoin:round"
       id="path3753-0-5-8-1"
       sodipodi:cx="62.760418"
       sodipodi:cy="40.625"
       sodipodi:rx="1.3020834"
       sodipodi:ry="1.3020834"
       d="m 64.062501,40.625 c 0,0.719121 -0.582962,1.302083 -1.302083,1.302083 -0.719121,0 -1.302083,-0.582962 -1.302083,-1.302083 0,-0.719121 0.582962,-1.302083 1.302083,-1.302083 0.719121,0 1.302083,0.582962 1.302083,1.302083 z" />
    <path
       style="fill:none;stroke:#ffcc00;stroke-width:1px;stroke-linecap:round;stroke-linejoin:round;stroke-opacity:1"
       d="M 47.821885,971.41725 61.211003,943.12119"
       id="path3911"
       inkscape:connector-curvature="0"
       sodipodi:nodetypes="cc" />
    <path
       style="fill:none;stroke:#ffcc00;stroke-width:1px;stroke-linecap:round;stroke-linejoin:round;stroke-opacity:1"
       d="M 90.246339,992.44669 102.99096,964.61098"
       id="path3911-4"
       inkscape:connector-curvature="0"
       sodipodi:nodetypes="cc" />
    <path
       style="fill:none;stroke:#ffcc00;stroke-width:1px;stroke-linecap:round;stroke-linejoin:round;stroke-opacity:1"
       d="m 98.158576,1033.5583 13.020834,-28.0199"
       id="path3911-0"
       inkscape:connector-curvature="0"
       sodipodi:nodetypes="cc" />
    <path
       style="fill:none;stroke:#ffcc00;stroke-width:1px;stroke-linecap:round;stroke-linejoin:round;stroke-opacity:1"
       d="m 114.30984,1004.1916 25.27349,3.3091"
       id="path3911-8"
       inkscape:connector-curvature="0"
       sodipodi:nodetypes="cc" />
    <path
       style="fill:none;stroke:#ffcc00;stroke-width:1px;stroke-linecap:round;stroke-linejoin:round;stroke-opacity:1"
       d="m 114.0941,1006.1921 19.49964,23.4823"
       id="path3911-8-2"
       inkscape:connector-curvature="0"
       sodipodi:nodetypes="cc" />
    <path
       style="fill:none;stroke:#ffcc00;stroke-width:1px;stroke-linecap:round;stroke-linejoin:round;stroke-opacity:1"
       d="M 8.3491305,953.04479 21.09375,925.42482"
       id="path3911-2"
       inkscape:connector-curvature="0"
       sodipodi:nodetypes="cc" />
    <path
       style="fill:none;stroke:#ffcc00;stroke-width:1px;stroke-linecap:round;stroke-linejoin:round;stroke-opacity:1"
       d="m 24.250344,924.27529 25.473442,3.32493"
       id="path3911-2-2"
       inkscape:connector-curvature="0"
       sodipodi:nodetypes="cc" />
    <path
       style="fill:none;stroke:#ffcc00;stroke-width:1px;stroke-linecap:round;stroke-linejoin:round;stroke-opacity:1"
       d="M 36.521521,999.22789 46.87229,973.32569"
       id="path3911-3"
       inkscape:connector-curvature="0"
       sodipodi:nodetypes="cc" />
    <path
       style="fill:none;stroke:#ffcc00;stroke-width:1px;stroke-linecap:round;stroke-linejoin:round;stroke-opacity:1"
       d="M 78.298766,1020.2639 89.294033,994.63789"
       id="path3911-1"
       inkscape:connector-curvature="0"
       sodipodi:nodetypes="cc" />
    <path
       style="fill:none;stroke:#0000a2;stroke-width:1px;stroke-linecap:round;stroke-linejoin:round;stroke-opacity:1"
       d="m 38.541667,100 36.553115,18.01614"
       id="path4024"
       inkscape:connector-curvature="0"
       transform="translate(0,902.36215)"
       sodipodi:nodetypes="cc" />
    <path
       style="fill:none;stroke:#0000a2;stroke-width:1px;stroke-linecap:round;stroke-linejoin:round;stroke-opacity:1"
       d="M 50.520833,28.645833 35.44826,97.259081"
       id="path4026"
       inkscape:connector-curvature="0"
       transform="translate(0,902.36215)"
       sodipodi:nodetypes="cc" />
    <flowRoot
       xml:space="preserve"
       id="flowRoot4028"
       style="font-size:24px;font-style:normal;font-variant:normal;font-weight:normal;font-stretch:normal;text-align:center;line-height:125%;letter-spacing:0px;word-spacing:0px;text-anchor:middle;fill:#0000a2;fill-opacity:1;stroke:none;font-family:Gentium Basic;-inkscape-font-specification:Gentium Basic;stroke-linecap:round;stroke-linejoin:round"
       transform="translate(-6.25,900.0184)"><flowRegion
         id="flowRegion4030"><rect
           id="rect4032"
           width="38.020836"
           height="39.322914"
           x="20.052084"
           y="51.041668"
           style="text-align:center;text-anchor:middle;fill:#0000a2;fill-opacity:1;stroke-linecap:round;stroke-linejoin:round" /></flowRegion><flowPara
         id="flowPara4034"
         style="font-size:12px;text-align:center;text-anchor:middle;fill:#0000a2;fill-opacity:1;stroke-linecap:round;stroke-linejoin:round">x</flowPara></flowRoot>    <flowRoot
       xml:space="preserve"
       id="flowRoot4028-6"
       style="font-size:24px;font-style:normal;font-variant:normal;font-weight:normal;font-stretch:normal;text-align:center;line-height:125%;letter-spacing:0px;word-spacing:0px;text-anchor:middle;fill:#0000a2;fill-opacity:1;stroke:none;font-family:Gentium Basic;-inkscape-font-specification:Gentium Basic;stroke-linecap:round;stroke-linejoin:round"
       transform="translate(13.529948,960.43473)"><flowRegion
         id="flowRegion4030-6"><rect
           id="rect4032-8"
           width="38.020836"
           height="39.322914"
           x="20.052084"
           y="51.041668"
           style="text-align:center;text-anchor:middle;fill:#0000a2;fill-opacity:1;stroke-linecap:round;stroke-linejoin:round" /></flowRegion><flowPara
         id="flowPara4034-3"
         style="font-size:12px;text-align:center;text-anchor:middle;fill:#0000a2;fill-opacity:1;stroke-linecap:round;stroke-linejoin:round">x</flowPara></flowRoot>    <path
       style="fill:none;stroke:#ffcc00;stroke-width:1px;stroke-linecap:round;stroke-linejoin:round;stroke-opacity:1"
       d="m 64.300577,942.61232 37.576273,18.90255"
       id="path3911-2-2-6"
       inkscape:connector-curvature="0"
       sodipodi:nodetypes="cc" />
    <flowRoot
       xml:space="preserve"
       id="flowRoot4081"
       style="font-size:24px;font-style:normal;font-variant:normal;font-weight:normal;font-stretch:normal;line-height:125%;letter-spacing:0px;word-spacing:0px;fill:#ffcc00;fill-opacity:1;stroke:none;font-family:Gentium Basic;-inkscape-font-specification:Gentium Basic"
       transform="translate(252.28986,798.90905)"><flowRegion
         id="flowRegion4083"><rect
           id="rect4085"
           width="332.19287"
           height="111.95857"
           x="-167.93787"
           y="115.38123"
           style="fill:#ffcc00;fill-opacity:1" /></flowRegion><flowPara
         id="flowPara4087"
         style="font-size:12px">r(X) = 10</flowPara></flowRoot>    <flowRoot
       xml:space="preserve"
       id="flowRoot4081-6"
       style="font-size:24px;font-style:normal;font-variant:normal;font-weight:normal;font-stretch:normal;line-height:125%;letter-spacing:0px;word-spacing:0px;fill:#000000;fill-opacity:1;stroke:none;font-family:Gentium Basic;-inkscape-font-specification:Gentium Basic"
       transform="translate(172.73958,917.1831)"><flowRegion
         id="flowRegion4083-8"><rect
           id="rect4085-1"
           width="332.19287"
           height="111.95857"
           x="-167.93787"
           y="115.38123"
           style="fill:#000000;fill-opacity:1" /></flowRegion><flowPara
         id="flowPara4087-3"
         style="font-size:12px;fill:#000000;fill-opacity:1">r(X ∪ {<flowSpan
   style="fill:#0000a2;fill-opacity:1"
   id="flowSpan4116">x</flowSpan>}) = 10</flowPara></flowRoot>  </g>
</svg>
