<?xml version="1.0" encoding="UTF-8" standalone="no"?>
<!-- Created with Inkscape (http://www.inkscape.org/) -->

<svg
   xmlns:dc="http://purl.org/dc/elements/1.1/"
   xmlns:cc="http://creativecommons.org/ns#"
   xmlns:rdf="http://www.w3.org/1999/02/22-rdf-syntax-ns#"
   xmlns:svg="http://www.w3.org/2000/svg"
   xmlns="http://www.w3.org/2000/svg"
   xmlns:sodipodi="http://sodipodi.sourceforge.net/DTD/sodipodi-0.dtd"
   xmlns:inkscape="http://www.inkscape.org/namespaces/inkscape"
   width="150"
   height="150"
   id="svg2"
   version="1.1"
   inkscape:version="0.48.4 r9939"
   sodipodi:docname="r3_prime_example.svg">
  <defs
     id="defs4" />
  <sodipodi:namedview
     id="base"
     pagecolor="#ffffff"
     bordercolor="#666666"
     borderopacity="1.0"
     inkscape:pageopacity="0.0"
     inkscape:pageshadow="2"
     inkscape:zoom="21.72232"
     inkscape:cx="124.18583"
     inkscape:cy="26.751289"
     inkscape:document-units="px"
     inkscape:current-layer="layer1"
     showgrid="false"
     inkscape:window-width="1280"
     inkscape:window-height="753"
     inkscape:window-x="0"
     inkscape:window-y="25"
     inkscape:window-maximized="1" />
  <metadata
     id="metadata7">
    <rdf:RDF>
      <cc:Work
         rdf:about="">
        <dc:format>image/svg+xml</dc:format>
        <dc:type
           rdf:resource="http://purl.org/dc/dcmitype/StillImage" />
        <dc:title />
      </cc:Work>
    </rdf:RDF>
  </metadata>
  <g
     inkscape:label="Calque 1"
     inkscape:groupmode="layer"
     id="layer1"
     transform="translate(0,-902.36215)">
    <path
       sodipodi:type="arc"
       style="fill:#000000;stroke:none;stroke-width:0.50000000000000000;stroke-linecap:round;stroke-linejoin:round;stroke-miterlimit:4;stroke-opacity:1;stroke-dasharray:none;stroke-dashoffset:0;fill-opacity:1"
       id="path3753"
       sodipodi:cx="62.760418"
       sodipodi:cy="40.625"
       sodipodi:rx="1.3020834"
       sodipodi:ry="1.3020834"
       d="m 64.062501,40.625 c 0,0.719121 -0.582962,1.302083 -1.302083,1.302083 -0.719121,0 -1.302083,-0.582962 -1.302083,-1.302083 0,-0.719121 0.582962,-1.302083 1.302083,-1.302083 0.719121,0 1.302083,0.582962 1.302083,1.302083 z"
       transform="translate(0,902.36215)" />
    <path
       transform="translate(40,922.36215)"
       sodipodi:type="arc"
       style="fill:#000000;fill-opacity:1;stroke:none;stroke-linecap:round;stroke-linejoin:round"
       id="path3753-2"
       sodipodi:cx="62.760418"
       sodipodi:cy="40.625"
       sodipodi:rx="1.3020834"
       sodipodi:ry="1.3020834"
       d="m 64.062501,40.625 c 0,0.719121 -0.582962,1.302083 -1.302083,1.302083 -0.719121,0 -1.302083,-0.582962 -1.302083,-1.302083 0,-0.719121 0.582962,-1.302083 1.302083,-1.302083 0.719121,0 1.302083,0.582962 1.302083,1.302083 z" />
    <path
       transform="translate(-14,932.36215)"
       sodipodi:type="arc"
       style="fill:#000000;fill-opacity:1;stroke:none;stroke-linecap:round;stroke-linejoin:round"
       id="path3753-4"
       sodipodi:cx="62.760418"
       sodipodi:cy="40.625"
       sodipodi:rx="1.3020834"
       sodipodi:ry="1.3020834"
       d="m 64.062501,40.625 c 0,0.719121 -0.582962,1.302083 -1.302083,1.302083 -0.719121,0 -1.302083,-0.582962 -1.302083,-1.302083 0,-0.719121 0.582962,-1.302083 1.302083,-1.302083 0.719121,0 1.302083,0.582962 1.302083,1.302083 z" />
    <path
       transform="translate(26,952.36215)"
       sodipodi:type="arc"
       style="fill:#000000;fill-opacity:1;stroke:none;stroke-linecap:round;stroke-linejoin:round"
       id="path3753-2-0"
       sodipodi:cx="62.760418"
       sodipodi:cy="40.625"
       sodipodi:rx="1.3020834"
       sodipodi:ry="1.3020834"
       d="m 64.062501,40.625 c 0,0.719121 -0.582962,1.302083 -1.302083,1.302083 -0.719121,0 -1.302083,-0.582962 -1.302083,-1.302083 0,-0.719121 0.582962,-1.302083 1.302083,-1.302083 0.719121,0 1.302083,0.582962 1.302083,1.302083 z" />
    <path
       transform="translate(-26,960.36215)"
       sodipodi:type="arc"
       style="fill:#000000;fill-opacity:1;stroke:none;stroke-linecap:round;stroke-linejoin:round"
       id="path3753-4-1"
       sodipodi:cx="62.760418"
       sodipodi:cy="40.625"
       sodipodi:rx="1.3020834"
       sodipodi:ry="1.3020834"
       d="m 64.062501,40.625 c 0,0.719121 -0.582962,1.302083 -1.302083,1.302083 -0.719121,0 -1.302083,-0.582962 -1.302083,-1.302083 0,-0.719121 0.582962,-1.302083 1.302083,-1.302083 0.719121,0 1.302083,0.582962 1.302083,1.302083 z" />
    <path
       transform="translate(14,980.36215)"
       sodipodi:type="arc"
       style="fill:#000000;fill-opacity:1;stroke:none;stroke-linecap:round;stroke-linejoin:round"
       id="path3753-2-0-4"
       sodipodi:cx="62.760418"
       sodipodi:cy="40.625"
       sodipodi:rx="1.3020834"
       sodipodi:ry="1.3020834"
       d="m 64.062501,40.625 c 0,0.719121 -0.582962,1.302083 -1.302083,1.302083 -0.719121,0 -1.302083,-0.582962 -1.302083,-1.302083 0,-0.719121 0.582962,-1.302083 1.302083,-1.302083 0.719121,0 1.302083,0.582962 1.302083,1.302083 z" />
    <path
       style="fill:none;stroke:#000000;stroke-width:1px;stroke-linecap:round;stroke-linejoin:round;stroke-opacity:1"
       d="M 36.71875,98.697917 48.177083,70.3125 62.5,40.364583 l 40.10417,20.3125 -13.802087,30.46875 -11.979166,27.864587"
       id="path3815"
       inkscape:connector-curvature="0"
       transform="translate(0,902.36215)" />
    <path
       style="fill:none;stroke:#000000;stroke-width:1px;stroke-linecap:round;stroke-linejoin:round;stroke-opacity:1"
       d="M 88.802083,90.364583 48.4375,70.572917"
       id="path3817"
       inkscape:connector-curvature="0"
       transform="translate(0,902.36215)" />
    <path
       style="fill:none;stroke:#000000;stroke-width:1px;stroke-linecap:round;stroke-linejoin:round;stroke-opacity:1"
       d="M 102.60417,60.15625 48.4375,70.572917"
       id="path3819"
       inkscape:connector-curvature="0"
       transform="translate(0,902.36215)" />
    <path
       style="fill:none;stroke:#000000;stroke-width:1px;stroke-linecap:round;stroke-linejoin:round;stroke-opacity:1"
       d="M 62.239583,40.625 89.0625,90.885417"
       id="path3821"
       inkscape:connector-curvature="0"
       transform="translate(0,902.36215)" />
    <path
       transform="translate(-40,884.36215)"
       sodipodi:type="arc"
       style="fill:#000000;fill-opacity:1;stroke:none;stroke-linecap:round;stroke-linejoin:round"
       id="path3753-0"
       sodipodi:cx="62.760418"
       sodipodi:cy="40.625"
       sodipodi:rx="1.3020834"
       sodipodi:ry="1.3020834"
       d="m 64.062501,40.625 c 0,0.719121 -0.582962,1.302083 -1.302083,1.302083 -0.719121,0 -1.302083,-0.582962 -1.302083,-1.302083 0,-0.719121 0.582962,-1.302083 1.302083,-1.302083 0.719121,0 1.302083,0.582962 1.302083,1.302083 z" />
    <path
       transform="translate(-54,914.36215)"
       sodipodi:type="arc"
       style="fill:#000000;fill-opacity:1;stroke:none;stroke-linecap:round;stroke-linejoin:round"
       id="path3753-4-0"
       sodipodi:cx="62.760418"
       sodipodi:cy="40.625"
       sodipodi:rx="1.3020834"
       sodipodi:ry="1.3020834"
       d="m 64.062501,40.625 c 0,0.719121 -0.582962,1.302083 -1.302083,1.302083 -0.719121,0 -1.302083,-0.582962 -1.302083,-1.302083 0,-0.719121 0.582962,-1.302083 1.302083,-1.302083 0.719121,0 1.302083,0.582962 1.302083,1.302083 z" />
    <path
       transform="translate(-12,888.36215)"
       sodipodi:type="arc"
       style="fill:#000000;fill-opacity:1;stroke:none;stroke-linecap:round;stroke-linejoin:round"
       id="path3753-0-5"
       sodipodi:cx="62.760418"
       sodipodi:cy="40.625"
       sodipodi:rx="1.3020834"
       sodipodi:ry="1.3020834"
       d="m 64.062501,40.625 c 0,0.719121 -0.582962,1.302083 -1.302083,1.302083 -0.719121,0 -1.302083,-0.582962 -1.302083,-1.302083 0,-0.719121 0.582962,-1.302083 1.302083,-1.302083 0.719121,0 1.302083,0.582962 1.302083,1.302083 z" />
    <path
       style="fill:none;stroke:#000000;stroke-width:1px;stroke-linecap:round;stroke-linejoin:round;stroke-opacity:1"
       d="m 8.59375,52.34375 13.802083,-29.6875 28.125,3.645833 z"
       id="path3862"
       inkscape:connector-curvature="0"
       transform="translate(0,902.36215)" />
    <path
       transform="translate(50,964.36215)"
       sodipodi:type="arc"
       style="fill:#000000;fill-opacity:1;stroke:none;stroke-linecap:round;stroke-linejoin:round"
       id="path3753-0-4"
       sodipodi:cx="62.760418"
       sodipodi:cy="40.625"
       sodipodi:rx="1.3020834"
       sodipodi:ry="1.3020834"
       d="m 64.062501,40.625 c 0,0.719121 -0.582962,1.302083 -1.302083,1.302083 -0.719121,0 -1.302083,-0.582962 -1.302083,-1.302083 0,-0.719121 0.582962,-1.302083 1.302083,-1.302083 0.719121,0 1.302083,0.582962 1.302083,1.302083 z" />
    <path
       transform="translate(36,994.36215)"
       sodipodi:type="arc"
       style="fill:#000000;fill-opacity:1;stroke:none;stroke-linecap:round;stroke-linejoin:round"
       id="path3753-4-0-6"
       sodipodi:cx="62.760418"
       sodipodi:cy="40.625"
       sodipodi:rx="1.3020834"
       sodipodi:ry="1.3020834"
       d="m 64.062501,40.625 c 0,0.719121 -0.582962,1.302083 -1.302083,1.302083 -0.719121,0 -1.302083,-0.582962 -1.302083,-1.302083 0,-0.719121 0.582962,-1.302083 1.302083,-1.302083 0.719121,0 1.302083,0.582962 1.302083,1.302083 z" />
    <path
       transform="translate(78,968.36215)"
       sodipodi:type="arc"
       style="fill:#000000;fill-opacity:1;stroke:none;stroke-linecap:round;stroke-linejoin:round"
       id="path3753-0-5-8"
       sodipodi:cx="62.760418"
       sodipodi:cy="40.625"
       sodipodi:rx="1.3020834"
       sodipodi:ry="1.3020834"
       d="m 64.062501,40.625 c 0,0.719121 -0.582962,1.302083 -1.302083,1.302083 -0.719121,0 -1.302083,-0.582962 -1.302083,-1.302083 0,-0.719121 0.582962,-1.302083 1.302083,-1.302083 0.719121,0 1.302083,0.582962 1.302083,1.302083 z" />
    <path
       style="fill:none;stroke:#000000;stroke-width:1px;stroke-linecap:round;stroke-linejoin:round;stroke-opacity:1"
       d="m 98.59375,1034.7059 13.80208,-29.6875 28.125,3.6458"
       id="path3862-8"
       inkscape:connector-curvature="0"
       sodipodi:nodetypes="ccc" />
    <path
       style="fill:none;stroke:#000000;stroke-width:1px;stroke-linecap:round;stroke-linejoin:round;stroke-opacity:1"
       d="m 112.23958,102.86458 21.61459,26.04167 6.77083,-21.61458"
       id="path3891"
       inkscape:connector-curvature="0"
       transform="translate(0,902.36215)" />
    <path
       transform="translate(71.041663,990.62257)"
       sodipodi:type="arc"
       style="fill:#000000;fill-opacity:1;stroke:none;stroke-linecap:round;stroke-linejoin:round"
       id="path3753-0-5-8-1"
       sodipodi:cx="62.760418"
       sodipodi:cy="40.625"
       sodipodi:rx="1.3020834"
       sodipodi:ry="1.3020834"
       d="m 64.062501,40.625 c 0,0.719121 -0.582962,1.302083 -1.302083,1.302083 -0.719121,0 -1.302083,-0.582962 -1.302083,-1.302083 0,-0.719121 0.582962,-1.302083 1.302083,-1.302083 0.719121,0 1.302083,0.582962 1.302083,1.302083 z" />
    <path
       style="fill:none;stroke:#ffcc00;stroke-width:1px;stroke-linecap:round;stroke-linejoin:round;stroke-opacity:1"
       d="M 47.65625,971.40512 61.197917,943.50798"
       id="path3911"
       inkscape:connector-curvature="0"
       sodipodi:nodetypes="cc" />
    <path
       style="fill:none;stroke:#ffcc00;stroke-width:1px;stroke-linecap:round;stroke-linejoin:round;stroke-opacity:1"
       d="M 90.364584,992.33611 102.96224,964.66683"
       id="path3911-4"
       inkscape:connector-curvature="0"
       sodipodi:nodetypes="cc" />
    <path
       style="fill:none;stroke:#ffcc00;stroke-width:1px;stroke-linecap:round;stroke-linejoin:round;stroke-opacity:1"
       d="m 98.204612,1033.282 12.974798,-27.9277"
       id="path3911-0"
       inkscape:connector-curvature="0"
       sodipodi:nodetypes="cc" />
    <path
       style="fill:none;stroke:#ffcc00;stroke-width:1px;stroke-linecap:round;stroke-linejoin:round;stroke-opacity:1"
       d="m 114.21777,1004.2376 25.31952,3.3552"
       id="path3911-8"
       inkscape:connector-curvature="0"
       sodipodi:nodetypes="cc" />
    <path
       style="fill:none;stroke:#ffcc00;stroke-width:1px;stroke-linecap:round;stroke-linejoin:round;stroke-opacity:1"
       d="m 113.95599,1006.1001 19.36154,23.3441"
       id="path3911-8-2"
       inkscape:connector-curvature="0"
       sodipodi:nodetypes="cc" />
    <path
       style="fill:none;stroke:#ffcc00;stroke-width:1px;stroke-linecap:round;stroke-linejoin:round;stroke-opacity:1"
       d="M 8.3491305,953.13686 21.185821,925.51689"
       id="path3911-2"
       inkscape:connector-curvature="0"
       sodipodi:nodetypes="cc" />
    <path
       style="fill:none;stroke:#ffcc00;stroke-width:1px;stroke-linecap:round;stroke-linejoin:round;stroke-opacity:1"
       d="m 24.342415,924.36736 25.105158,3.23286"
       id="path3911-2-2"
       inkscape:connector-curvature="0"
       sodipodi:nodetypes="cc" />
    <path
       style="fill:none;stroke:#ffcc00;stroke-width:1px;stroke-linecap:round;stroke-linejoin:round;stroke-opacity:1"
       d="M 36.360677,999.26969 46.972656,973.16293"
       id="path3911-3"
       inkscape:connector-curvature="0"
       sodipodi:nodetypes="cc" />
    <path
       style="fill:none;stroke:#ffcc00;stroke-width:1px;stroke-linecap:round;stroke-linejoin:round;stroke-opacity:1"
       d="m 78.320313,1020.2983 11.10026,-25.7161"
       id="path3911-1"
       inkscape:connector-curvature="0"
       sodipodi:nodetypes="cc" />
    <path
       style="fill:none;stroke:#0000a2;stroke-width:1px;stroke-linecap:round;stroke-linejoin:round;stroke-opacity:1"
       d="m 87.04427,91.276041 -48.4375,7.389323"
       id="path4026"
       inkscape:connector-curvature="0"
       transform="translate(0,902.36215)"
       sodipodi:nodetypes="cc" />
    <flowRoot
       xml:space="preserve"
       id="flowRoot4028"
       style="font-size:24px;font-style:normal;font-variant:normal;font-weight:normal;font-stretch:normal;text-align:center;line-height:125%;letter-spacing:0px;word-spacing:0px;text-anchor:middle;fill:#0000a2;fill-opacity:1;stroke:none;font-family:Gentium Basic;-inkscape-font-specification:Gentium Basic"
       transform="translate(15.885417,947.67465)"><flowRegion
         id="flowRegion4030"><rect
           id="rect4032"
           width="38.020836"
           height="39.322914"
           x="20.052084"
           y="51.041668"
           style="text-align:center;text-anchor:middle;fill:#0000a2;fill-opacity:1" /></flowRegion><flowPara
         id="flowPara4034"
         style="font-size:12px;text-align:center;text-anchor:middle;fill:#0000a2;fill-opacity:1">x</flowPara></flowRoot>    <path
       style="fill:none;stroke:#ffcc00;stroke-width:1px;stroke-linecap:round;stroke-linejoin:round;stroke-opacity:1"
       d="m 64.453125,942.62908 37.272135,18.91276"
       id="path3911-2-2-6"
       inkscape:connector-curvature="0"
       sodipodi:nodetypes="cc" />
    <flowRoot
       xml:space="preserve"
       id="flowRoot4028-8"
       style="font-size:24px;font-style:normal;font-variant:normal;font-weight:normal;font-stretch:normal;text-align:center;line-height:125%;letter-spacing:0px;word-spacing:0px;text-anchor:middle;fill:#0000a2;fill-opacity:1;stroke:none;font-family:Gentium Basic;-inkscape-font-specification:Gentium Basic"
       transform="translate(78.373698,982.30973)"><flowRegion
         id="flowRegion4030-5"><rect
           id="rect4032-3"
           width="38.020836"
           height="39.322914"
           x="20.052084"
           y="51.041668"
           style="text-align:center;text-anchor:middle;fill:#0000a2;fill-opacity:1" /></flowRegion><flowPara
         id="flowPara4034-4"
         style="font-size:12px;text-align:center;text-anchor:middle;fill:#0000a2;fill-opacity:1">y</flowPara></flowRoot>    <path
       style="fill:none;stroke:#0000a2;stroke-width:1px;stroke-linecap:round;stroke-linejoin:round;stroke-opacity:1"
       d="m 132.09962,1031.659 -31.66296,3.1093"
       id="path4026-1"
       inkscape:connector-curvature="0"
       sodipodi:nodetypes="cc" />
    <flowRoot
       xml:space="preserve"
       id="flowRoot4028-0"
       style="font-size:24px;font-style:normal;font-variant:normal;font-weight:normal;font-stretch:normal;text-align:center;line-height:125%;letter-spacing:0px;word-spacing:0px;text-anchor:middle;fill:#0000a2;fill-opacity:1;stroke:none;font-family:Gentium Basic;-inkscape-font-specification:Gentium Basic"
       transform="translate(-23.970052,977.88265)"><flowRegion
         id="flowRegion4030-9"><rect
           id="rect4032-37"
           width="38.020836"
           height="39.322914"
           x="20.052084"
           y="51.041668"
           style="text-align:center;text-anchor:middle;fill:#0000a2;fill-opacity:1" /></flowRegion><flowPara
         id="flowPara4034-8"
         style="font-size:12px;text-align:center;text-anchor:middle;fill:#000000;fill-opacity:1">X</flowPara></flowRoot>  </g>
</svg>
