<?xml version="1.0" encoding="UTF-8" standalone="no"?>
<!-- Created with Inkscape (http://www.inkscape.org/) -->

<svg
   xmlns:dc="http://purl.org/dc/elements/1.1/"
   xmlns:cc="http://creativecommons.org/ns#"
   xmlns:rdf="http://www.w3.org/1999/02/22-rdf-syntax-ns#"
   xmlns:svg="http://www.w3.org/2000/svg"
   xmlns="http://www.w3.org/2000/svg"
   xmlns:sodipodi="http://sodipodi.sourceforge.net/DTD/sodipodi-0.dtd"
   xmlns:inkscape="http://www.inkscape.org/namespaces/inkscape"
   width="150"
   height="150"
   id="svg2"
   version="1.1"
   inkscape:version="0.48.4 r9939"
   sodipodi:docname="rank_example.svg">
  <defs
     id="defs4" />
  <sodipodi:namedview
     id="base"
     pagecolor="#ffffff"
     bordercolor="#666666"
     borderopacity="1.0"
     inkscape:pageopacity="0.0"
     inkscape:pageshadow="2"
     inkscape:zoom="2.71529"
     inkscape:cx="78.217536"
     inkscape:cy="77.506054"
     inkscape:document-units="px"
     inkscape:current-layer="layer1"
     showgrid="false"
     inkscape:window-width="1280"
     inkscape:window-height="753"
     inkscape:window-x="0"
     inkscape:window-y="25"
     inkscape:window-maximized="1" />
  <metadata
     id="metadata7">
    <rdf:RDF>
      <cc:Work
         rdf:about="">
        <dc:format>image/svg+xml</dc:format>
        <dc:type
           rdf:resource="http://purl.org/dc/dcmitype/StillImage" />
        <dc:title />
      </cc:Work>
    </rdf:RDF>
  </metadata>
  <g
     inkscape:label="Calque 1"
     inkscape:groupmode="layer"
     id="layer1"
     transform="translate(0,-902.36218)">
    <path
       style="fill:none;stroke:#ff0000;stroke-width:1px;stroke-linecap:butt;stroke-linejoin:miter;stroke-opacity:1"
       d="m 28.90625,26.5625 47.916667,1.822917"
       id="path3812"
       inkscape:connector-curvature="0"
       transform="translate(0,902.36218)" />
    <path
       style="fill:none;stroke:#ff0000;stroke-width:1px;stroke-linecap:butt;stroke-linejoin:miter;stroke-opacity:1"
       d="M 27.083333,68.75 129.16667,66.666667"
       id="path3816"
       inkscape:connector-curvature="0"
       transform="translate(0,902.36218)" />
    <path
       style="fill:none;stroke:#ff0000;stroke-width:1px;stroke-linecap:butt;stroke-linejoin:miter;stroke-opacity:1"
       d="m 22.65625,112.76042 56.510417,2.08333"
       id="path3822"
       inkscape:connector-curvature="0"
       transform="translate(0,902.36218)" />
    <path
       sodipodi:type="arc"
       style="fill:#000000;fill-opacity:1;stroke:none;stroke-width:0.50000000000000000;stroke-linecap:round;stroke-linejoin:round;stroke-miterlimit:4;stroke-opacity:1;stroke-dasharray:none;stroke-dashoffset:0"
       id="path2985"
       sodipodi:cx="27.864584"
       sodipodi:cy="27.083334"
       sodipodi:rx="3.125"
       sodipodi:ry="3.125"
       d="m 30.989584,27.083334 c 0,1.72589 -1.39911,3.125 -3.125,3.125 -1.72589,0 -3.125,-1.39911 -3.125,-3.125 0,-1.72589 1.39911,-3.125 3.125,-3.125 1.72589,0 3.125,1.39911 3.125,3.125 z"
       transform="translate(0,902.36218)" />
    <path
       transform="translate(48.958333,903.66426)"
       sodipodi:type="arc"
       style="fill:#000000;fill-opacity:1;stroke:none"
       id="path2985-3"
       sodipodi:cx="27.864584"
       sodipodi:cy="27.083334"
       sodipodi:rx="3.125"
       sodipodi:ry="3.125"
       d="m 30.989584,27.083334 c 0,1.72589 -1.39911,3.125 -3.125,3.125 -1.72589,0 -3.125,-1.39911 -3.125,-3.125 0,-1.72589 1.39911,-3.125 3.125,-3.125 1.72589,0 3.125,1.39911 3.125,3.125 z" />
    <path
       transform="translate(-2.3437506,942.72676)"
       sodipodi:type="arc"
       style="fill:#000000;fill-opacity:1;stroke:none"
       id="path2985-8"
       sodipodi:cx="27.864584"
       sodipodi:cy="27.083334"
       sodipodi:rx="3.125"
       sodipodi:ry="3.125"
       d="m 30.989584,27.083334 c 0,1.72589 -1.39911,3.125 -3.125,3.125 -1.72589,0 -3.125,-1.39911 -3.125,-3.125 0,-1.72589 1.39911,-3.125 3.125,-3.125 1.72589,0 3.125,1.39911 3.125,3.125 z" />
    <path
       transform="translate(-5.4687506,987.77885)"
       sodipodi:type="arc"
       style="fill:#000000;fill-opacity:1;stroke:none"
       id="path2985-5"
       sodipodi:cx="27.864584"
       sodipodi:cy="27.083334"
       sodipodi:rx="3.125"
       sodipodi:ry="3.125"
       d="m 30.989584,27.083334 c 0,1.72589 -1.39911,3.125 -3.125,3.125 -1.72589,0 -3.125,-1.39911 -3.125,-3.125 0,-1.72589 1.39911,-3.125 3.125,-3.125 1.72589,0 3.125,1.39911 3.125,3.125 z" />
    <path
       transform="translate(52.083333,989.86218)"
       sodipodi:type="arc"
       style="fill:#000000;fill-opacity:1;stroke:none"
       id="path2985-9"
       sodipodi:cx="27.864584"
       sodipodi:cy="27.083334"
       sodipodi:rx="3.125"
       sodipodi:ry="3.125"
       d="m 30.989584,27.083334 c 0,1.72589 -1.39911,3.125 -3.125,3.125 -1.72589,0 -3.125,-1.39911 -3.125,-3.125 0,-1.72589 1.39911,-3.125 3.125,-3.125 1.72589,0 3.125,1.39911 3.125,3.125 z" />
    <path
       transform="translate(102.08333,941.94551)"
       sodipodi:type="arc"
       style="fill:#000000;fill-opacity:1;stroke:none"
       id="path2985-53"
       sodipodi:cx="27.864584"
       sodipodi:cy="27.083334"
       sodipodi:rx="3.125"
       sodipodi:ry="3.125"
       d="m 30.989584,27.083334 c 0,1.72589 -1.39911,3.125 -3.125,3.125 -1.72589,0 -3.125,-1.39911 -3.125,-3.125 0,-1.72589 1.39911,-3.125 3.125,-3.125 1.72589,0 3.125,1.39911 3.125,3.125 z" />
    <path
       style="fill:none;stroke:#000000;stroke-width:1px;stroke-linecap:butt;stroke-linejoin:miter;stroke-opacity:1"
       d="M 80.208333,113.02083 76.822917,28.645833"
       id="path3808"
       inkscape:connector-curvature="0"
       transform="translate(0,902.36218)" />
    <path
       style="fill:none;stroke:#000000;stroke-width:1px;stroke-linecap:butt;stroke-linejoin:miter;stroke-opacity:1"
       d="M 28.125,27.864583 22.395833,111.19792"
       id="path3810"
       inkscape:connector-curvature="0"
       transform="translate(0,902.36218)" />
    <path
       style="fill:none;stroke:#000000;stroke-width:1px;stroke-linecap:butt;stroke-linejoin:miter;stroke-opacity:1"
       d="M 25,68.489583 76.822917,28.125"
       id="path3814"
       inkscape:connector-curvature="0"
       transform="translate(0,902.36218)" />
    <path
       style="fill:none;stroke:#000000;stroke-width:1px;stroke-linecap:butt;stroke-linejoin:miter;stroke-opacity:1"
       d="M 131.25,66.40625 76.822917,29.166667"
       id="path3818"
       inkscape:connector-curvature="0"
       transform="translate(0,902.36218)" />
    <path
       style="fill:none;stroke:#000000;stroke-width:1px;stroke-linecap:butt;stroke-linejoin:miter;stroke-opacity:1"
       d="M 129.94792,68.75 80.729167,115.10417"
       id="path3820"
       inkscape:connector-curvature="0"
       transform="translate(0,902.36218)" />
    <flowRoot
       xml:space="preserve"
       id="flowRoot3824"
       style="font-size:24px;font-style:normal;font-variant:normal;font-weight:normal;font-stretch:normal;text-align:center;line-height:125%;letter-spacing:0px;word-spacing:0px;text-anchor:middle;fill:#000000;fill-opacity:1;stroke:none;font-family:Gentium Basic;-inkscape-font-specification:Gentium Basic"
       transform="translate(-1.1354167,905.22676)"><flowRegion
         id="flowRegion3826"><rect
           id="rect3828"
           width="134.89583"
           height="83.333336"
           x="10.15625"
           y="121.61459"
           style="text-align:center;text-anchor:middle" /></flowRegion><flowPara
         id="flowPara3830"
         style="font-size:14px;text-align:center;text-anchor:middle">r(E) = 3          ρ(E) ≤ 2</flowPara></flowRoot>    <flowRoot
       xml:space="preserve"
       id="flowRoot3824-2"
       style="font-size:24px;font-style:normal;font-variant:normal;font-weight:normal;font-stretch:normal;text-align:center;line-height:125%;letter-spacing:0px;word-spacing:0px;text-anchor:middle;fill:#000000;fill-opacity:1;stroke:none;font-family:Gentium Basic;-inkscape-font-specification:Gentium Basic"
       transform="translate(47.846459,918.59763)"><flowRegion
         id="flowRegion3826-7"><rect
           id="rect3828-1"
           width="134.89583"
           height="83.333336"
           x="10.15625"
           y="121.61459"
           style="text-align:center;text-anchor:middle" /></flowRegion><flowPara
         id="flowPara3830-7"
         style="font-size:10px;text-align:center;text-anchor:middle">= 2</flowPara></flowRoot>  </g>
</svg>
