<?xml version="1.0" encoding="UTF-8" standalone="no"?>
<!-- Created with Inkscape (http://www.inkscape.org/) -->

<svg
   xmlns:dc="http://purl.org/dc/elements/1.1/"
   xmlns:cc="http://creativecommons.org/ns#"
   xmlns:rdf="http://www.w3.org/1999/02/22-rdf-syntax-ns#"
   xmlns:svg="http://www.w3.org/2000/svg"
   xmlns="http://www.w3.org/2000/svg"
   xmlns:sodipodi="http://sodipodi.sourceforge.net/DTD/sodipodi-0.dtd"
   xmlns:inkscape="http://www.inkscape.org/namespaces/inkscape"
   width="300"
   height="150"
   id="svg2"
   version="1.1"
   inkscape:version="0.48.4 r9939"
   sodipodi:docname="satz_5_8_proof.svg">
  <sodipodi:namedview
     id="base"
     pagecolor="#ffffff"
     bordercolor="#666666"
     borderopacity="1.0"
     inkscape:pageopacity="0.0"
     inkscape:pageshadow="2"
     inkscape:zoom="2.71529"
     inkscape:cx="146.47734"
     inkscape:cy="133.55308"
     inkscape:document-units="px"
     inkscape:current-layer="layer1"
     showgrid="false"
     inkscape:window-width="1680"
     inkscape:window-height="1003"
     inkscape:window-x="0"
     inkscape:window-y="25"
     inkscape:window-maximized="1" />
  <defs
     id="defs4">
    <marker
       style="overflow:visible"
       id="Arrow1Mend"
       refX="0"
       refY="0"
       orient="auto"
       inkscape:stockid="Arrow1Mend">
      <path
         transform="matrix(-0.4,0,0,-0.4,-4,0)"
         style="fill-rule:evenodd;stroke:#000000;stroke-width:1pt"
         d="M 0,0 5,-5 -12.5,0 5,5 0,0 z"
         id="path3768"
         inkscape:connector-curvature="0" />
    </marker>
    <marker
       style="overflow:visible"
       id="Arrow1Mend-0"
       refX="0"
       refY="0"
       orient="auto"
       inkscape:stockid="Arrow1Mend">
      <path
         transform="matrix(-0.4,0,0,-0.4,-4,0)"
         style="fill-rule:evenodd;stroke:#000000;stroke-width:1pt"
         d="M 0,0 5,-5 -12.5,0 5,5 0,0 z"
         id="path3768-5"
         inkscape:connector-curvature="0" />
    </marker>
    <marker
       style="overflow:visible"
       id="Arrow1Mend-3"
       refX="0"
       refY="0"
       orient="auto"
       inkscape:stockid="Arrow1Mend">
      <path
         transform="matrix(-0.4,0,0,-0.4,-4,0)"
         style="fill-rule:evenodd;stroke:#000000;stroke-width:1pt"
         d="M 0,0 5,-5 -12.5,0 5,5 0,0 z"
         id="path3768-6"
         inkscape:connector-curvature="0" />
    </marker>
    <marker
       style="overflow:visible"
       id="Arrow1Mend-9"
       refX="0"
       refY="0"
       orient="auto"
       inkscape:stockid="Arrow1Mend">
      <path
         transform="matrix(-0.4,0,0,-0.4,-4,0)"
         style="fill-rule:evenodd;stroke:#000000;stroke-width:1pt"
         d="M 0,0 5,-5 -12.5,0 5,5 0,0 z"
         id="path3768-3"
         inkscape:connector-curvature="0" />
    </marker>
    <marker
       style="overflow:visible"
       id="Arrow1Mend-6"
       refX="0"
       refY="0"
       orient="auto"
       inkscape:stockid="Arrow1Mend">
      <path
         transform="matrix(-0.4,0,0,-0.4,-4,0)"
         style="fill-rule:evenodd;stroke:#000000;stroke-width:1pt"
         d="M 0,0 5,-5 -12.5,0 5,5 0,0 z"
         id="path3768-1"
         inkscape:connector-curvature="0" />
    </marker>
    <marker
       style="overflow:visible"
       id="Arrow1Mend-7"
       refX="0"
       refY="0"
       orient="auto"
       inkscape:stockid="Arrow1Mend">
      <path
         transform="matrix(-0.4,0,0,-0.4,-4,0)"
         style="fill-rule:evenodd;stroke:#000000;stroke-width:1pt"
         d="M 0,0 5,-5 -12.5,0 5,5 0,0 z"
         id="path3768-55"
         inkscape:connector-curvature="0" />
    </marker>
    <marker
       style="overflow:visible"
       id="Arrow1Mend-8"
       refX="0"
       refY="0"
       orient="auto"
       inkscape:stockid="Arrow1Mend">
      <path
         transform="matrix(-0.4,0,0,-0.4,-4,0)"
         style="fill-rule:evenodd;stroke:#000000;stroke-width:1pt"
         d="M 0,0 5,-5 -12.5,0 5,5 0,0 z"
         id="path3768-18"
         inkscape:connector-curvature="0" />
    </marker>
    <marker
       style="overflow:visible"
       id="Arrow1Mend-84"
       refX="0"
       refY="0"
       orient="auto"
       inkscape:stockid="Arrow1Mend">
      <path
         transform="matrix(-0.4,0,0,-0.4,-4,0)"
         style="fill-rule:evenodd;stroke:#000000;stroke-width:1pt"
         d="M 0,0 5,-5 -12.5,0 5,5 0,0 z"
         id="path3768-64"
         inkscape:connector-curvature="0" />
    </marker>
    <marker
       style="overflow:visible"
       id="Arrow1Mend-69"
       refX="0"
       refY="0"
       orient="auto"
       inkscape:stockid="Arrow1Mend">
      <path
         transform="matrix(-0.4,0,0,-0.4,-4,0)"
         style="fill-rule:evenodd;stroke:#000000;stroke-width:1pt"
         d="M 0,0 5,-5 -12.5,0 5,5 0,0 z"
         id="path3768-7"
         inkscape:connector-curvature="0" />
    </marker>
    <marker
       style="overflow:visible"
       id="Arrow1Mendy"
       refX="0"
       refY="0"
       orient="auto"
       inkscape:stockid="Arrow1Mendy">
      <path
         transform="matrix(-0.4,0,0,-0.4,-4,0)"
         style="fill:#0000a8;fill-rule:evenodd;stroke:#0000a8;stroke-width:1pt"
         d="M 0,0 5,-5 -12.5,0 5,5 0,0 z"
         id="path4612"
         inkscape:connector-curvature="0" />
    </marker>
    <marker
       style="overflow:visible"
       id="Arrow1Mendz"
       refX="0"
       refY="0"
       orient="auto"
       inkscape:stockid="Arrow1Mendz">
      <path
         transform="matrix(-0.4,0,0,-0.4,-4,0)"
         style="fill:#0000a8;fill-rule:evenodd;stroke:#0000a8;stroke-width:1pt"
         d="M 0,0 5,-5 -12.5,0 5,5 0,0 z"
         id="path4615"
         inkscape:connector-curvature="0" />
    </marker>
    <marker
       style="overflow:visible"
       id="Arrow1Mendb"
       refX="0"
       refY="0"
       orient="auto"
       inkscape:stockid="Arrow1Mendb">
      <path
         transform="matrix(-0.4,0,0,-0.4,-4,0)"
         style="fill:#0000a8;fill-rule:evenodd;stroke:#0000a8;stroke-width:1pt"
         d="M 0,0 5,-5 -12.5,0 5,5 0,0 z"
         id="path4618"
         inkscape:connector-curvature="0" />
    </marker>
    <marker
       style="overflow:visible"
       id="Arrow1Mend3"
       refX="0"
       refY="0"
       orient="auto"
       inkscape:stockid="Arrow1Mend3">
      <path
         transform="matrix(-0.4,0,0,-0.4,-4,0)"
         style="fill:#0000a8;fill-rule:evenodd;stroke:#0000a8;stroke-width:1pt"
         d="M 0,0 5,-5 -12.5,0 5,5 0,0 z"
         id="path4621"
         inkscape:connector-curvature="0" />
    </marker>
    <marker
       style="overflow:visible"
       id="Arrow1Mendx"
       refX="0"
       refY="0"
       orient="auto"
       inkscape:stockid="Arrow1Mendx">
      <path
         transform="matrix(-0.4,0,0,-0.4,-4,0)"
         style="fill:#0000a8;fill-rule:evenodd;stroke:#0000a8;stroke-width:1pt"
         d="M 0,0 5,-5 -12.5,0 5,5 0,0 z"
         id="path4624"
         inkscape:connector-curvature="0" />
    </marker>
    <marker
       style="overflow:visible"
       id="Arrow1Mendt"
       refX="0"
       refY="0"
       orient="auto"
       inkscape:stockid="Arrow1Mendt">
      <path
         transform="matrix(-0.4,0,0,-0.4,-4,0)"
         style="fill:#0000a8;fill-rule:evenodd;stroke:#0000a8;stroke-width:1pt"
         d="M 0,0 5,-5 -12.5,0 5,5 0,0 z"
         id="path4627"
         inkscape:connector-curvature="0" />
    </marker>
    <marker
       style="overflow:visible"
       id="Arrow1MendI"
       refX="0"
       refY="0"
       orient="auto"
       inkscape:stockid="Arrow1MendI">
      <path
         transform="matrix(-0.4,0,0,-0.4,-4,0)"
         style="fill:#0000a8;fill-rule:evenodd;stroke:#0000a8;stroke-width:1pt"
         d="M 0,0 5,-5 -12.5,0 5,5 0,0 z"
         id="path4630"
         inkscape:connector-curvature="0" />
    </marker>
    <marker
       style="overflow:visible"
       id="Arrow1Mend-69h"
       refX="0"
       refY="0"
       orient="auto"
       inkscape:stockid="Arrow1Mend-69h">
      <path
         transform="matrix(-0.4,0,0,-0.4,-4,0)"
         style="fill:#0000a8;fill-rule:evenodd;stroke:#0000a8;stroke-width:1pt"
         d="M 0,0 5,-5 -12.5,0 5,5 0,0 z"
         id="path4633"
         inkscape:connector-curvature="0" />
    </marker>
    <marker
       style="overflow:visible"
       id="Arrow1Mend5"
       refX="0"
       refY="0"
       orient="auto"
       inkscape:stockid="Arrow1Mend5">
      <path
         transform="matrix(-0.4,0,0,-0.4,-4,0)"
         style="fill:#0000a8;fill-rule:evenodd;stroke:#0000a8;stroke-width:1pt"
         d="M 0,0 5,-5 -12.5,0 5,5 0,0 z"
         id="path4636"
         inkscape:connector-curvature="0" />
    </marker>
    <marker
       style="overflow:visible"
       id="Arrow1Mendc"
       refX="0"
       refY="0"
       orient="auto"
       inkscape:stockid="Arrow1Mendc">
      <path
         transform="matrix(-0.4,0,0,-0.4,-4,0)"
         style="fill:#0000a8;fill-rule:evenodd;stroke:#0000a8;stroke-width:1pt"
         d="M 0,0 5,-5 -12.5,0 5,5 0,0 z"
         id="path4639"
         inkscape:connector-curvature="0" />
    </marker>
    <marker
       style="overflow:visible"
       id="Arrow1Mend-69-0"
       refX="0"
       refY="0"
       orient="auto"
       inkscape:stockid="Arrow1Mend">
      <path
         transform="matrix(-0.4,0,0,-0.4,-4,0)"
         style="fill-rule:evenodd;stroke:#000000;stroke-width:1pt"
         d="M 0,0 5,-5 -12.5,0 5,5 0,0 z"
         id="path3768-7-6"
         inkscape:connector-curvature="0" />
    </marker>
    <marker
       style="overflow:visible"
       id="Arrow1Mend-69-5"
       refX="0"
       refY="0"
       orient="auto"
       inkscape:stockid="Arrow1Mend">
      <path
         transform="matrix(-0.4,0,0,-0.4,-4,0)"
         style="fill-rule:evenodd;stroke:#000000;stroke-width:1pt"
         d="M 0,0 5,-5 -12.5,0 5,5 0,0 z"
         id="path3768-7-2"
         inkscape:connector-curvature="0" />
    </marker>
    <marker
       style="overflow:visible"
       id="Arrow1Mend-69-1"
       refX="0"
       refY="0"
       orient="auto"
       inkscape:stockid="Arrow1Mend">
      <path
         transform="matrix(-0.4,0,0,-0.4,-4,0)"
         style="fill-rule:evenodd;stroke:#000000;stroke-width:1pt"
         d="M 0,0 5,-5 -12.5,0 5,5 0,0 z"
         id="path3768-7-7"
         inkscape:connector-curvature="0" />
    </marker>
    <marker
       style="overflow:visible"
       id="Arrow1Mend-69-7"
       refX="0"
       refY="0"
       orient="auto"
       inkscape:stockid="Arrow1Mend">
      <path
         transform="matrix(-0.4,0,0,-0.4,-4,0)"
         style="fill-rule:evenodd;stroke:#000000;stroke-width:1pt"
         d="M 0,0 5,-5 -12.5,0 5,5 0,0 z"
         id="path3768-7-9"
         inkscape:connector-curvature="0" />
    </marker>
    <marker
       style="overflow:visible"
       id="Arrow1Mend-69-8"
       refX="0"
       refY="0"
       orient="auto"
       inkscape:stockid="Arrow1Mend">
      <path
         transform="matrix(-0.4,0,0,-0.4,-4,0)"
         style="fill-rule:evenodd;stroke:#000000;stroke-width:1pt"
         d="M 0,0 5,-5 -12.5,0 5,5 0,0 z"
         id="path3768-7-3"
         inkscape:connector-curvature="0" />
    </marker>
    <marker
       style="overflow:visible"
       id="Arrow1Mend-69-4"
       refX="0"
       refY="0"
       orient="auto"
       inkscape:stockid="Arrow1Mend">
      <path
         transform="matrix(-0.4,0,0,-0.4,-4,0)"
         style="fill-rule:evenodd;stroke:#000000;stroke-width:1pt"
         d="M 0,0 5,-5 -12.5,0 5,5 0,0 z"
         id="path3768-7-1"
         inkscape:connector-curvature="0" />
    </marker>
    <marker
       style="overflow:visible"
       id="Arrow1Mend-69-42"
       refX="0"
       refY="0"
       orient="auto"
       inkscape:stockid="Arrow1Mend">
      <path
         transform="matrix(-0.4,0,0,-0.4,-4,0)"
         style="fill-rule:evenodd;stroke:#000000;stroke-width:1pt"
         d="M 0,0 5,-5 -12.5,0 5,5 0,0 z"
         id="path3768-7-34"
         inkscape:connector-curvature="0" />
    </marker>
    <marker
       style="overflow:visible"
       id="Arrow1Mend-69-9"
       refX="0"
       refY="0"
       orient="auto"
       inkscape:stockid="Arrow1Mend">
      <path
         transform="matrix(-0.4,0,0,-0.4,-4,0)"
         style="fill-rule:evenodd;stroke:#000000;stroke-width:1pt"
         d="M 0,0 5,-5 -12.5,0 5,5 0,0 z"
         id="path3768-7-26"
         inkscape:connector-curvature="0" />
    </marker>
    <marker
       style="overflow:visible"
       id="Arrow1Mend-69-9-8"
       refX="0"
       refY="0"
       orient="auto"
       inkscape:stockid="Arrow1Mend">
      <path
         transform="matrix(-0.4,0,0,-0.4,-4,0)"
         style="fill-rule:evenodd;stroke:#000000;stroke-width:1pt"
         d="M 0,0 5,-5 -12.5,0 5,5 0,0 z"
         id="path3768-7-26-6"
         inkscape:connector-curvature="0" />
    </marker>
    <marker
       style="overflow:visible"
       id="Arrow1Mend-69-9-9"
       refX="0"
       refY="0"
       orient="auto"
       inkscape:stockid="Arrow1Mend">
      <path
         transform="matrix(-0.4,0,0,-0.4,-4,0)"
         style="fill-rule:evenodd;stroke:#000000;stroke-width:1pt"
         d="M 0,0 5,-5 -12.5,0 5,5 0,0 z"
         id="path3768-7-26-61"
         inkscape:connector-curvature="0" />
    </marker>
    <marker
       style="overflow:visible"
       id="Arrow1Mend-69-9-3"
       refX="0"
       refY="0"
       orient="auto"
       inkscape:stockid="Arrow1Mend">
      <path
         transform="matrix(-0.4,0,0,-0.4,-4,0)"
         style="fill-rule:evenodd;stroke:#000000;stroke-width:1pt"
         d="M 0,0 5,-5 -12.5,0 5,5 0,0 z"
         id="path3768-7-26-3"
         inkscape:connector-curvature="0" />
    </marker>
    <marker
       style="overflow:visible"
       id="Arrow1Mend-69-9-6"
       refX="0"
       refY="0"
       orient="auto"
       inkscape:stockid="Arrow1Mend">
      <path
         transform="matrix(-0.4,0,0,-0.4,-4,0)"
         style="fill-rule:evenodd;stroke:#000000;stroke-width:1pt"
         d="M 0,0 5,-5 -12.5,0 5,5 0,0 z"
         id="path3768-7-26-2"
         inkscape:connector-curvature="0" />
    </marker>
    <marker
       style="overflow:visible"
       id="Arrow1Mend-69-9-34"
       refX="0"
       refY="0"
       orient="auto"
       inkscape:stockid="Arrow1Mend">
      <path
         transform="matrix(-0.4,0,0,-0.4,-4,0)"
         style="fill-rule:evenodd;stroke:#000000;stroke-width:1pt"
         d="M 0,0 5,-5 -12.5,0 5,5 0,0 z"
         id="path3768-7-26-8"
         inkscape:connector-curvature="0" />
    </marker>
    <marker
       style="overflow:visible"
       id="Arrow1Mend-69-9-7"
       refX="0"
       refY="0"
       orient="auto"
       inkscape:stockid="Arrow1Mend">
      <path
         transform="matrix(-0.4,0,0,-0.4,-4,0)"
         style="fill-rule:evenodd;stroke:#000000;stroke-width:1pt"
         d="M 0,0 5,-5 -12.5,0 5,5 0,0 z"
         id="path3768-7-26-20"
         inkscape:connector-curvature="0" />
    </marker>
    <marker
       style="overflow:visible"
       id="Arrow1Mend-69-9-74"
       refX="0"
       refY="0"
       orient="auto"
       inkscape:stockid="Arrow1Mend">
      <path
         transform="matrix(-0.4,0,0,-0.4,-4,0)"
         style="fill-rule:evenodd;stroke:#000000;stroke-width:1pt"
         d="M 0,0 5,-5 -12.5,0 5,5 0,0 z"
         id="path3768-7-26-4"
         inkscape:connector-curvature="0" />
    </marker>
    <marker
       style="overflow:visible"
       id="Arrow1Mend-69-9p"
       refX="0"
       refY="0"
       orient="auto"
       inkscape:stockid="Arrow1Mend-69-9p">
      <path
         transform="matrix(-0.4,0,0,-0.4,-4,0)"
         style="fill:#008100;fill-rule:evenodd;stroke:#008100;stroke-width:1pt"
         d="M 0,0 5,-5 -12.5,0 5,5 0,0 z"
         id="path5593"
         inkscape:connector-curvature="0" />
    </marker>
    <marker
       style="overflow:visible"
       id="Arrow1Mend-69-9R"
       refX="0"
       refY="0"
       orient="auto"
       inkscape:stockid="Arrow1Mend-69-9R">
      <path
         transform="matrix(-0.4,0,0,-0.4,-4,0)"
         style="fill:#008100;fill-rule:evenodd;stroke:#008100;stroke-width:1pt"
         d="M 0,0 5,-5 -12.5,0 5,5 0,0 z"
         id="path5596"
         inkscape:connector-curvature="0" />
    </marker>
    <marker
       style="overflow:visible"
       id="Arrow1Mend-69-9y"
       refX="0"
       refY="0"
       orient="auto"
       inkscape:stockid="Arrow1Mend-69-9y">
      <path
         transform="matrix(-0.4,0,0,-0.4,-4,0)"
         style="fill:#008100;fill-rule:evenodd;stroke:#008100;stroke-width:1pt"
         d="M 0,0 5,-5 -12.5,0 5,5 0,0 z"
         id="path5599"
         inkscape:connector-curvature="0" />
    </marker>
    <marker
       style="overflow:visible"
       id="Arrow1Mend-69-9g"
       refX="0"
       refY="0"
       orient="auto"
       inkscape:stockid="Arrow1Mend-69-9g">
      <path
         transform="matrix(-0.4,0,0,-0.4,-4,0)"
         style="fill:#008100;fill-rule:evenodd;stroke:#008100;stroke-width:1pt"
         d="M 0,0 5,-5 -12.5,0 5,5 0,0 z"
         id="path5602"
         inkscape:connector-curvature="0" />
    </marker>
    <marker
       style="overflow:visible"
       id="Arrow1Mend-69-95"
       refX="0"
       refY="0"
       orient="auto"
       inkscape:stockid="Arrow1Mend-69-95">
      <path
         transform="matrix(-0.4,0,0,-0.4,-4,0)"
         style="fill:#008100;fill-rule:evenodd;stroke:#008100;stroke-width:1pt"
         d="M 0,0 5,-5 -12.5,0 5,5 0,0 z"
         id="path5605"
         inkscape:connector-curvature="0" />
    </marker>
    <marker
       style="overflow:visible"
       id="Arrow1Mend-69-9Y"
       refX="0"
       refY="0"
       orient="auto"
       inkscape:stockid="Arrow1Mend-69-9Y">
      <path
         transform="matrix(-0.4,0,0,-0.4,-4,0)"
         style="fill:#008100;fill-rule:evenodd;stroke:#008100;stroke-width:1pt"
         d="M 0,0 5,-5 -12.5,0 5,5 0,0 z"
         id="path5608"
         inkscape:connector-curvature="0" />
    </marker>
    <marker
       style="overflow:visible"
       id="Arrow1Mend-69-9e"
       refX="0"
       refY="0"
       orient="auto"
       inkscape:stockid="Arrow1Mend-69-9e">
      <path
         transform="matrix(-0.4,0,0,-0.4,-4,0)"
         style="fill:#008100;fill-rule:evenodd;stroke:#008100;stroke-width:1pt"
         d="M 0,0 5,-5 -12.5,0 5,5 0,0 z"
         id="path5611"
         inkscape:connector-curvature="0" />
    </marker>
    <marker
       style="overflow:visible"
       id="Arrow1Mend-69-9r"
       refX="0"
       refY="0"
       orient="auto"
       inkscape:stockid="Arrow1Mend-69-9r">
      <path
         transform="matrix(-0.4,0,0,-0.4,-4,0)"
         style="fill:#008100;fill-rule:evenodd;stroke:#008100;stroke-width:1pt"
         d="M 0,0 5,-5 -12.5,0 5,5 0,0 z"
         id="path5614"
         inkscape:connector-curvature="0" />
    </marker>
    <marker
       style="overflow:visible"
       id="Arrow1Mend-69-9y-0"
       refX="0"
       refY="0"
       orient="auto"
       inkscape:stockid="Arrow1Mend-69-9y">
      <path
         transform="matrix(-0.4,0,0,-0.4,-4,0)"
         style="fill:#008100;fill-rule:evenodd;stroke:#008100;stroke-width:1pt"
         d="M 0,0 5,-5 -12.5,0 5,5 0,0 z"
         id="path5599-6"
         inkscape:connector-curvature="0" />
    </marker>
    <marker
       style="overflow:visible"
       id="Arrow1Mend-69-95-2"
       refX="0"
       refY="0"
       orient="auto"
       inkscape:stockid="Arrow1Mend-69-95">
      <path
         transform="matrix(-0.4,0,0,-0.4,-4,0)"
         style="fill:#008100;fill-rule:evenodd;stroke:#008100;stroke-width:1pt"
         d="M 0,0 5,-5 -12.5,0 5,5 0,0 z"
         id="path5605-3"
         inkscape:connector-curvature="0" />
    </marker>
    <marker
       style="overflow:visible"
       id="Arrow1Mend-69h-9"
       refX="0"
       refY="0"
       orient="auto"
       inkscape:stockid="Arrow1Mend-69h">
      <path
         transform="matrix(-0.4,0,0,-0.4,-4,0)"
         style="fill:#0000a8;fill-rule:evenodd;stroke:#0000a8;stroke-width:1pt"
         d="M 0,0 5,-5 -12.5,0 5,5 0,0 z"
         id="path4633-7"
         inkscape:connector-curvature="0" />
    </marker>
    <marker
       style="overflow:visible"
       id="Arrow1Mendz-0"
       refX="0"
       refY="0"
       orient="auto"
       inkscape:stockid="Arrow1Mendz">
      <path
         transform="matrix(-0.4,0,0,-0.4,-4,0)"
         style="fill:#0000a8;fill-rule:evenodd;stroke:#0000a8;stroke-width:1pt"
         d="M 0,0 5,-5 -12.5,0 5,5 0,0 z"
         id="path4615-5"
         inkscape:connector-curvature="0" />
    </marker>
    <marker
       style="overflow:visible"
       id="Arrow1Mend5-0"
       refX="0"
       refY="0"
       orient="auto"
       inkscape:stockid="Arrow1Mend5">
      <path
         transform="matrix(-0.4,0,0,-0.4,-4,0)"
         style="fill:#0000a8;fill-rule:evenodd;stroke:#0000a8;stroke-width:1pt"
         d="M 0,0 5,-5 -12.5,0 5,5 0,0 z"
         id="path4636-6"
         inkscape:connector-curvature="0" />
    </marker>
    <marker
       style="overflow:visible"
       id="Arrow1Mendx-9"
       refX="0"
       refY="0"
       orient="auto"
       inkscape:stockid="Arrow1Mendx">
      <path
         transform="matrix(-0.4,0,0,-0.4,-4,0)"
         style="fill:#0000a8;fill-rule:evenodd;stroke:#0000a8;stroke-width:1pt"
         d="M 0,0 5,-5 -12.5,0 5,5 0,0 z"
         id="path4624-2"
         inkscape:connector-curvature="0" />
    </marker>
    <marker
       style="overflow:visible"
       id="Arrow1Mendy-2"
       refX="0"
       refY="0"
       orient="auto"
       inkscape:stockid="Arrow1Mendy">
      <path
         transform="matrix(-0.4,0,0,-0.4,-4,0)"
         style="fill:#0000a8;fill-rule:evenodd;stroke:#0000a8;stroke-width:1pt"
         d="M 0,0 5,-5 -12.5,0 5,5 0,0 z"
         id="path4612-3"
         inkscape:connector-curvature="0" />
    </marker>
    <marker
       style="overflow:visible"
       id="Arrow1Mendc-0"
       refX="0"
       refY="0"
       orient="auto"
       inkscape:stockid="Arrow1Mendc">
      <path
         transform="matrix(-0.4,0,0,-0.4,-4,0)"
         style="fill:#0000a8;fill-rule:evenodd;stroke:#0000a8;stroke-width:1pt"
         d="M 0,0 5,-5 -12.5,0 5,5 0,0 z"
         id="path4639-6"
         inkscape:connector-curvature="0" />
    </marker>
    <marker
       style="overflow:visible"
       id="Arrow1Mendb-1"
       refX="0"
       refY="0"
       orient="auto"
       inkscape:stockid="Arrow1Mendb">
      <path
         transform="matrix(-0.4,0,0,-0.4,-4,0)"
         style="fill:#0000a8;fill-rule:evenodd;stroke:#0000a8;stroke-width:1pt"
         d="M 0,0 5,-5 -12.5,0 5,5 0,0 z"
         id="path4618-4"
         inkscape:connector-curvature="0" />
    </marker>
    <marker
       style="overflow:visible"
       id="Arrow1MendI-6"
       refX="0"
       refY="0"
       orient="auto"
       inkscape:stockid="Arrow1MendI">
      <path
         transform="matrix(-0.4,0,0,-0.4,-4,0)"
         style="fill:#0000a8;fill-rule:evenodd;stroke:#0000a8;stroke-width:1pt"
         d="M 0,0 5,-5 -12.5,0 5,5 0,0 z"
         id="path4630-3"
         inkscape:connector-curvature="0" />
    </marker>
    <marker
       style="overflow:visible"
       id="Arrow1Mend3-3"
       refX="0"
       refY="0"
       orient="auto"
       inkscape:stockid="Arrow1Mend3">
      <path
         transform="matrix(-0.4,0,0,-0.4,-4,0)"
         style="fill:#0000a8;fill-rule:evenodd;stroke:#0000a8;stroke-width:1pt"
         d="M 0,0 5,-5 -12.5,0 5,5 0,0 z"
         id="path4621-2"
         inkscape:connector-curvature="0" />
    </marker>
    <marker
       style="overflow:visible"
       id="Arrow1Mendt-8"
       refX="0"
       refY="0"
       orient="auto"
       inkscape:stockid="Arrow1Mendt">
      <path
         transform="matrix(-0.4,0,0,-0.4,-4,0)"
         style="fill:#0000a8;fill-rule:evenodd;stroke:#0000a8;stroke-width:1pt"
         d="M 0,0 5,-5 -12.5,0 5,5 0,0 z"
         id="path4627-5"
         inkscape:connector-curvature="0" />
    </marker>
    <marker
       style="overflow:visible"
       id="Arrow1Mend-69h-9i"
       refX="0"
       refY="0"
       orient="auto"
       inkscape:stockid="Arrow1Mend-69h-9i">
      <path
         transform="matrix(-0.4,0,0,-0.4,-4,0)"
         style="fill:#ff0000;fill-rule:evenodd;stroke:#ff0000;stroke-width:1pt"
         d="M 0,0 5,-5 -12.5,0 5,5 0,0 z"
         id="path6374"
         inkscape:connector-curvature="0" />
    </marker>
    <marker
       style="overflow:visible"
       id="Arrow1Mend5-0q"
       refX="0"
       refY="0"
       orient="auto"
       inkscape:stockid="Arrow1Mend5-0q">
      <path
         transform="matrix(-0.4,0,0,-0.4,-4,0)"
         style="fill:#0000a8;fill-rule:evenodd;stroke:#0000a8;stroke-width:1pt"
         d="M 0,0 5,-5 -12.5,0 5,5 0,0 z"
         id="path6985"
         inkscape:connector-curvature="0" />
    </marker>
    <marker
       style="overflow:visible"
       id="Arrow1Mend5-0d"
       refX="0"
       refY="0"
       orient="auto"
       inkscape:stockid="Arrow1Mend5-0d">
      <path
         transform="matrix(-0.4,0,0,-0.4,-4,0)"
         style="fill:#0000a8;fill-rule:evenodd;stroke:#0000a8;stroke-width:1pt"
         d="M 0,0 5,-5 -12.5,0 5,5 0,0 z"
         id="path6988"
         inkscape:connector-curvature="0" />
    </marker>
    <marker
       style="overflow:visible"
       id="Arrow1Mend5-0B"
       refX="0"
       refY="0"
       orient="auto"
       inkscape:stockid="Arrow1Mend5-0B">
      <path
         transform="matrix(-0.4,0,0,-0.4,-4,0)"
         style="fill:#0000a8;fill-rule:evenodd;stroke:#0000a8;stroke-width:1pt"
         d="M 0,0 5,-5 -12.5,0 5,5 0,0 z"
         id="path6991"
         inkscape:connector-curvature="0" />
    </marker>
    <marker
       style="overflow:visible"
       id="Arrow1Mend5-0N"
       refX="0"
       refY="0"
       orient="auto"
       inkscape:stockid="Arrow1Mend5-0N">
      <path
         transform="matrix(-0.4,0,0,-0.4,-4,0)"
         style="fill:#0000a8;fill-rule:evenodd;stroke:#0000a8;stroke-width:1pt"
         d="M 0,0 5,-5 -12.5,0 5,5 0,0 z"
         id="path6994"
         inkscape:connector-curvature="0" />
    </marker>
    <marker
       style="overflow:visible"
       id="Arrow1Mend5-0J"
       refX="0"
       refY="0"
       orient="auto"
       inkscape:stockid="Arrow1Mend5-0J">
      <path
         transform="matrix(-0.4,0,0,-0.4,-4,0)"
         style="fill:#0000a8;fill-rule:evenodd;stroke:#0000a8;stroke-width:1pt"
         d="M 0,0 5,-5 -12.5,0 5,5 0,0 z"
         id="path6997"
         inkscape:connector-curvature="0" />
    </marker>
    <marker
       style="overflow:visible"
       id="Arrow1Mend5-0l"
       refX="0"
       refY="0"
       orient="auto"
       inkscape:stockid="Arrow1Mend5-0l">
      <path
         transform="matrix(-0.4,0,0,-0.4,-4,0)"
         style="fill:#0000a8;fill-rule:evenodd;stroke:#0000a8;stroke-width:1pt"
         d="M 0,0 5,-5 -12.5,0 5,5 0,0 z"
         id="path7000"
         inkscape:connector-curvature="0" />
    </marker>
    <marker
       style="overflow:visible"
       id="Arrow1Mend5-0I"
       refX="0"
       refY="0"
       orient="auto"
       inkscape:stockid="Arrow1Mend5-0I">
      <path
         transform="matrix(-0.4,0,0,-0.4,-4,0)"
         style="fill:#0000a8;fill-rule:evenodd;stroke:#0000a8;stroke-width:1pt"
         d="M 0,0 5,-5 -12.5,0 5,5 0,0 z"
         id="path7003"
         inkscape:connector-curvature="0" />
    </marker>
    <marker
       style="overflow:visible"
       id="Arrow1Mend5-0W"
       refX="0"
       refY="0"
       orient="auto"
       inkscape:stockid="Arrow1Mend5-0W">
      <path
         transform="matrix(-0.4,0,0,-0.4,-4,0)"
         style="fill:#0000a8;fill-rule:evenodd;stroke:#0000a8;stroke-width:1pt"
         d="M 0,0 5,-5 -12.5,0 5,5 0,0 z"
         id="path7006"
         inkscape:connector-curvature="0" />
    </marker>
    <marker
       style="overflow:visible"
       id="Arrow1Mend5-0k"
       refX="0"
       refY="0"
       orient="auto"
       inkscape:stockid="Arrow1Mend5-0k">
      <path
         transform="matrix(-0.4,0,0,-0.4,-4,0)"
         style="fill:#0000a8;fill-rule:evenodd;stroke:#0000a8;stroke-width:1pt"
         d="M 0,0 5,-5 -12.5,0 5,5 0,0 z"
         id="path7009"
         inkscape:connector-curvature="0" />
    </marker>
    <marker
       style="overflow:visible"
       id="Arrow1Mend5-0dp"
       refX="0"
       refY="0"
       orient="auto"
       inkscape:stockid="Arrow1Mend5-0dp">
      <path
         transform="matrix(-0.4,0,0,-0.4,-4,0)"
         style="fill:#ff0000;fill-rule:evenodd;stroke:#ff0000;stroke-width:1pt"
         d="M 0,0 5,-5 -12.5,0 5,5 0,0 z"
         id="path7366"
         inkscape:connector-curvature="0" />
    </marker>
    <marker
       style="overflow:visible"
       id="Arrow1Mend5-0qa"
       refX="0"
       refY="0"
       orient="auto"
       inkscape:stockid="Arrow1Mend5-0qa">
      <path
         transform="matrix(-0.4,0,0,-0.4,-4,0)"
         style="fill:#ff0000;fill-rule:evenodd;stroke:#ff0000;stroke-width:1pt"
         d="M 0,0 5,-5 -12.5,0 5,5 0,0 z"
         id="path7369"
         inkscape:connector-curvature="0" />
    </marker>
    <marker
       style="overflow:visible"
       id="Arrow1Mend5-0Bk"
       refX="0"
       refY="0"
       orient="auto"
       inkscape:stockid="Arrow1Mend5-0Bk">
      <path
         transform="matrix(-0.4,0,0,-0.4,-4,0)"
         style="fill:#ff0000;fill-rule:evenodd;stroke:#ff0000;stroke-width:1pt"
         d="M 0,0 5,-5 -12.5,0 5,5 0,0 z"
         id="path7372"
         inkscape:connector-curvature="0" />
    </marker>
    <marker
       style="overflow:visible"
       id="Arrow1Mend5-0NH"
       refX="0"
       refY="0"
       orient="auto"
       inkscape:stockid="Arrow1Mend5-0NH">
      <path
         transform="matrix(-0.4,0,0,-0.4,-4,0)"
         style="fill:#ff0000;fill-rule:evenodd;stroke:#ff0000;stroke-width:1pt"
         d="M 0,0 5,-5 -12.5,0 5,5 0,0 z"
         id="path7375"
         inkscape:connector-curvature="0" />
    </marker>
    <marker
       style="overflow:visible"
       id="Arrow1Mend5-0Jj"
       refX="0"
       refY="0"
       orient="auto"
       inkscape:stockid="Arrow1Mend5-0Jj">
      <path
         transform="matrix(-0.4,0,0,-0.4,-4,0)"
         style="fill:#ff0000;fill-rule:evenodd;stroke:#ff0000;stroke-width:1pt"
         d="M 0,0 5,-5 -12.5,0 5,5 0,0 z"
         id="path7378"
         inkscape:connector-curvature="0" />
    </marker>
    <marker
       style="overflow:visible"
       id="Arrow1Mend5-0lq"
       refX="0"
       refY="0"
       orient="auto"
       inkscape:stockid="Arrow1Mend5-0lq">
      <path
         transform="matrix(-0.4,0,0,-0.4,-4,0)"
         style="fill:#ff0000;fill-rule:evenodd;stroke:#ff0000;stroke-width:1pt"
         d="M 0,0 5,-5 -12.5,0 5,5 0,0 z"
         id="path7381"
         inkscape:connector-curvature="0" />
    </marker>
    <marker
       style="overflow:visible"
       id="Arrow1Mend5-0Ih"
       refX="0"
       refY="0"
       orient="auto"
       inkscape:stockid="Arrow1Mend5-0Ih">
      <path
         transform="matrix(-0.4,0,0,-0.4,-4,0)"
         style="fill:#ff0000;fill-rule:evenodd;stroke:#ff0000;stroke-width:1pt"
         d="M 0,0 5,-5 -12.5,0 5,5 0,0 z"
         id="path7384"
         inkscape:connector-curvature="0" />
    </marker>
    <marker
       style="overflow:visible"
       id="Arrow1Mend5-0Wu"
       refX="0"
       refY="0"
       orient="auto"
       inkscape:stockid="Arrow1Mend5-0Wu">
      <path
         transform="matrix(-0.4,0,0,-0.4,-4,0)"
         style="fill:#ff0000;fill-rule:evenodd;stroke:#ff0000;stroke-width:1pt"
         d="M 0,0 5,-5 -12.5,0 5,5 0,0 z"
         id="path7387"
         inkscape:connector-curvature="0" />
    </marker>
    <marker
       style="overflow:visible"
       id="Arrow1Mend5-0ki"
       refX="0"
       refY="0"
       orient="auto"
       inkscape:stockid="Arrow1Mend5-0ki">
      <path
         transform="matrix(-0.4,0,0,-0.4,-4,0)"
         style="fill:#ff0000;fill-rule:evenodd;stroke:#ff0000;stroke-width:1pt"
         d="M 0,0 5,-5 -12.5,0 5,5 0,0 z"
         id="path7390"
         inkscape:connector-curvature="0" />
    </marker>
  </defs>
  <metadata
     id="metadata7">
    <rdf:RDF>
      <cc:Work
         rdf:about="">
        <dc:format>image/svg+xml</dc:format>
        <dc:type
           rdf:resource="http://purl.org/dc/dcmitype/StillImage" />
        <dc:title />
      </cc:Work>
    </rdf:RDF>
  </metadata>
  <g
     transform="translate(0,-902.36218)"
     id="layer1"
     inkscape:groupmode="layer"
     inkscape:label="Calque 1">
    <path
       inkscape:connector-curvature="0"
       id="path3753"
       d="m 39.75,960.48718 28.645833,0"
       style="fill:none;stroke:#0000a8;stroke-width:1px;stroke-linecap:butt;stroke-linejoin:miter;stroke-opacity:1;marker-end:url(#Arrow1Mendt)" />
    <path
       sodipodi:nodetypes="cc"
       inkscape:connector-curvature="0"
       id="path3753-4"
       d="m 73.138,962.95118 0,28.80809"
       style="fill:none;stroke:#0000a8;stroke-width:1px;stroke-linecap:butt;stroke-linejoin:miter;stroke-opacity:1;marker-end:url(#Arrow1Mend3)" />
    <path
       sodipodi:nodetypes="cc"
       inkscape:connector-curvature="0"
       id="path3753-4-4"
       d="m 113.138,992.50927 0,-28.80809"
       style="fill:none;stroke:#0000a8;stroke-width:1px;stroke-linecap:butt;stroke-linejoin:miter;stroke-opacity:1;marker-end:url(#Arrow1MendI)" />
    <path
       inkscape:connector-curvature="0"
       id="path3753-0"
       d="m 77.75,994.48718 28.64583,0"
       style="fill:none;stroke:#0000a8;stroke-width:1px;stroke-linecap:butt;stroke-linejoin:miter;stroke-opacity:1;marker-end:url(#Arrow1Mendb)" />
    <path
       inkscape:connector-curvature="0"
       id="path3753-0-4"
       d="m 117.75,960.48718 28.64583,0"
       style="fill:none;stroke:#0000a8;stroke-width:1px;stroke-linecap:butt;stroke-linejoin:miter;stroke-opacity:1;marker-end:url(#Arrow1Mendc)" />
    <path
       inkscape:connector-curvature="0"
       id="path3753-0-4-7"
       d="m 151.75,960.48718 28.64583,0"
       style="fill:none;stroke:#0000a8;stroke-width:1px;stroke-linecap:butt;stroke-linejoin:miter;stroke-opacity:1;marker-end:url(#Arrow1Mendy)" />
    <path
       sodipodi:nodetypes="cc"
       inkscape:connector-curvature="0"
       id="path3753-4-9"
       d="m 185.138,962.95118 0,28.80809"
       style="fill:none;stroke:#0000a8;stroke-width:1px;stroke-linecap:butt;stroke-linejoin:miter;stroke-opacity:1;marker-end:url(#Arrow1Mendx)" />
    <path
       inkscape:connector-curvature="0"
       id="path3753-0-6"
       d="m 187.75,994.48718 28.64583,0"
       style="fill:none;stroke:#0000a8;stroke-width:1px;stroke-linecap:butt;stroke-linejoin:miter;stroke-opacity:1;marker-end:url(#Arrow1Mend5)" />
    <path
       sodipodi:nodetypes="cc"
       inkscape:connector-curvature="0"
       id="path3753-4-4-1"
       d="m 223.138,992.50927 16,-28.80809"
       style="fill:none;stroke:#0000a8;stroke-width:1px;stroke-linecap:butt;stroke-linejoin:miter;stroke-opacity:1;marker-end:url(#Arrow1Mendz)" />
    <path
       sodipodi:nodetypes="csc"
       inkscape:connector-curvature="0"
       id="path4391"
       d="m 255.72917,964.65385 c 17.86623,30.60245 10.02618,64.37295 -105.15107,64.37295 -127.16842,0 -127.671487,-43.07227 -119.3281,-60.20629"
       style="fill:none;stroke:#0000a8;stroke-width:1px;stroke-linecap:butt;stroke-linejoin:miter;stroke-opacity:1;marker-end:url(#Arrow1Mend-69h)" />
    <path
       style="fill:none;stroke:#000000;stroke-width:1px;stroke-linecap:butt;stroke-linejoin:miter;stroke-opacity:1;marker-end:url(#Arrow1Mend-69)"
       d="m 37.933333,945.32464 35.355339,0"
       id="path4705"
       inkscape:connector-curvature="0" />
    <path
       style="fill:none;stroke:#000000;stroke-width:1px;stroke-linecap:butt;stroke-linejoin:miter;stroke-opacity:1;marker-end:url(#Arrow1Mend-69)"
       d="m 77.933333,945.32464 35.355337,0"
       id="path4705-2"
       inkscape:connector-curvature="0" />
    <path
       style="fill:none;stroke:#000000;stroke-width:1px;stroke-linecap:butt;stroke-linejoin:miter;stroke-opacity:1;marker-end:url(#Arrow1Mend-69)"
       d="m 117.93333,945.32464 28.35793,0"
       id="path4705-2-7"
       inkscape:connector-curvature="0"
       sodipodi:nodetypes="cc" />
    <path
       style="fill:none;stroke:#000000;stroke-width:1px;stroke-linecap:butt;stroke-linejoin:miter;stroke-opacity:1;marker-end:url(#Arrow1Mend-69)"
       d="m 152.77734,945.32464 29.0945,0"
       id="path4705-2-7-8"
       inkscape:connector-curvature="0"
       sodipodi:nodetypes="cc" />
    <path
       style="fill:none;stroke:#000000;stroke-width:1px;stroke-linecap:butt;stroke-linejoin:miter;stroke-opacity:1;marker-end:url(#Arrow1Mend-69)"
       d="m 189.46278,945.32464 19.88738,0"
       id="path4705-2-7-8-6"
       inkscape:connector-curvature="0"
       sodipodi:nodetypes="cc" />
    <path
       style="fill:none;stroke:#000000;stroke-width:1px;stroke-linecap:butt;stroke-linejoin:miter;stroke-opacity:1;marker-end:url(#Arrow1Mend-69)"
       d="m 213.46278,945.32464 19.88738,-22"
       id="path4705-2-7-8-6-4"
       inkscape:connector-curvature="0"
       sodipodi:nodetypes="cc" />
    <path
       style="fill:none;stroke:#000000;stroke-width:1px;stroke-linecap:butt;stroke-linejoin:miter;stroke-opacity:1;marker-end:url(#Arrow1Mend-69)"
       d="m 237.46278,922.83281 19.88738,12"
       id="path4705-2-7-8-6-4-3"
       inkscape:connector-curvature="0"
       sodipodi:nodetypes="cc" />
    <path
       style="fill:none;stroke:#000000;stroke-width:1px;stroke-linecap:butt;stroke-linejoin:miter;stroke-opacity:1;marker-end:url(#Arrow1Mend-69)"
       d="m 257.46278,936.83281 -0.11262,12"
       id="path4705-2-7-8-6-4-3-0"
       inkscape:connector-curvature="0"
       sodipodi:nodetypes="cc" />
    <path
       style="fill:none;stroke:#000000;stroke-width:1px;stroke-linecap:butt;stroke-linejoin:miter;stroke-opacity:1;marker-end:url(#Arrow1Mend-69)"
       d="m 261.46278,945.32464 19.88738,0"
       id="path4705-2-7-8-6-8"
       inkscape:connector-curvature="0"
       sodipodi:nodetypes="cc" />
    <path
       style="fill:none;stroke:#008100;stroke-width:1px;stroke-linecap:butt;stroke-linejoin:miter;stroke-opacity:1;marker-end:url(#Arrow1Mend-69-9p)"
       d="m 38.802083,952.15385 35.677084,0"
       id="path5117"
       inkscape:connector-curvature="0" />
    <path
       style="fill:none;stroke:#008100;stroke-width:1px;stroke-linecap:butt;stroke-linejoin:miter;stroke-opacity:1;marker-end:url(#Arrow1Mend-69-9Y)"
       d="m 78.802083,952.15385 35.677087,0"
       id="path5117-5"
       inkscape:connector-curvature="0" />
    <path
       style="fill:none;stroke:#008100;stroke-width:1px;stroke-linecap:butt;stroke-linejoin:miter;stroke-opacity:1;marker-end:url(#Arrow1Mend-69-9R)"
       d="m 118.80208,952.15385 28.90626,0"
       id="path5117-5-3"
       inkscape:connector-curvature="0"
       sodipodi:nodetypes="cc" />
    <path
       style="fill:none;stroke:#008100;stroke-width:1px;stroke-linecap:butt;stroke-linejoin:miter;stroke-opacity:1;marker-end:url(#Arrow1Mend-69-9e)"
       d="m 152.80208,952.15385 28.90626,0"
       id="path5117-5-3-1"
       inkscape:connector-curvature="0"
       sodipodi:nodetypes="cc" />
    <path
       style="fill:none;stroke:#008100;stroke-width:1px;stroke-linecap:butt;stroke-linejoin:miter;stroke-opacity:1;marker-end:url(#Arrow1Mend-69-9g)"
       d="m 188.80208,952.15385 22.91668,0"
       id="path5117-5-3-1-1"
       inkscape:connector-curvature="0"
       sodipodi:nodetypes="cc" />
    <path
       style="fill:none;stroke:#008100;stroke-width:1px;stroke-linecap:butt;stroke-linejoin:miter;stroke-opacity:1;marker-end:url(#Arrow1Mend-69-95)"
       d="m 216.80208,952.15385 22.91668,0"
       id="path5117-5-3-1-1-4"
       inkscape:connector-curvature="0"
       sodipodi:nodetypes="cc" />
    <path
       style="fill:none;stroke:#008100;stroke-width:1px;stroke-linecap:butt;stroke-linejoin:miter;stroke-opacity:1;marker-end:url(#Arrow1Mend-69-9y)"
       d="m 242.80208,952.15385 15.62501,0"
       id="path5117-5-3-1-1-4-0"
       inkscape:connector-curvature="0"
       sodipodi:nodetypes="cc" />
    <path
       style="fill:none;stroke:#008100;stroke-width:1px;stroke-linecap:butt;stroke-linejoin:miter;stroke-opacity:1;marker-end:url(#Arrow1Mend-69-9r)"
       d="m 262.80208,952.15385 22.91668,0"
       id="path5117-5-3-1-1-4-2"
       inkscape:connector-curvature="0"
       sodipodi:nodetypes="cc" />
    <path
       style="fill:none;stroke:#008100;stroke-width:1px;stroke-linecap:butt;stroke-linejoin:miter;stroke-opacity:1;marker-end:url(#Arrow1Mend-69-9y)"
       d="m 259.17709,956.15385 -15.62501,0"
       id="path5117-5-3-1-1-4-0-1"
       inkscape:connector-curvature="0"
       sodipodi:nodetypes="cc" />
    <path
       style="fill:none;stroke:#008100;stroke-width:1px;stroke-linecap:butt;stroke-linejoin:miter;stroke-opacity:1;marker-end:url(#Arrow1Mend-69-95)"
       d="m 240.46876,956.15385 -22.91668,0"
       id="path5117-5-3-1-1-4-9"
       inkscape:connector-curvature="0"
       sodipodi:nodetypes="cc" />
    <path
       inkscape:connector-curvature="0"
       id="path5807"
       d="m 226.83786,945.8515 -4.6637,17.40518"
       style="fill:none;stroke:#000000;stroke-width:1px;stroke-linecap:butt;stroke-linejoin:miter;stroke-opacity:1" />
    <path
       inkscape:connector-curvature="0"
       id="path5807-2"
       d="m 230.83786,945.8515 -4.6637,17.40518"
       style="fill:none;stroke:#000000;stroke-width:1px;stroke-linecap:butt;stroke-linejoin:miter;stroke-opacity:1" />
    <path
       inkscape:connector-curvature="0"
       id="path5807-2-9"
       d="m 234.83786,945.8515 -4.6637,17.40518"
       style="fill:none;stroke:#000000;stroke-width:1px;stroke-linecap:butt;stroke-linejoin:miter;stroke-opacity:1" />
    <path
       inkscape:connector-curvature="0"
       id="path5807-6"
       d="m 246.83786,945.8515 -4.6637,17.40518"
       style="fill:none;stroke:#000000;stroke-width:1px;stroke-linecap:butt;stroke-linejoin:miter;stroke-opacity:1" />
    <path
       inkscape:connector-curvature="0"
       id="path5807-2-2"
       d="m 250.83786,945.8515 -4.6637,17.40518"
       style="fill:none;stroke:#000000;stroke-width:1px;stroke-linecap:butt;stroke-linejoin:miter;stroke-opacity:1" />
    <path
       inkscape:connector-curvature="0"
       id="path5807-2-9-7"
       d="m 254.83786,945.8515 -4.6637,17.40518"
       style="fill:none;stroke:#000000;stroke-width:1px;stroke-linecap:butt;stroke-linejoin:miter;stroke-opacity:1" />
    <path
       inkscape:connector-curvature="0"
       id="path3753-3"
       d="m 39.75,964.48718 28.645833,0"
       style="fill:none;stroke:#ff0000;stroke-width:1px;stroke-linecap:butt;stroke-linejoin:miter;stroke-opacity:1;marker-end:url(#Arrow1Mend5-0NH)" />
    <path
       sodipodi:nodetypes="cc"
       inkscape:connector-curvature="0"
       id="path3753-4-46"
       d="m 69.138,966.95118 0,28.80809"
       style="fill:none;stroke:#ff0000;stroke-width:1px;stroke-linecap:butt;stroke-linejoin:miter;stroke-opacity:1;marker-end:url(#Arrow1Mend5-0ki)" />
    <path
       sodipodi:nodetypes="cc"
       inkscape:connector-curvature="0"
       id="path3753-4-4-5"
       d="m 117.138,996.50927 0,-28.80809"
       style="fill:none;stroke:#ff0000;stroke-width:1px;stroke-linecap:butt;stroke-linejoin:miter;stroke-opacity:1;marker-end:url(#Arrow1Mend5-0Bk)" />
    <path
       inkscape:connector-curvature="0"
       id="path3753-0-9"
       d="m 77.75,998.48718 28.64583,0"
       style="fill:none;stroke:#ff0000;stroke-width:1px;stroke-linecap:butt;stroke-linejoin:miter;stroke-opacity:1;marker-end:url(#Arrow1Mend5-0Ih)" />
    <path
       inkscape:connector-curvature="0"
       id="path3753-0-4-8"
       d="m 117.75,964.48718 28.64583,0"
       style="fill:none;stroke:#ff0000;stroke-width:1px;stroke-linecap:butt;stroke-linejoin:miter;stroke-opacity:1;marker-end:url(#Arrow1Mend5-0Jj)" />
    <path
       inkscape:connector-curvature="0"
       id="path3753-0-4-7-8"
       d="m 151.75,964.48718 28.64583,0"
       style="fill:none;stroke:#ff0000;stroke-width:1px;stroke-linecap:butt;stroke-linejoin:miter;stroke-opacity:1;marker-end:url(#Arrow1Mend5-0lq)" />
    <path
       sodipodi:nodetypes="cc"
       inkscape:connector-curvature="0"
       id="path3753-4-9-0"
       d="m 181.138,966.95118 0,28.80809"
       style="fill:none;stroke:#ff0000;stroke-width:1px;stroke-linecap:butt;stroke-linejoin:miter;stroke-opacity:1;marker-end:url(#Arrow1Mend5-0Wu)" />
    <path
       inkscape:connector-curvature="0"
       id="path3753-0-6-4"
       d="m 187.75,998.48718 28.64583,0"
       style="fill:none;stroke:#ff0000;stroke-width:1px;stroke-linecap:butt;stroke-linejoin:miter;stroke-opacity:1;marker-end:url(#Arrow1Mend5-0dp)" />
    <path
       sodipodi:nodetypes="cc"
       inkscape:connector-curvature="0"
       id="path3753-4-4-1-2"
       d="m 225.138,996.50927 16,-28.80809"
       style="fill:none;stroke:#ff0000;stroke-width:1px;stroke-linecap:butt;stroke-linejoin:miter;stroke-opacity:1;marker-end:url(#Arrow1Mend5-0qa)" />
    <path
       sodipodi:nodetypes="csc"
       inkscape:connector-curvature="0"
       id="path4391-7"
       d="m 251.72917,968.65385 c 17.86623,30.60245 -7.84882,54.99795 -101.15107,54.99795 -111.54342,0 -121.671487,-34.73894 -113.3281,-50.83129"
       style="fill:none;stroke:#ff0000;stroke-width:1px;stroke-linecap:round;stroke-linejoin:round;stroke-opacity:1;marker-end:url(#Arrow1Mend-69h-9i)" />
  </g>
</svg>
