<?xml version="1.0" encoding="UTF-8" standalone="no"?>
<!-- Created with Inkscape (http://www.inkscape.org/) -->

<svg
   xmlns:dc="http://purl.org/dc/elements/1.1/"
   xmlns:cc="http://creativecommons.org/ns#"
   xmlns:rdf="http://www.w3.org/1999/02/22-rdf-syntax-ns#"
   xmlns:svg="http://www.w3.org/2000/svg"
   xmlns="http://www.w3.org/2000/svg"
   xmlns:sodipodi="http://sodipodi.sourceforge.net/DTD/sodipodi-0.dtd"
   xmlns:inkscape="http://www.inkscape.org/namespaces/inkscape"
   width="200"
   height="180"
   id="svg2"
   version="1.1"
   inkscape:version="0.48.4 r9939"
   sodipodi:docname="Nouveau document 1">
  <defs
     id="defs4">
    <marker
       inkscape:stockid="Arrow1Mend"
       orient="auto"
       refY="0"
       refX="0"
       id="Arrow1Mend"
       style="overflow:visible">
      <path
         id="path3912"
         d="M 0,0 5,-5 -12.5,0 5,5 0,0 z"
         style="fill-rule:evenodd;stroke:#000000;stroke-width:1pt"
         transform="matrix(-0.4,0,0,-0.4,-4,0)"
         inkscape:connector-curvature="0" />
    </marker>
  </defs>
  <sodipodi:namedview
     id="base"
     pagecolor="#ffffff"
     bordercolor="#666666"
     borderopacity="1.0"
     inkscape:pageopacity="0.0"
     inkscape:pageshadow="2"
     inkscape:zoom="1.357645"
     inkscape:cx="185.21998"
     inkscape:cy="181.06602"
     inkscape:document-units="px"
     inkscape:current-layer="layer1"
     showgrid="false"
     inkscape:window-width="1280"
     inkscape:window-height="753"
     inkscape:window-x="0"
     inkscape:window-y="25"
     inkscape:window-maximized="1" />
  <metadata
     id="metadata7">
    <rdf:RDF>
      <cc:Work
         rdf:about="">
        <dc:format>image/svg+xml</dc:format>
        <dc:type
           rdf:resource="http://purl.org/dc/dcmitype/StillImage" />
        <dc:title></dc:title>
      </cc:Work>
    </rdf:RDF>
  </metadata>
  <g
     inkscape:label="Calque 1"
     inkscape:groupmode="layer"
     id="layer1"
     transform="translate(0,-872.36218)">
    <path
       style="fill:none;stroke:#000000;stroke-width:1px;stroke-linecap:butt;stroke-linejoin:miter;stroke-opacity:1"
       d="m 59.833333,894.54968 c -30.519149,43.4677 -21.959797,87.96378 0,132.81252 28.164599,-43.54868 25.983911,-87.87543 0,-132.81252 z"
       id="path2985"
       inkscape:connector-curvature="0"
       sodipodi:nodetypes="ccc" />
    <path
       style="fill:none;stroke:#000000;stroke-width:1px;stroke-linecap:butt;stroke-linejoin:miter;stroke-opacity:1"
       d="m 139.83333,894.54968 c -30.51915,43.4677 -21.95979,87.96378 0,132.81252 28.1646,-43.54868 25.98391,-87.87543 0,-132.81252 z"
       id="path2985-2"
       inkscape:connector-curvature="0"
       sodipodi:nodetypes="ccc" />
    <path
       sodipodi:type="arc"
       style="fill:#000000;fill-opacity:1;stroke:none"
       id="path3016"
       sodipodi:cx="45.833332"
       sodipodi:cy="168.75"
       sodipodi:rx="2.0833333"
       sodipodi:ry="2.0833333"
       d="m 47.916665,168.75 a 2.0833333,2.0833333 0 1 1 -4.166666,0 2.0833333,2.0833333 0 1 1 4.166666,0 z"
       transform="translate(14,752.36218)" />
    <path
       transform="translate(14,764.36218)"
       sodipodi:type="arc"
       style="fill:#000000;fill-opacity:1;stroke:none"
       id="path3016-5"
       sodipodi:cx="45.833332"
       sodipodi:cy="168.75"
       sodipodi:rx="2.0833333"
       sodipodi:ry="2.0833333"
       d="m 47.916665,168.75 a 2.0833333,2.0833333 0 1 1 -4.166666,0 2.0833333,2.0833333 0 1 1 4.166666,0 z" />
    <path
       transform="translate(14,778.36218)"
       sodipodi:type="arc"
       style="fill:#000000;fill-opacity:1;stroke:none"
       id="path3016-5-1"
       sodipodi:cx="45.833332"
       sodipodi:cy="168.75"
       sodipodi:rx="2.0833333"
       sodipodi:ry="2.0833333"
       d="m 47.916665,168.75 a 2.0833333,2.0833333 0 1 1 -4.166666,0 2.0833333,2.0833333 0 1 1 4.166666,0 z" />
    <path
       transform="translate(14,824.36218)"
       sodipodi:type="arc"
       style="fill:#000000;fill-opacity:1;stroke:none"
       id="path3016-5-3"
       sodipodi:cx="45.833332"
       sodipodi:cy="168.75"
       sodipodi:rx="2.0833333"
       sodipodi:ry="2.0833333"
       d="m 47.916665,168.75 a 2.0833333,2.0833333 0 1 1 -4.166666,0 2.0833333,2.0833333 0 1 1 4.166666,0 z" />
    <path
       transform="translate(14,838.36218)"
       sodipodi:type="arc"
       style="fill:#000000;fill-opacity:1;stroke:none"
       id="path3016-5-1-0"
       sodipodi:cx="45.833332"
       sodipodi:cy="168.75"
       sodipodi:rx="2.0833333"
       sodipodi:ry="2.0833333"
       d="m 47.916665,168.75 a 2.0833333,2.0833333 0 1 1 -4.166666,0 2.0833333,2.0833333 0 1 1 4.166666,0 z" />
    <path
       transform="translate(94,754.36218)"
       sodipodi:type="arc"
       style="fill:#000000;fill-opacity:1;stroke:none"
       id="path3016-4"
       sodipodi:cx="45.833332"
       sodipodi:cy="168.75"
       sodipodi:rx="2.0833333"
       sodipodi:ry="2.0833333"
       d="m 47.916665,168.75 a 2.0833333,2.0833333 0 1 1 -4.166666,0 2.0833333,2.0833333 0 1 1 4.166666,0 z" />
    <path
       transform="translate(94,766.36218)"
       sodipodi:type="arc"
       style="fill:#000000;fill-opacity:1;stroke:none"
       id="path3016-5-6"
       sodipodi:cx="45.833332"
       sodipodi:cy="168.75"
       sodipodi:rx="2.0833333"
       sodipodi:ry="2.0833333"
       d="m 47.916665,168.75 a 2.0833333,2.0833333 0 1 1 -4.166666,0 2.0833333,2.0833333 0 1 1 4.166666,0 z" />
    <path
       transform="translate(94,776.36218)"
       sodipodi:type="arc"
       style="fill:#000000;fill-opacity:1;stroke:none"
       id="path3016-5-1-1"
       sodipodi:cx="45.833332"
       sodipodi:cy="168.75"
       sodipodi:rx="2.0833333"
       sodipodi:ry="2.0833333"
       d="m 47.916665,168.75 a 2.0833333,2.0833333 0 1 1 -4.166666,0 2.0833333,2.0833333 0 1 1 4.166666,0 z" />
    <path
       transform="translate(94,826.36218)"
       sodipodi:type="arc"
       style="fill:#000000;fill-opacity:1;stroke:none"
       id="path3016-5-3-1"
       sodipodi:cx="45.833332"
       sodipodi:cy="168.75"
       sodipodi:rx="2.0833333"
       sodipodi:ry="2.0833333"
       d="m 47.916665,168.75 a 2.0833333,2.0833333 0 1 1 -4.166666,0 2.0833333,2.0833333 0 1 1 4.166666,0 z" />
    <path
       transform="translate(94,840.36218)"
       sodipodi:type="arc"
       style="fill:#000000;fill-opacity:1;stroke:none"
       id="path3016-5-1-0-8"
       sodipodi:cx="45.833332"
       sodipodi:cy="168.75"
       sodipodi:rx="2.0833333"
       sodipodi:ry="2.0833333"
       d="m 47.916665,168.75 a 2.0833333,2.0833333 0 1 1 -4.166666,0 2.0833333,2.0833333 0 1 1 4.166666,0 z" />
    <path
       transform="translate(94,814.36218)"
       sodipodi:type="arc"
       style="fill:#000000;fill-opacity:1;stroke:none"
       id="path3016-5-3-1-4"
       sodipodi:cx="45.833332"
       sodipodi:cy="168.75"
       sodipodi:rx="2.0833333"
       sodipodi:ry="2.0833333"
       d="m 47.916665,168.75 a 2.0833333,2.0833333 0 1 1 -4.166666,0 2.0833333,2.0833333 0 1 1 4.166666,0 z" />
    <path
       style="fill:none;stroke:#000000;stroke-width:1px;stroke-linecap:butt;stroke-linejoin:miter;stroke-opacity:1;marker-end:url(#Arrow1Mend)"
       d="M 62.958333,948.71635 135.875,1007.0497"
       id="path3891"
       inkscape:connector-curvature="0" />
    <path
       style="fill:none;stroke:#000000;stroke-width:1px;stroke-linecap:butt;stroke-linejoin:miter;stroke-opacity:1;marker-end:url(#Arrow1Mend)"
       d="m 62.4375,945.07051 72.91667,-21.35416"
       id="path3893"
       inkscape:connector-curvature="0" />
    <path
       style="fill:none;stroke:#000000;stroke-width:1px;stroke-linecap:butt;stroke-linejoin:miter;stroke-opacity:1;marker-end:url(#Arrow1Mend)"
       d="m 62.958333,921.11218 70.833337,0.52083"
       id="path3895"
       inkscape:connector-curvature="0" />
    <path
       style="fill:none;stroke:#000000;stroke-width:1px;stroke-linecap:butt;stroke-linejoin:miter;stroke-opacity:1;marker-end:url(#Arrow1Mend)"
       d="m 63.479167,934.65385 71.875003,46.35416"
       id="path3897"
       inkscape:connector-curvature="0" />
  </g>
</svg>
